<svg xmlns="http://www.w3.org/2000/svg" xmlns:xlink="http://www.w3.org/1999/xlink" contentStyleType="text/css" height="1675px" preserveAspectRatio="none" style="width:967px;height:1675px;background:#FFFFFF;" version="1.1" viewBox="0 0 967 1675" width="967px" zoomAndPan="magnify"><defs/><g><!--class Client--><g id="elem_Client"><rect codeLine="1" fill="#F1F1F1" height="113.1875" id="Client" rx="2.5" ry="2.5" style="stroke:#181818;stroke-width:0.5;" width="190.9854" x="225.31" y="740.53"/><ellipse cx="296.2875" cy="756.53" fill="#ADD1B2" rx="11" ry="11" style="stroke:#181818;stroke-width:1.0;"/><path d="M300.3969,762.53 L292.6782,762.53 L292.6782,750.1394 L300.3969,750.1394 L300.3969,752.2956 L295.1313,752.2956 L295.1313,754.9675 L299.8969,754.9675 L299.8969,757.1238 L295.1313,757.1238 L295.1313,760.3738 L300.3969,760.3738 L300.3969,762.53 Z " fill="#000000"/><text fill="#000000" font-family="sans-serif" font-size="14" lengthAdjust="spacing" textLength="40.5303" x="316.7875" y="761.3767">Client</text><line style="stroke:#181818;stroke-width:0.5;" x1="226.31" x2="415.2954" y1="772.53" y2="772.53"/><ellipse cx="236.31" cy="786.1784" fill="#000000" rx="3" ry="3" style="stroke:#000000;stroke-width:1.0;"/><text fill="#000000" font-family="sans-serif" font-size="14" lengthAdjust="spacing" textLength="142.0029" x="245.31" y="789.5251">client_id: UUID &#171;PK&#187;</text><line style="stroke:#181818;stroke-width:1.0;" x1="226.31" x2="415.2954" y1="796.8269" y2="796.8269"/><text fill="#000000" font-family="sans-serif" font-size="14" lengthAdjust="spacing" textLength="94.7598" x="231.31" y="813.822">phone: String</text><text fill="#000000" font-family="sans-serif" font-size="14" lengthAdjust="spacing" textLength="178.9854" x="231.31" y="830.1189">loyalty_member: Boolean</text><text fill="#000000" font-family="sans-serif" font-size="14" lengthAdjust="spacing" textLength="102.7715" x="231.31" y="846.4157">session: String</text></g><!--class LoyaltyProgram--><g id="elem_LoyaltyProgram"><rect codeLine="9" fill="#F1F1F1" height="194.6719" id="LoyaltyProgram" rx="2.5" ry="2.5" style="stroke:#181818;stroke-width:0.5;" width="243.6016" x="7" y="963.31"/><ellipse cx="69.2925" cy="979.31" fill="#ADD1B2" rx="11" ry="11" style="stroke:#181818;stroke-width:1.0;"/><path d="M73.4019,985.31 L65.6831,985.31 L65.6831,972.9194 L73.4019,972.9194 L73.4019,975.0756 L68.1362,975.0756 L68.1362,977.7475 L72.9019,977.7475 L72.9019,979.9038 L68.1362,979.9038 L68.1362,983.1538 L73.4019,983.1538 L73.4019,985.31 Z " fill="#000000"/><text fill="#000000" font-family="sans-serif" font-size="14" lengthAdjust="spacing" textLength="110.5166" x="89.7925" y="984.1567">LoyaltyProgram</text><line style="stroke:#181818;stroke-width:0.5;" x1="8" x2="249.6016" y1="995.31" y2="995.31"/><ellipse cx="18" cy="1008.9584" fill="#000000" rx="3" ry="3" style="stroke:#000000;stroke-width:1.0;"/><text fill="#000000" font-family="sans-serif" font-size="14" lengthAdjust="spacing" textLength="217.6016" x="27" y="1012.3051">loyalty_program_id: UUID &#171;PK&#187;</text><line style="stroke:#181818;stroke-width:1.0;" x1="8" x2="249.6016" y1="1019.6069" y2="1019.6069"/><text fill="#000000" font-family="sans-serif" font-size="14" lengthAdjust="spacing" textLength="141.6133" x="13" y="1036.602">client_id: UUID &#171;FK&#187;</text><text fill="#000000" font-family="sans-serif" font-size="14" lengthAdjust="spacing" textLength="152.0176" x="13" y="1052.8989">bonus_points: Integer</text><text fill="#000000" font-family="sans-serif" font-size="14" lengthAdjust="spacing" textLength="119.2324" x="13" y="1069.1957">full_name: String</text><text fill="#000000" font-family="sans-serif" font-size="14" lengthAdjust="spacing" textLength="94.7598" x="13" y="1085.4926">phone: String</text><text fill="#000000" font-family="sans-serif" font-size="14" lengthAdjust="spacing" textLength="89.5576" x="13" y="1101.7895">email: String</text><text fill="#000000" font-family="sans-serif" font-size="14" lengthAdjust="spacing" textLength="101.2744" x="13" y="1118.0864">birthday: Date</text><text fill="#000000" font-family="sans-serif" font-size="14" lengthAdjust="spacing" textLength="129.6914" x="13" y="1134.3832">client_level: String</text><text fill="#000000" font-family="sans-serif" font-size="14" lengthAdjust="spacing" textLength="106.415" x="13" y="1150.6801">joined_at: Date</text></g><!--class Menu--><g id="elem_Menu"><rect codeLine="22" fill="#F1F1F1" height="113.1875" id="Menu" rx="2.5" ry="2.5" style="stroke:#181818;stroke-width:0.5;" width="169.5479" x="591.03" y="1004.05"/><ellipse cx="652.3347" cy="1020.05" fill="#ADD1B2" rx="11" ry="11" style="stroke:#181818;stroke-width:1.0;"/><path d="M656.4441,1026.05 L648.7253,1026.05 L648.7253,1013.6594 L656.4441,1013.6594 L656.4441,1015.8156 L651.1784,1015.8156 L651.1784,1018.4875 L655.9441,1018.4875 L655.9441,1020.6438 L651.1784,1020.6438 L651.1784,1023.8938 L656.4441,1023.8938 L656.4441,1026.05 Z " fill="#000000"/><text fill="#000000" font-family="sans-serif" font-size="14" lengthAdjust="spacing" textLength="38.4385" x="672.8347" y="1024.8967">Menu</text><line style="stroke:#181818;stroke-width:0.5;" x1="592.03" x2="759.5779" y1="1036.05" y2="1036.05"/><ellipse cx="602.03" cy="1049.6984" fill="#000000" rx="3" ry="3" style="stroke:#000000;stroke-width:1.0;"/><text fill="#000000" font-family="sans-serif" font-size="14" lengthAdjust="spacing" textLength="143.5479" x="611.03" y="1053.0451">menu_id: UUID &#171;PK&#187;</text><line style="stroke:#181818;stroke-width:1.0;" x1="592.03" x2="759.5779" y1="1060.3469" y2="1060.3469"/><text fill="#000000" font-family="sans-serif" font-size="14" lengthAdjust="spacing" textLength="90.6514" x="597.03" y="1077.342">name: String</text><text fill="#000000" font-family="sans-serif" font-size="14" lengthAdjust="spacing" textLength="114.1738" x="597.03" y="1093.6389">valid_until: Date</text><text fill="#000000" font-family="sans-serif" font-size="14" lengthAdjust="spacing" textLength="82.2227" x="597.03" y="1109.9357">type: String</text></g><!--class Dish--><g id="elem_Dish"><rect codeLine="30" fill="#F1F1F1" height="178.375" id="Dish" rx="2.5" ry="2.5" style="stroke:#181818;stroke-width:0.5;" width="158.4941" x="470.55" y="707.93"/><ellipse cx="530.1286" cy="723.93" fill="#ADD1B2" rx="11" ry="11" style="stroke:#181818;stroke-width:1.0;"/><path d="M534.238,729.93 L526.5192,729.93 L526.5192,717.5394 L534.238,717.5394 L534.238,719.6956 L528.9724,719.6956 L528.9724,722.3675 L533.738,722.3675 L533.738,724.5238 L528.9724,724.5238 L528.9724,727.7738 L534.238,727.7738 L534.238,729.93 Z " fill="#000000"/><text fill="#000000" font-family="sans-serif" font-size="14" lengthAdjust="spacing" textLength="30.8369" x="550.6286" y="728.7767">Dish</text><line style="stroke:#181818;stroke-width:0.5;" x1="471.55" x2="628.0441" y1="739.93" y2="739.93"/><ellipse cx="481.55" cy="753.5784" fill="#000000" rx="3" ry="3" style="stroke:#000000;stroke-width:1.0;"/><text fill="#000000" font-family="sans-serif" font-size="14" lengthAdjust="spacing" textLength="132.4941" x="490.55" y="756.9251">dish_id: UUID &#171;PK&#187;</text><line style="stroke:#181818;stroke-width:1.0;" x1="471.55" x2="628.0441" y1="764.2269" y2="764.2269"/><text fill="#000000" font-family="sans-serif" font-size="14" lengthAdjust="spacing" textLength="90.6514" x="476.55" y="781.222">name: String</text><text fill="#000000" font-family="sans-serif" font-size="14" lengthAdjust="spacing" textLength="82.2227" x="476.55" y="797.5189">type: String</text><text fill="#000000" font-family="sans-serif" font-size="14" lengthAdjust="spacing" textLength="128.7891" x="476.55" y="813.8157">description: String</text><text fill="#000000" font-family="sans-serif" font-size="14" lengthAdjust="spacing" textLength="101.0967" x="476.55" y="830.1126">price: Decimal</text><text fill="#000000" font-family="sans-serif" font-size="14" lengthAdjust="spacing" textLength="91.3281" x="476.55" y="846.4095">photo: String</text><text fill="#000000" font-family="sans-serif" font-size="14" lengthAdjust="spacing" textLength="103.291" x="476.55" y="862.7064">ad_text: String</text><text fill="#000000" font-family="sans-serif" font-size="14" lengthAdjust="spacing" textLength="143.1582" x="476.55" y="879.0032">menu_id: UUID &#171;FK&#187;</text></g><!--class Ingredient--><g id="elem_Ingredient"><rect codeLine="42" fill="#F1F1F1" height="194.6719" id="Ingredient" rx="2.5" ry="2.5" style="stroke:#181818;stroke-width:0.5;" width="201.3213" x="551.14" y="229.78"/><ellipse cx="611.5458" cy="245.78" fill="#ADD1B2" rx="11" ry="11" style="stroke:#181818;stroke-width:1.0;"/><path d="M615.6551,251.78 L607.9364,251.78 L607.9364,239.3894 L615.6551,239.3894 L615.6551,241.5456 L610.3895,241.5456 L610.3895,244.2175 L615.1551,244.2175 L615.1551,246.3737 L610.3895,246.3737 L610.3895,249.6237 L615.6551,249.6237 L615.6551,251.78 Z " fill="#000000"/><text fill="#000000" font-family="sans-serif" font-size="14" lengthAdjust="spacing" textLength="72.0098" x="632.0458" y="250.6267">Ingredient</text><line style="stroke:#181818;stroke-width:0.5;" x1="552.14" x2="751.4613" y1="261.78" y2="261.78"/><ellipse cx="562.14" cy="275.4284" fill="#000000" rx="3" ry="3" style="stroke:#000000;stroke-width:1.0;"/><text fill="#000000" font-family="sans-serif" font-size="14" lengthAdjust="spacing" textLength="175.3213" x="571.14" y="278.7751">ingredient_id: UUID &#171;PK&#187;</text><line style="stroke:#181818;stroke-width:1.0;" x1="552.14" x2="751.4613" y1="286.0769" y2="286.0769"/><text fill="#000000" font-family="sans-serif" font-size="14" lengthAdjust="spacing" textLength="90.6514" x="557.14" y="303.072">name: String</text><text fill="#000000" font-family="sans-serif" font-size="14" lengthAdjust="spacing" textLength="72.5977" x="557.14" y="319.3689">bju: String</text><text fill="#000000" font-family="sans-serif" font-size="14" lengthAdjust="spacing" textLength="113.8115" x="557.14" y="335.6657">calories: Integer</text><text fill="#000000" font-family="sans-serif" font-size="14" lengthAdjust="spacing" textLength="91.3281" x="557.14" y="351.9626">photo: String</text><text fill="#000000" font-family="sans-serif" font-size="14" lengthAdjust="spacing" textLength="101.0967" x="557.14" y="368.2595">price: Decimal</text><text fill="#000000" font-family="sans-serif" font-size="14" lengthAdjust="spacing" textLength="129.0488" x="557.14" y="384.5564">available: Boolean</text><text fill="#000000" font-family="sans-serif" font-size="14" lengthAdjust="spacing" textLength="155.3945" x="557.14" y="400.8532">max_quantity: Integer</text><text fill="#000000" font-family="sans-serif" font-size="14" lengthAdjust="spacing" textLength="142.5088" x="557.14" y="417.1501">mandatory: Boolean</text></g><!--class ComboBurger--><g id="elem_ComboBurger"><rect codeLine="55" fill="#F1F1F1" height="129.4844" id="ComboBurger" rx="2.5" ry="2.5" style="stroke:#181818;stroke-width:0.5;" width="181.0938" x="556.25" y="501.45"/><ellipse cx="594.7282" cy="517.45" fill="#ADD1B2" rx="11" ry="11" style="stroke:#181818;stroke-width:1.0;"/><path d="M598.8376,523.45 L591.1188,523.45 L591.1188,511.0594 L598.8376,511.0594 L598.8376,513.2156 L593.572,513.2156 L593.572,515.8875 L598.3376,515.8875 L598.3376,518.0438 L593.572,518.0438 L593.572,521.2938 L598.8376,521.2938 L598.8376,523.45 Z " fill="#000000"/><text fill="#000000" font-family="sans-serif" font-size="14" lengthAdjust="spacing" textLength="96.9199" x="613.9456" y="522.2967">ComboBurger</text><line style="stroke:#181818;stroke-width:0.5;" x1="557.25" x2="736.3438" y1="533.45" y2="533.45"/><ellipse cx="567.25" cy="547.0984" fill="#000000" rx="3" ry="3" style="stroke:#000000;stroke-width:1.0;"/><text fill="#000000" font-family="sans-serif" font-size="14" lengthAdjust="spacing" textLength="150.9033" x="576.25" y="550.4451">combo_id: UUID &#171;PK&#187;</text><line style="stroke:#181818;stroke-width:1.0;" x1="557.25" x2="736.3438" y1="557.7469" y2="557.7469"/><text fill="#000000" font-family="sans-serif" font-size="14" lengthAdjust="spacing" textLength="90.6514" x="562.25" y="574.742">name: String</text><text fill="#000000" font-family="sans-serif" font-size="14" lengthAdjust="spacing" textLength="128.7891" x="562.25" y="591.0389">description: String</text><text fill="#000000" font-family="sans-serif" font-size="14" lengthAdjust="spacing" textLength="169.0938" x="562.25" y="607.3357">ingredient_limit: Integer</text><text fill="#000000" font-family="sans-serif" font-size="14" lengthAdjust="spacing" textLength="167.4121" x="562.25" y="623.6326">price_increase: Decimal</text></g><!--class Cart--><g id="elem_Cart"><rect codeLine="64" fill="#F1F1F1" height="96.8906" id="Cart" rx="2.5" ry="2.5" style="stroke:#181818;stroke-width:0.5;" width="157.0723" x="399.26" y="1012.2"/><ellipse cx="458.7463" cy="1028.2" fill="#ADD1B2" rx="11" ry="11" style="stroke:#181818;stroke-width:1.0;"/><path d="M462.8557,1034.2 L455.137,1034.2 L455.137,1021.8094 L462.8557,1021.8094 L462.8557,1023.9656 L457.5901,1023.9656 L457.5901,1026.6375 L462.3557,1026.6375 L462.3557,1028.7938 L457.5901,1028.7938 L457.5901,1032.0438 L462.8557,1032.0438 L462.8557,1034.2 Z " fill="#000000"/><text fill="#000000" font-family="sans-serif" font-size="14" lengthAdjust="spacing" textLength="29.5996" x="479.2463" y="1033.0467">Cart</text><line style="stroke:#181818;stroke-width:0.5;" x1="400.26" x2="555.3323" y1="1044.2" y2="1044.2"/><ellipse cx="410.26" cy="1057.8484" fill="#000000" rx="3" ry="3" style="stroke:#000000;stroke-width:1.0;"/><text fill="#000000" font-family="sans-serif" font-size="14" lengthAdjust="spacing" textLength="131.0723" x="419.26" y="1061.1951">cart_id: UUID &#171;PK&#187;</text><line style="stroke:#181818;stroke-width:1.0;" x1="400.26" x2="555.3323" y1="1068.4969" y2="1068.4969"/><text fill="#000000" font-family="sans-serif" font-size="14" lengthAdjust="spacing" textLength="141.6133" x="405.26" y="1085.492">client_id: UUID &#171;FK&#187;</text><text fill="#000000" font-family="sans-serif" font-size="14" lengthAdjust="spacing" textLength="140.1094" x="405.26" y="1101.7889">total_price: Decimal</text></g><!--class Order--><g id="elem_Order"><rect codeLine="71" fill="#F1F1F1" height="194.6719" id="Order" rx="2.5" ry="2.5" style="stroke:#181818;stroke-width:0.5;" width="186.3779" x="384.61" y="1234.98"/><ellipse cx="453.5333" cy="1250.98" fill="#ADD1B2" rx="11" ry="11" style="stroke:#181818;stroke-width:1.0;"/><path d="M457.6427,1256.98 L449.924,1256.98 L449.924,1244.5894 L457.6427,1244.5894 L457.6427,1246.7456 L452.3771,1246.7456 L452.3771,1249.4175 L457.1427,1249.4175 L457.1427,1251.5738 L452.3771,1251.5738 L452.3771,1254.8238 L457.6427,1254.8238 L457.6427,1256.98 Z " fill="#000000"/><text fill="#000000" font-family="sans-serif" font-size="14" lengthAdjust="spacing" textLength="40.0313" x="474.0333" y="1255.8267">Order</text><line style="stroke:#181818;stroke-width:0.5;" x1="385.61" x2="569.9879" y1="1266.98" y2="1266.98"/><ellipse cx="395.61" cy="1280.6284" fill="#000000" rx="3" ry="3" style="stroke:#000000;stroke-width:1.0;"/><text fill="#000000" font-family="sans-serif" font-size="14" lengthAdjust="spacing" textLength="141.1279" x="404.61" y="1283.9751">order_id: UUID &#171;PK&#187;</text><line style="stroke:#181818;stroke-width:1.0;" x1="385.61" x2="569.9879" y1="1291.2769" y2="1291.2769"/><text fill="#000000" font-family="sans-serif" font-size="14" lengthAdjust="spacing" textLength="141.6133" x="390.61" y="1308.272">client_id: UUID &#171;FK&#187;</text><text fill="#000000" font-family="sans-serif" font-size="14" lengthAdjust="spacing" textLength="130.6826" x="390.61" y="1324.5689">cart_id: UUID &#171;FK&#187;</text><text fill="#000000" font-family="sans-serif" font-size="14" lengthAdjust="spacing" textLength="93.9668" x="390.61" y="1340.8657">status: String</text><text fill="#000000" font-family="sans-serif" font-size="14" lengthAdjust="spacing" textLength="153.4668" x="390.61" y="1357.1626">order_date: DateTime</text><text fill="#000000" font-family="sans-serif" font-size="14" lengthAdjust="spacing" textLength="140.1094" x="390.61" y="1373.4595">total_price: Decimal</text><text fill="#000000" font-family="sans-serif" font-size="14" lengthAdjust="spacing" textLength="168.2324" x="390.61" y="1389.7564">delivery_method: String</text><text fill="#000000" font-family="sans-serif" font-size="14" lengthAdjust="spacing" textLength="172.1699" x="390.61" y="1406.0532">delivery_time: DateTime</text><text fill="#000000" font-family="sans-serif" font-size="14" lengthAdjust="spacing" textLength="174.3779" x="390.61" y="1422.3501">payment_method: String</text></g><!--class Transaction--><g id="elem_Transaction"><rect codeLine="84" fill="#F1F1F1" height="162.0781" id="Transaction" rx="2.5" ry="2.5" style="stroke:#181818;stroke-width:0.5;" width="208.6357" x="373.48" y="1506.65"/><ellipse cx="432.4741" cy="1522.65" fill="#ADD1B2" rx="11" ry="11" style="stroke:#181818;stroke-width:1.0;"/><path d="M436.5835,1528.65 L428.8648,1528.65 L428.8648,1516.2594 L436.5835,1516.2594 L436.5835,1518.4156 L431.3179,1518.4156 L431.3179,1521.0875 L436.0835,1521.0875 L436.0835,1523.2438 L431.3179,1523.2438 L431.3179,1526.4938 L436.5835,1526.4938 L436.5835,1528.65 Z " fill="#000000"/><text fill="#000000" font-family="sans-serif" font-size="14" lengthAdjust="spacing" textLength="82.1475" x="452.9741" y="1527.4967">Transaction</text><line style="stroke:#181818;stroke-width:0.5;" x1="374.48" x2="581.1157" y1="1538.65" y2="1538.65"/><ellipse cx="384.48" cy="1552.2984" fill="#000000" rx="3" ry="3" style="stroke:#000000;stroke-width:1.0;"/><text fill="#000000" font-family="sans-serif" font-size="14" lengthAdjust="spacing" textLength="182.6357" x="393.48" y="1555.6451">transaction_id: UUID &#171;PK&#187;</text><line style="stroke:#181818;stroke-width:1.0;" x1="374.48" x2="581.1157" y1="1562.9469" y2="1562.9469"/><text fill="#000000" font-family="sans-serif" font-size="14" lengthAdjust="spacing" textLength="140.7383" x="379.48" y="1579.942">order_id: UUID &#171;FK&#187;</text><text fill="#000000" font-family="sans-serif" font-size="14" lengthAdjust="spacing" textLength="85.3945" x="379.48" y="1596.2389">bank: String</text><text fill="#000000" font-family="sans-serif" font-size="14" lengthAdjust="spacing" textLength="93.9668" x="379.48" y="1612.5357">status: String</text><text fill="#000000" font-family="sans-serif" font-size="14" lengthAdjust="spacing" textLength="194.9746" x="379.48" y="1628.8326">transaction_date: DateTime</text><text fill="#000000" font-family="sans-serif" font-size="14" lengthAdjust="spacing" textLength="120.2715" x="379.48" y="1645.1295">amount: Decimal</text><text fill="#000000" font-family="sans-serif" font-size="14" lengthAdjust="spacing" textLength="99.8936" x="379.48" y="1661.4264">receipt: String</text></g><!--class Robot--><g id="elem_Robot"><rect codeLine="95" fill="#F1F1F1" height="113.1875" id="Robot" rx="2.5" ry="2.5" style="stroke:#181818;stroke-width:0.5;" width="169.0146" x="791.29" y="740.53"/><ellipse cx="850.9301" cy="756.53" fill="#ADD1B2" rx="11" ry="11" style="stroke:#181818;stroke-width:1.0;"/><path d="M855.0395,762.53 L847.3208,762.53 L847.3208,750.1394 L855.0395,750.1394 L855.0395,752.2956 L849.7739,752.2956 L849.7739,754.9675 L854.5395,754.9675 L854.5395,757.1238 L849.7739,757.1238 L849.7739,760.3738 L855.0395,760.3738 L855.0395,762.53 Z " fill="#000000"/><text fill="#000000" font-family="sans-serif" font-size="14" lengthAdjust="spacing" textLength="41.2344" x="871.4301" y="761.3767">Robot</text><line style="stroke:#181818;stroke-width:0.5;" x1="792.29" x2="959.3046" y1="772.53" y2="772.53"/><ellipse cx="802.29" cy="786.1784" fill="#000000" rx="3" ry="3" style="stroke:#000000;stroke-width:1.0;"/><text fill="#000000" font-family="sans-serif" font-size="14" lengthAdjust="spacing" textLength="140.8135" x="811.29" y="789.5251">robot_id: UUID &#171;PK&#187;</text><line style="stroke:#181818;stroke-width:1.0;" x1="792.29" x2="959.3046" y1="796.8269" y2="796.8269"/><text fill="#000000" font-family="sans-serif" font-size="14" lengthAdjust="spacing" textLength="93.9668" x="797.29" y="813.822">status: String</text><text fill="#000000" font-family="sans-serif" font-size="14" lengthAdjust="spacing" textLength="106.4971" x="797.29" y="830.1189">location: String</text><text fill="#000000" font-family="sans-serif" font-size="14" lengthAdjust="spacing" textLength="157.0146" x="797.29" y="846.4157">technical_state: String</text></g><!--class Task--><g id="elem_Task"><rect codeLine="103" fill="#F1F1F1" height="145.7813" id="Task" rx="2.5" ry="2.5" style="stroke:#181818;stroke-width:0.5;" width="160.5586" x="795.52" y="987.75"/><ellipse cx="855.2832" cy="1003.75" fill="#ADD1B2" rx="11" ry="11" style="stroke:#181818;stroke-width:1.0;"/><path d="M859.3926,1009.75 L851.6738,1009.75 L851.6738,997.3594 L859.3926,997.3594 L859.3926,999.5156 L854.1269,999.5156 L854.1269,1002.1875 L858.8926,1002.1875 L858.8926,1004.3438 L854.1269,1004.3438 L854.1269,1007.5938 L859.3926,1007.5938 L859.3926,1009.75 Z " fill="#000000"/><text fill="#000000" font-family="sans-serif" font-size="14" lengthAdjust="spacing" textLength="32.5322" x="875.7832" y="1008.5967">Task</text><line style="stroke:#181818;stroke-width:0.5;" x1="796.52" x2="955.0786" y1="1019.75" y2="1019.75"/><ellipse cx="806.52" cy="1033.3984" fill="#000000" rx="3" ry="3" style="stroke:#000000;stroke-width:1.0;"/><text fill="#000000" font-family="sans-serif" font-size="14" lengthAdjust="spacing" textLength="133.0205" x="815.52" y="1036.7451">task_id: UUID &#171;PK&#187;</text><line style="stroke:#181818;stroke-width:1.0;" x1="796.52" x2="955.0786" y1="1044.0469" y2="1044.0469"/><text fill="#000000" font-family="sans-serif" font-size="14" lengthAdjust="spacing" textLength="140.4238" x="801.52" y="1061.042">robot_id: UUID &#171;FK&#187;</text><text fill="#000000" font-family="sans-serif" font-size="14" lengthAdjust="spacing" textLength="128.7891" x="801.52" y="1077.3389">description: String</text><text fill="#000000" font-family="sans-serif" font-size="14" lengthAdjust="spacing" textLength="93.9668" x="801.52" y="1093.6357">status: String</text><text fill="#000000" font-family="sans-serif" font-size="14" lengthAdjust="spacing" textLength="148.5586" x="801.52" y="1109.9326">start_time: DateTime</text><text fill="#000000" font-family="sans-serif" font-size="14" lengthAdjust="spacing" textLength="142.3242" x="801.52" y="1126.2295">end_time: DateTime</text></g><!--class Recipe--><g id="elem_Recipe"><rect codeLine="113" fill="#F1F1F1" height="145.7813" id="Recipe" rx="2.5" ry="2.5" style="stroke:#181818;stroke-width:0.5;" width="173.0068" x="440.3" y="7"/><ellipse cx="498.8396" cy="23" fill="#ADD1B2" rx="11" ry="11" style="stroke:#181818;stroke-width:1.0;"/><path d="M502.9489,29 L495.2302,29 L495.2302,16.6094 L502.9489,16.6094 L502.9489,18.7656 L497.6833,18.7656 L497.6833,21.4375 L502.4489,21.4375 L502.4489,23.5938 L497.6833,23.5938 L497.6833,26.8438 L502.9489,26.8438 L502.9489,29 Z " fill="#000000"/><text fill="#000000" font-family="sans-serif" font-size="14" lengthAdjust="spacing" textLength="47.4277" x="519.3396" y="27.8467">Recipe</text><line style="stroke:#181818;stroke-width:0.5;" x1="441.3" x2="612.3068" y1="39" y2="39"/><ellipse cx="451.3" cy="52.6484" fill="#000000" rx="3" ry="3" style="stroke:#000000;stroke-width:1.0;"/><text fill="#000000" font-family="sans-serif" font-size="14" lengthAdjust="spacing" textLength="147.0068" x="460.3" y="55.9951">recipe_id: UUID &#171;PK&#187;</text><line style="stroke:#181818;stroke-width:1.0;" x1="441.3" x2="612.3068" y1="63.2969" y2="63.2969"/><text fill="#000000" font-family="sans-serif" font-size="14" lengthAdjust="spacing" textLength="132.1045" x="446.3" y="80.292">dish_id: UUID &#171;FK&#187;</text><text fill="#000000" font-family="sans-serif" font-size="14" lengthAdjust="spacing" textLength="90.6514" x="446.3" y="96.5889">name: String</text><text fill="#000000" font-family="sans-serif" font-size="14" lengthAdjust="spacing" textLength="128.7891" x="446.3" y="112.8857">description: String</text><text fill="#000000" font-family="sans-serif" font-size="14" lengthAdjust="spacing" textLength="88.5254" x="446.3" y="129.1826">steps: String</text><text fill="#000000" font-family="sans-serif" font-size="14" lengthAdjust="spacing" textLength="152.7422" x="446.3" y="145.4795">cooking_time: Integer</text></g><!--link Client to Cart--><g id="link_Client_Cart"><path codeLine="123" d="M358.4075,860.759 C386.5975,907.719 413.0965,951.8567 439.8365,996.4067 " fill="none" id="Client-Cart" style="stroke:#181818;stroke-width:1.0;"/><line style="stroke:#181818;stroke-width:1.0;" x1="352.9192" x2="359.7783" y1="859.3883" y2="855.2708"/><line style="stroke:#181818;stroke-width:1.0;" x1="354.4633" x2="361.3223" y1="861.9604" y2="857.8429"/><line style="stroke:#181818;stroke-width:1.0;" x1="358.4075" x2="354.29" y1="860.759" y2="853.9"/><line style="stroke:#181818;stroke-width:1.0;" x1="444.9829" x2="454.2444" y1="1004.9807" y2="1008.7522"/><line style="stroke:#181818;stroke-width:1.0;" x1="444.9829" x2="443.9556" y1="1004.9807" y2="1014.9278"/><line style="stroke:#181818;stroke-width:1.0;" x1="444.9829" x2="449.1" y1="1004.9807" y2="1011.84"/><ellipse cx="441.8951" cy="999.8363" fill="none" rx="4" ry="4" style="stroke:#181818;stroke-width:1.0;"/><text fill="#000000" font-family="sans-serif" font-size="13" lengthAdjust="spacing" textLength="22.9785" x="400.8" y="929.3769">has</text></g><!--link Client to Order--><g id="link_Client_Order"><path codeLine="124" d="M312.4351,861.8674 C304.9051,934.5074 300.16,1056.23 338.8,1157.98 C349.35,1185.75 355.153,1198.2168 373.463,1222.0468 " fill="none" id="Client-Order" style="stroke:#181818;stroke-width:1.0;"/><line style="stroke:#181818;stroke-width:1.0;" x1="308.8689" x2="316.8262" y1="857.4762" y2="858.3011"/><line style="stroke:#181818;stroke-width:1.0;" x1="308.5596" x2="316.5169" y1="860.4603" y2="861.2851"/><line style="stroke:#181818;stroke-width:1.0;" x1="312.4351" x2="313.26" y1="861.8674" y2="853.91"/><line style="stroke:#181818;stroke-width:1.0;" x1="379.5558" x2="389.1877" y1="1229.9763" y2="1232.6643"/><line style="stroke:#181818;stroke-width:1.0;" x1="379.5558" x2="379.6723" y1="1229.9763" y2="1239.9757"/><line style="stroke:#181818;stroke-width:1.0;" x1="379.5558" x2="384.43" y1="1229.9763" y2="1236.32"/><ellipse cx="375.9001" cy="1225.2186" fill="none" rx="4" ry="4" style="stroke:#181818;stroke-width:1.0;"/><text fill="#000000" font-family="sans-serif" font-size="13" lengthAdjust="spacing" textLength="41.7485" x="339.8" y="1065.2069">places</text></g><!--link Cart to Order--><g id="link_Cart_Order"><path codeLine="125" d="M477.8,1117.55 C477.8,1152.21 477.8,1174.23 477.8,1216.72 " fill="none" id="Cart-Order" style="stroke:#181818;stroke-width:1.0;"/><line style="stroke:#181818;stroke-width:1.0;" x1="473.8" x2="481.8" y1="1113.55" y2="1113.55"/><line style="stroke:#181818;stroke-width:1.0;" x1="473.8" x2="481.8" y1="1116.55" y2="1116.55"/><line style="stroke:#181818;stroke-width:1.0;" x1="477.8" x2="477.8" y1="1117.55" y2="1109.55"/><line style="stroke:#181818;stroke-width:1.0;" x1="477.8" x2="483.8" y1="1226.72" y2="1234.72"/><line style="stroke:#181818;stroke-width:1.0;" x1="477.8" x2="471.8" y1="1226.72" y2="1234.72"/><line style="stroke:#181818;stroke-width:1.0;" x1="477.8" x2="477.8" y1="1226.72" y2="1234.72"/><ellipse cx="477.8" cy="1220.72" fill="none" rx="4" ry="4" style="stroke:#181818;stroke-width:1.0;"/><text fill="#000000" font-family="sans-serif" font-size="13" lengthAdjust="spacing" textLength="77.9683" x="478.8" y="1201.0469">is related to</text></g><!--link Dish to Cart--><g id="link_Dish_Cart"><path codeLine="126" d="M523.2976,894.3733 C511.7576,936.3133 505.3294,959.6661 495.7094,994.5961 " fill="none" id="Dish-Cart" style="stroke:#181818;stroke-width:1.0;"/><line style="stroke:#181818;stroke-width:1.0;" x1="520.5021" x2="528.2155" y1="889.4555" y2="891.5779"/><line style="stroke:#181818;stroke-width:1.0;" x1="519.7063" x2="527.4196" y1="892.348" y2="894.4704"/><line style="stroke:#181818;stroke-width:1.0;" x1="523.2976" x2="525.42" y1="894.3733" y2="886.66"/><line style="stroke:#181818;stroke-width:1.0;" x1="493.0542" x2="496.7146" y1="1004.2372" y2="1013.5431"/><line style="stroke:#181818;stroke-width:1.0;" x1="493.0542" x2="485.1454" y1="1004.2372" y2="1010.3569"/><line style="stroke:#181818;stroke-width:1.0;" x1="493.0542" x2="490.93" y1="1004.2372" y2="1011.95"/><ellipse cx="494.6473" cy="998.4525" fill="none" rx="4" ry="4" style="stroke:#181818;stroke-width:1.0;"/><text fill="#000000" font-family="sans-serif" font-size="13" lengthAdjust="spacing" textLength="55.0278" x="517.8" y="929.3769">contains</text></g><!--link ComboBurger to Dish--><g id="link_ComboBurger_Dish"><path codeLine="127" d="M616.5287,638.636 C606.4987,662.306 605.0782,665.6346 594.2982,691.0946 " fill="none" id="ComboBurger-Dish" style="stroke:#181818;stroke-width:1.0;"/><line style="stroke:#181818;stroke-width:1.0;" x1="614.4064" x2="621.7723" y1="633.3923" y2="636.5136"/><line style="stroke:#181818;stroke-width:1.0;" x1="613.2359" x2="620.6019" y1="636.1546" y2="639.2759"/><line style="stroke:#181818;stroke-width:1.0;" x1="616.5287" x2="619.65" y1="638.636" y2="631.27"/><polygon fill="none" points="587.28,707.67,599.8233,693.434,588.773,688.7552,587.28,707.67" style="stroke:#181818;stroke-width:1.0;"/><text fill="#000000" font-family="sans-serif" font-size="13" lengthAdjust="spacing" textLength="22.4834" x="607.8" y="673.9969">is a</text></g><!--link Dish to Menu--><g id="link_Dish_Menu"><path codeLine="128" d="M595.9315,893.8676 C614.5615,932.5476 624.5773,953.3139 640.9773,987.3539 " fill="none" id="Dish-Menu" style="stroke:#181818;stroke-width:1.0;"/><line style="stroke:#181818;stroke-width:1.0;" x1="590.592" x2="597.7995" y1="891.9995" y2="888.528"/><line style="stroke:#181818;stroke-width:1.0;" x1="591.8938" x2="599.1013" y1="894.7023" y2="891.2309"/><line style="stroke:#181818;stroke-width:1.0;" x1="595.9315" x2="592.46" y1="893.8676" y2="886.66"/><line style="stroke:#181818;stroke-width:1.0;" x1="645.3177" x2="654.1954" y1="996.3628" y2="1000.9658"/><line style="stroke:#181818;stroke-width:1.0;" x1="645.3177" x2="643.3846" y1="996.3628" y2="1006.1742"/><line style="stroke:#181818;stroke-width:1.0;" x1="645.3177" x2="648.79" y1="996.3628" y2="1003.57"/><ellipse cx="642.7135" cy="990.9575" fill="none" rx="4" ry="4" style="stroke:#181818;stroke-width:1.0;"/><text fill="#000000" font-family="sans-serif" font-size="13" lengthAdjust="spacing" textLength="57.8398" x="613.8" y="929.3769">is part of</text></g><!--link Ingredient to ComboBurger--><g id="link_Ingredient_ComboBurger"><path codeLine="129" d="M649.5922,432.8782 C649.0522,458.6182 649.0154,459.7739 648.5254,483.2639 " fill="none" id="Ingredient-ComboBurger" style="stroke:#181818;stroke-width:1.0;"/><line style="stroke:#181818;stroke-width:1.0;" x1="645.677" x2="653.6752" y1="428.7952" y2="428.963"/><line style="stroke:#181818;stroke-width:1.0;" x1="645.6141" x2="653.6123" y1="431.7946" y2="431.9624"/><line style="stroke:#181818;stroke-width:1.0;" x1="649.5922" x2="649.76" y1="432.8782" y2="424.88"/><line style="stroke:#181818;stroke-width:1.0;" x1="648.3168" x2="654.1487" y1="493.2617" y2="501.3851"/><line style="stroke:#181818;stroke-width:1.0;" x1="648.3168" x2="642.1513" y1="493.2617" y2="501.1349"/><line style="stroke:#181818;stroke-width:1.0;" x1="648.3168" x2="648.15" y1="493.2617" y2="501.26"/><ellipse cx="648.442" cy="487.263" fill="none" rx="4" ry="4" style="stroke:#181818;stroke-width:1.0;"/><text fill="#000000" font-family="sans-serif" font-size="13" lengthAdjust="spacing" textLength="47.2456" x="649.8" y="467.5169">used in</text></g><!--link Dish to Dish--><g id="link_Dish_Dish"><path codeLine="130" d="M637.3225,774.1724 C657.1825,775.8224 664.05,783.03 664.05,797.12 C664.05,811.21 667.1482,817.5897 647.2882,819.2397 " fill="none" id="Dish-Dish" style="stroke:#181818;stroke-width:1.0;"/><line style="stroke:#181818;stroke-width:1.0;" x1="633.0051" x2="633.6675" y1="777.8275" y2="769.8549"/><line style="stroke:#181818;stroke-width:1.0;" x1="635.9948" x2="636.6572" y1="778.0758" y2="770.1033"/><line style="stroke:#181818;stroke-width:1.0;" x1="637.3225" x2="629.35" y1="774.1724" y2="773.51"/><line style="stroke:#181818;stroke-width:1.0;" x1="637.3225" x2="629.8468" y1="820.0676" y2="826.7094"/><line style="stroke:#181818;stroke-width:1.0;" x1="637.3225" x2="628.8532" y1="820.0676" y2="814.7506"/><line style="stroke:#181818;stroke-width:1.0;" x1="637.3225" x2="629.35" y1="820.0676" y2="820.73"/><ellipse cx="643.3019" cy="819.5709" fill="none" rx="4" ry="4" style="stroke:#181818;stroke-width:1.0;"/><text fill="#000000" font-family="sans-serif" font-size="13" lengthAdjust="spacing" textLength="92.0474" x="670.05" y="801.6869">related dishes</text></g><!--link Order to Transaction--><g id="link_Order_Transaction"><path codeLine="131" d="M477.8,1437.83 C477.8,1463.14 477.8,1464.16 477.8,1488.52 " fill="none" id="Order-Transaction" style="stroke:#181818;stroke-width:1.0;"/><line style="stroke:#181818;stroke-width:1.0;" x1="473.8" x2="481.8" y1="1433.83" y2="1433.83"/><line style="stroke:#181818;stroke-width:1.0;" x1="473.8" x2="481.8" y1="1436.83" y2="1436.83"/><line style="stroke:#181818;stroke-width:1.0;" x1="477.8" x2="477.8" y1="1437.83" y2="1429.83"/><line style="stroke:#181818;stroke-width:1.0;" x1="477.8" x2="483.8" y1="1498.52" y2="1506.52"/><line style="stroke:#181818;stroke-width:1.0;" x1="477.8" x2="471.8" y1="1498.52" y2="1506.52"/><line style="stroke:#181818;stroke-width:1.0;" x1="477.8" x2="477.8" y1="1498.52" y2="1506.52"/><ellipse cx="477.8" cy="1492.52" fill="none" rx="4" ry="4" style="stroke:#181818;stroke-width:1.0;"/><text fill="#000000" font-family="sans-serif" font-size="13" lengthAdjust="spacing" textLength="53.5742" x="478.8" y="1472.7169">involves</text></g><!--link Client to LoyaltyProgram--><g id="link_Client_LoyaltyProgram"><path codeLine="132" d="M268.5108,860.279 C252.6208,879.679 240.11,895.58 224.8,916.31 C213.86,931.12 212.7841,932.2275 202.0441,947.9475 " fill="none" id="Client-LoyaltyProgram" style="stroke:#181818;stroke-width:1.0;"/><line style="stroke:#181818;stroke-width:1.0;" x1="267.9509" x2="274.1399" y1="854.6499" y2="859.7191"/><line style="stroke:#181818;stroke-width:1.0;" x1="266.05" x2="272.2389" y1="856.9707" y2="862.0399"/><line style="stroke:#181818;stroke-width:1.0;" x1="268.5108" x2="273.58" y1="860.279" y2="854.09"/><line style="stroke:#181818;stroke-width:1.0;" x1="196.403" x2="196.8442" y1="956.2045" y2="966.1947"/><line style="stroke:#181818;stroke-width:1.0;" x1="196.403" x2="186.9358" y1="956.2045" y2="959.4253"/><line style="stroke:#181818;stroke-width:1.0;" x1="196.403" x2="191.89" y1="956.2045" y2="962.81"/><ellipse cx="199.7877" cy="951.2503" fill="none" rx="4" ry="4" style="stroke:#181818;stroke-width:1.0;"/><text fill="#000000" font-family="sans-serif" font-size="13" lengthAdjust="spacing" textLength="68.9927" x="225.8" y="929.3769">enrolled in</text></g><!--link Robot to Task--><g id="link_Robot_Task"><path codeLine="133" d="M875.8,861.9 C875.8,900.91 875.8,927.35 875.8,969.53 " fill="none" id="Robot-Task" style="stroke:#181818;stroke-width:1.0;"/><line style="stroke:#181818;stroke-width:1.0;" x1="871.8" x2="879.8" y1="857.9" y2="857.9"/><line style="stroke:#181818;stroke-width:1.0;" x1="871.8" x2="879.8" y1="860.9" y2="860.9"/><line style="stroke:#181818;stroke-width:1.0;" x1="875.8" x2="875.8" y1="861.9" y2="853.9"/><line style="stroke:#181818;stroke-width:1.0;" x1="875.8" x2="881.8" y1="979.53" y2="987.53"/><line style="stroke:#181818;stroke-width:1.0;" x1="875.8" x2="869.8" y1="979.53" y2="987.53"/><line style="stroke:#181818;stroke-width:1.0;" x1="875.8" x2="875.8" y1="979.53" y2="987.53"/><ellipse cx="875.8" cy="973.53" fill="none" rx="4" ry="4" style="stroke:#181818;stroke-width:1.0;"/><text fill="#000000" font-family="sans-serif" font-size="13" lengthAdjust="spacing" textLength="58.9063" x="876.8" y="929.3769">performs</text></g><!--link Task to Order--><g id="link_Task_Order"><path codeLine="134" d="M800.6305,1139.2414 C791.2805,1147.7414 787.48,1150.61 777.8,1157.98 C712.81,1207.42 648.3342,1244.8163 587.1242,1276.8863 " fill="none" id="Task-Order" style="stroke:#181818;stroke-width:1.0;"/><line style="stroke:#181818;stroke-width:1.0;" x1="800.8995" x2="806.2809" y1="1133.5909" y2="1139.5105"/><line style="stroke:#181818;stroke-width:1.0;" x1="798.6797" x2="804.0611" y1="1135.6089" y2="1141.5285"/><line style="stroke:#181818;stroke-width:1.0;" x1="800.6305" x2="806.55" y1="1139.2414" y2="1133.86"/><line style="stroke:#181818;stroke-width:1.0;" x1="578.2663" x2="573.9646" y1="1281.5273" y2="1290.5547"/><line style="stroke:#181818;stroke-width:1.0;" x1="578.2663" x2="568.3954" y1="1281.5273" y2="1279.9253"/><line style="stroke:#181818;stroke-width:1.0;" x1="578.2663" x2="571.18" y1="1281.5273" y2="1285.24"/><ellipse cx="583.581" cy="1278.7427" fill="none" rx="4" ry="4" style="stroke:#181818;stroke-width:1.0;"/><text fill="#000000" font-family="sans-serif" font-size="13" lengthAdjust="spacing" textLength="63.4512" x="731.8" y="1201.0469">related to</text></g><!--link Recipe to Dish--><g id="link_Recipe_Dish"><path codeLine="135" d="M527.3638,160.9997 C528.3338,266.1397 531.03,459.66 538.8,630.93 C539.93,655.91 540.3712,665.03 542.0312,689.9 " fill="none" id="Recipe-Dish" style="stroke:#181818;stroke-width:1.0;"/><line style="stroke:#181818;stroke-width:1.0;" x1="523.3271" x2="531.3267" y1="157.0367" y2="156.9629"/><line style="stroke:#181818;stroke-width:1.0;" x1="523.3547" x2="531.3544" y1="160.0366" y2="159.9628"/><line style="stroke:#181818;stroke-width:1.0;" x1="527.3638" x2="527.29" y1="160.9997" y2="153"/><line style="stroke:#181818;stroke-width:1.0;" x1="542.6972" x2="549.2167" y1="699.8778" y2="707.4604"/><line style="stroke:#181818;stroke-width:1.0;" x1="542.6972" x2="537.2433" y1="699.8778" y2="708.2596"/><line style="stroke:#181818;stroke-width:1.0;" x1="542.6972" x2="543.23" y1="699.8778" y2="707.86"/><ellipse cx="542.2976" cy="693.8911" fill="none" rx="4" ry="4" style="stroke:#181818;stroke-width:1.0;"/><text fill="#000000" font-family="sans-serif" font-size="13" lengthAdjust="spacing" textLength="47.4487" x="534.8" y="467.5169">defines</text></g><!--link Recipe to Ingredient--><g id="link_Recipe_Ingredient"><path codeLine="136" d="M567.2637,160.2671 C579.4337,184.1371 581.3667,187.9326 594.3167,213.3426 " fill="none" id="Recipe-Ingredient" style="stroke:#181818;stroke-width:1.0;"/><line style="stroke:#181818;stroke-width:1.0;" x1="561.8833" x2="569.0104" y1="158.5204" y2="154.8867"/><line style="stroke:#181818;stroke-width:1.0;" x1="563.246" x2="570.3731" y1="161.1931" y2="157.5594"/><line style="stroke:#181818;stroke-width:1.0;" x1="567.2637" x2="563.63" y1="160.2671" y2="153.14"/><line style="stroke:#181818;stroke-width:1.0;" x1="598.8574" x2="607.8358" y1="222.2523" y2="226.6556"/><line style="stroke:#181818;stroke-width:1.0;" x1="598.8574" x2="597.1442" y1="222.2523" y2="232.1044"/><line style="stroke:#181818;stroke-width:1.0;" x1="598.8574" x2="602.49" y1="222.2523" y2="229.38"/><ellipse cx="596.133" cy="216.9065" fill="none" rx="4" ry="4" style="stroke:#181818;stroke-width:1.0;"/><text fill="#000000" font-family="sans-serif" font-size="13" lengthAdjust="spacing" textLength="29.7832" x="585.8" y="195.8469">uses</text></g><!--SRC=[bLLDRzmW4BtxLrXxhBH_O1NbaAmgHMtKg4tErjZCxf80um9UnKhwtmlu0ynQMkK4cE7DUuyPZCfosvVtWgEovKVnhGcpYhDT-VBoi2zlRfv-tDuMsstHdaZXhlnZDLV7Gb0FmlQLH5cZtfLtH0915GQDuQJck7z5WKEEdyE99qr73TBdcZ3QuTDQqaiwt_rEJQepLKjSMRCh7vJ58-hYq0bHAP2HvP8pIk1YNjLSsnE3VbVkmUAKIU0POyohou2i0Zi6HJMFg3glGRfnZVY2nXa4PrNdJeeHoFOjhdYqv-RaKPaRhw8kC1YQHlFMfjwtcZSkOeyDbo2y6PRcJM2LnNSxhtCXmUV8x44TDRAfIlYykigoVktcUGE2DCVaofQSCi9mTlS5jS1ONXBUgxyT14uHHO9YO4dtCJ0oloTPqrsdNM0eSB-yodhDpaIqu9BRH8NdNN7LQ0IJ24X8W1xQourVg7DB5aILsH9HVsasY28_-G9kJYDyD1PiPsQv0wRp5OUQVUOIrman5FoCsZy6zaGiCN7yRhbCGLhefMULXKTTpngKWSQxxzNPk5pJU25-U290lStGcRGKC1C8aboVHcqQ6tHri4BoDzKKxbJxoHgnBAkW1XO5PR4vAUwQelAHQ-_1CvYtu80Rrp9Sf0xIruetu-AMhWAoUq75ya-9N6T8Yq5lcAtHoP-jmEPgNncBRMJM4BsvSIGoTPZZCVwZFZ-tM_e83RKhDoSmcsmdD8NRQWKqw7TzwsLxt9GQXHF9IakR8ZoxI-26b0Mk_Fda_V0ndxVXcHvGO7dO_nM6ZTPdfSEcI1xEAKC4TB6TSIIuMkAC2IQEtbSlPUZtCIPf4fzIdKcSySADvL_N1QBI9CIOSwZX2T0LcVSDzO6qT4YX-ZBdKjl6abXoPdXm_qoJxqOR1ircyny0]--></g></svg>