<svg xmlns="http://www.w3.org/2000/svg" xmlns:xlink="http://www.w3.org/1999/xlink" contentStyleType="text/css" height="1290px" preserveAspectRatio="none" style="width:854px;height:1290px;background:#FFFFFF;" version="1.1" viewBox="0 0 854 1290" width="854px" zoomAndPan="magnify"><defs/><g><!--class ??????--><g id="elem_&#1050;&#1083;&#1080;&#1077;&#1085;&#1090;"><rect codeLine="1" fill="#F1F1F1" height="96.8906" id="&#1050;&#1083;&#1080;&#1077;&#1085;&#1090;" rx="2.5" ry="2.5" style="stroke:#181818;stroke-width:0.5;" width="241.5986" x="225.88" y="469.46"/><ellipse cx="315.4752" cy="485.46" fill="#ADD1B2" rx="11" ry="11" style="stroke:#181818;stroke-width:1.0;"/><path d="M319.5846,491.46 L311.8658,491.46 L311.8658,479.0694 L319.5846,479.0694 L319.5846,481.2256 L314.319,481.2256 L314.319,483.8975 L319.0846,483.8975 L319.0846,486.0538 L314.319,486.0538 L314.319,489.3038 L319.5846,489.3038 L319.5846,491.46 Z " fill="#000000"/><text fill="#000000" font-family="sans-serif" font-size="14" lengthAdjust="spacing" textLength="53.9082" x="335.9752" y="490.3067">&#1050;&#1083;&#1080;&#1077;&#1085;&#1090;</text><line style="stroke:#181818;stroke-width:0.5;" x1="226.88" x2="466.4786" y1="501.46" y2="501.46"/><text fill="#000000" font-family="sans-serif" font-size="14" lengthAdjust="spacing" textLength="64.415" x="231.88" y="518.4551">&#1058;&#1077;&#1083;&#1077;&#1092;&#1086;&#1085;</text><text fill="#000000" font-family="sans-serif" font-size="14" lengthAdjust="spacing" textLength="229.5986" x="231.88" y="534.752">&#1059;&#1095;&#1072;&#1089;&#1090;&#1085;&#1080;&#1082; &#1073;&#1086;&#1085;&#1091;&#1089;&#1085;&#1086;&#1081; &#1087;&#1088;&#1086;&#1075;&#1088;&#1072;&#1084;&#1084;&#1099;</text><text fill="#000000" font-family="sans-serif" font-size="14" lengthAdjust="spacing" textLength="51.3037" x="231.88" y="551.0489">&#1057;&#1077;&#1089;&#1089;&#1080;&#1103;</text><line style="stroke:#181818;stroke-width:0.5;" x1="226.88" x2="466.4786" y1="558.3506" y2="558.3506"/></g><!--class ???????????????????--><g id="elem_&#1055;&#1088;&#1086;&#1075;&#1088;&#1072;&#1084;&#1084;&#1072;&#1051;&#1086;&#1103;&#1083;&#1100;&#1085;&#1086;&#1089;&#1090;&#1080;"><rect codeLine="7" fill="#F1F1F1" height="162.0781" id="&#1055;&#1088;&#1086;&#1075;&#1088;&#1072;&#1084;&#1084;&#1072;&#1051;&#1086;&#1103;&#1083;&#1100;&#1085;&#1086;&#1089;&#1090;&#1080;" rx="2.5" ry="2.5" style="stroke:#181818;stroke-width:0.5;" width="201.8867" x="245.73" y="692.24"/><ellipse cx="260.73" cy="708.24" fill="#ADD1B2" rx="11" ry="11" style="stroke:#181818;stroke-width:1.0;"/><path d="M264.8394,714.24 L257.1206,714.24 L257.1206,701.8494 L264.8394,701.8494 L264.8394,704.0056 L259.5738,704.0056 L259.5738,706.6775 L264.3394,706.6775 L264.3394,708.8338 L259.5738,708.8338 L259.5738,712.0838 L264.8394,712.0838 L264.8394,714.24 Z " fill="#000000"/><text fill="#000000" font-family="sans-serif" font-size="14" lengthAdjust="spacing" textLength="169.8867" x="274.73" y="713.0867">&#1055;&#1088;&#1086;&#1075;&#1088;&#1072;&#1084;&#1084;&#1072;&#1051;&#1086;&#1103;&#1083;&#1100;&#1085;&#1086;&#1089;&#1090;&#1080;</text><line style="stroke:#181818;stroke-width:0.5;" x1="246.73" x2="446.6167" y1="724.24" y2="724.24"/><text fill="#000000" font-family="sans-serif" font-size="14" lengthAdjust="spacing" textLength="149.707" x="251.73" y="741.2351">&#1050;&#1086;&#1083;&#1080;&#1095;&#1077;&#1089;&#1090;&#1074;&#1086; &#1073;&#1086;&#1085;&#1091;&#1089;&#1086;&#1074;</text><text fill="#000000" font-family="sans-serif" font-size="14" lengthAdjust="spacing" textLength="33.5439" x="251.73" y="757.532">&#1060;&#1048;&#1054;</text><text fill="#000000" font-family="sans-serif" font-size="14" lengthAdjust="spacing" textLength="64.415" x="251.73" y="773.8289">&#1058;&#1077;&#1083;&#1077;&#1092;&#1086;&#1085;</text><text fill="#000000" font-family="sans-serif" font-size="14" lengthAdjust="spacing" textLength="44.0986" x="251.73" y="790.1257">&#1055;&#1086;&#1095;&#1090;&#1072;</text><text fill="#000000" font-family="sans-serif" font-size="14" lengthAdjust="spacing" textLength="116.4365" x="251.73" y="806.4226">&#1044;&#1077;&#1085;&#1100; &#1088;&#1086;&#1078;&#1076;&#1077;&#1085;&#1080;&#1103;</text><text fill="#000000" font-family="sans-serif" font-size="14" lengthAdjust="spacing" textLength="125.7061" x="251.73" y="822.7195">&#1059;&#1088;&#1086;&#1074;&#1077;&#1085;&#1100; &#1082;&#1083;&#1080;&#1077;&#1085;&#1090;&#1072;</text><text fill="#000000" font-family="sans-serif" font-size="14" lengthAdjust="spacing" textLength="155.9346" x="251.73" y="839.0164">&#1044;&#1072;&#1090;&#1072; &#1087;&#1088;&#1080;&#1089;&#1086;&#1077;&#1076;&#1080;&#1085;&#1077;&#1085;&#1080;&#1103;</text><line style="stroke:#181818;stroke-width:0.5;" x1="246.73" x2="446.6167" y1="846.3181" y2="846.3181"/></g><!--class ????--><g id="elem_&#1052;&#1077;&#1085;&#1102;"><rect codeLine="17" fill="#F1F1F1" height="96.8906" id="&#1052;&#1077;&#1085;&#1102;" rx="2.5" ry="2.5" style="stroke:#181818;stroke-width:0.5;" width="121.1494" x="718.1" y="724.83"/><ellipse cx="754.4833" cy="740.83" fill="#ADD1B2" rx="11" ry="11" style="stroke:#181818;stroke-width:1.0;"/><path d="M758.5927,746.83 L750.874,746.83 L750.874,734.4394 L758.5927,734.4394 L758.5927,736.5956 L753.3271,736.5956 L753.3271,739.2675 L758.0927,739.2675 L758.0927,741.4238 L753.3271,741.4238 L753.3271,744.6738 L758.5927,744.6738 L758.5927,746.83 Z " fill="#000000"/><text fill="#000000" font-family="sans-serif" font-size="14" lengthAdjust="spacing" textLength="41.6309" x="773.2352" y="745.6767">&#1052;&#1077;&#1085;&#1102;</text><line style="stroke:#181818;stroke-width:0.5;" x1="719.1" x2="838.2494" y1="756.83" y2="756.83"/><text fill="#000000" font-family="sans-serif" font-size="14" lengthAdjust="spacing" textLength="70.2461" x="724.1" y="773.8251">&#1053;&#1072;&#1079;&#1074;&#1072;&#1085;&#1080;&#1077;</text><text fill="#000000" font-family="sans-serif" font-size="14" lengthAdjust="spacing" textLength="109.1494" x="724.1" y="790.122">&#1057;&#1088;&#1086;&#1082; &#1076;&#1077;&#1081;&#1089;&#1090;&#1074;&#1080;&#1103;</text><text fill="#000000" font-family="sans-serif" font-size="14" lengthAdjust="spacing" textLength="26.8037" x="724.1" y="806.4189">&#1058;&#1080;&#1087;</text><line style="stroke:#181818;stroke-width:0.5;" x1="719.1" x2="838.2494" y1="813.7206" y2="813.7206"/></g><!--class ?????--><g id="elem_&#1058;&#1086;&#1074;&#1072;&#1088;"><rect codeLine="23" fill="#F1F1F1" height="194.6719" id="&#1058;&#1086;&#1074;&#1072;&#1088;" rx="2.5" ry="2.5" style="stroke:#181818;stroke-width:0.5;" width="150.3867" x="632.48" y="420.57"/><ellipse cx="682.0064" cy="436.57" fill="#ADD1B2" rx="11" ry="11" style="stroke:#181818;stroke-width:1.0;"/><path d="M686.1157,442.57 L678.397,442.57 L678.397,430.1794 L686.1157,430.1794 L686.1157,432.3356 L680.8501,432.3356 L680.8501,435.0075 L685.6157,435.0075 L685.6157,437.1638 L680.8501,437.1638 L680.8501,440.4138 L686.1157,440.4138 L686.1157,442.57 Z " fill="#000000"/><text fill="#000000" font-family="sans-serif" font-size="14" lengthAdjust="spacing" textLength="42.834" x="702.5064" y="441.4167">&#1058;&#1086;&#1074;&#1072;&#1088;</text><line style="stroke:#181818;stroke-width:0.5;" x1="633.48" x2="781.8667" y1="452.57" y2="452.57"/><text fill="#000000" font-family="sans-serif" font-size="14" lengthAdjust="spacing" textLength="70.2461" x="638.48" y="469.5651">&#1053;&#1072;&#1079;&#1074;&#1072;&#1085;&#1080;&#1077;</text><text fill="#000000" font-family="sans-serif" font-size="14" lengthAdjust="spacing" textLength="26.8037" x="638.48" y="485.862">&#1058;&#1080;&#1087;</text><text fill="#000000" font-family="sans-serif" font-size="14" lengthAdjust="spacing" textLength="128.4336" x="638.48" y="502.1589">&#1056;&#1077;&#1082;&#1083;&#1072;&#1084;&#1085;&#1099;&#1081; &#1090;&#1077;&#1082;&#1089;&#1090;</text><text fill="#000000" font-family="sans-serif" font-size="14" lengthAdjust="spacing" textLength="33.2158" x="638.48" y="518.4557">&#1041;&#1046;&#1059;</text><text fill="#000000" font-family="sans-serif" font-size="14" lengthAdjust="spacing" textLength="104.9385" x="638.48" y="534.7526">&#1050;&#1072;&#1083;&#1086;&#1088;&#1080;&#1081;&#1085;&#1086;&#1089;&#1090;&#1100;</text><text fill="#000000" font-family="sans-serif" font-size="14" lengthAdjust="spacing" textLength="72.4131" x="638.48" y="551.0495">&#1054;&#1087;&#1080;&#1089;&#1072;&#1085;&#1080;&#1077;</text><text fill="#000000" font-family="sans-serif" font-size="14" lengthAdjust="spacing" textLength="91.6494" x="638.48" y="567.3464">&#1060;&#1086;&#1090;&#1086;&#1075;&#1088;&#1072;&#1092;&#1080;&#1103;</text><text fill="#000000" font-family="sans-serif" font-size="14" lengthAdjust="spacing" textLength="37.2148" x="638.48" y="583.6432">&#1062;&#1077;&#1085;&#1072;</text><text fill="#000000" font-family="sans-serif" font-size="14" lengthAdjust="spacing" textLength="138.3867" x="638.48" y="599.9401">&#1057;&#1074;&#1103;&#1079;&#1072;&#1085;&#1085;&#1099;&#1077; &#1090;&#1086;&#1074;&#1072;&#1088;&#1099;</text><line style="stroke:#181818;stroke-width:0.5;" x1="633.48" x2="781.8667" y1="607.2419" y2="607.2419"/></g><!--class ??????????--><g id="elem_&#1048;&#1085;&#1075;&#1088;&#1077;&#1076;&#1080;&#1077;&#1085;&#1090;"><rect codeLine="35" fill="#F1F1F1" height="178.375" id="&#1048;&#1085;&#1075;&#1088;&#1077;&#1076;&#1080;&#1077;&#1085;&#1090;" rx="2.5" ry="2.5" style="stroke:#181818;stroke-width:0.5;" width="209.6543" x="602.85" y="7"/><ellipse cx="658.8363" cy="23" fill="#ADD1B2" rx="11" ry="11" style="stroke:#181818;stroke-width:1.0;"/><path d="M662.9457,29 L655.227,29 L655.227,16.6094 L662.9457,16.6094 L662.9457,18.7656 L657.6801,18.7656 L657.6801,21.4375 L662.4457,21.4375 L662.4457,23.5938 L657.6801,23.5938 L657.6801,26.8438 L662.9457,26.8438 L662.9457,29 Z " fill="#000000"/><text fill="#000000" font-family="sans-serif" font-size="14" lengthAdjust="spacing" textLength="89.1816" x="679.3363" y="27.8467">&#1048;&#1085;&#1075;&#1088;&#1077;&#1076;&#1080;&#1077;&#1085;&#1090;</text><line style="stroke:#181818;stroke-width:0.5;" x1="603.85" x2="811.5043" y1="39" y2="39"/><text fill="#000000" font-family="sans-serif" font-size="14" lengthAdjust="spacing" textLength="70.2461" x="608.85" y="55.9951">&#1053;&#1072;&#1079;&#1074;&#1072;&#1085;&#1080;&#1077;</text><text fill="#000000" font-family="sans-serif" font-size="14" lengthAdjust="spacing" textLength="33.2158" x="608.85" y="72.292">&#1041;&#1046;&#1059;</text><text fill="#000000" font-family="sans-serif" font-size="14" lengthAdjust="spacing" textLength="104.9385" x="608.85" y="88.5889">&#1050;&#1072;&#1083;&#1086;&#1088;&#1080;&#1081;&#1085;&#1086;&#1089;&#1090;&#1100;</text><text fill="#000000" font-family="sans-serif" font-size="14" lengthAdjust="spacing" textLength="91.6494" x="608.85" y="104.8857">&#1060;&#1086;&#1090;&#1086;&#1075;&#1088;&#1072;&#1092;&#1080;&#1103;</text><text fill="#000000" font-family="sans-serif" font-size="14" lengthAdjust="spacing" textLength="37.2148" x="608.85" y="121.1826">&#1062;&#1077;&#1085;&#1072;</text><text fill="#000000" font-family="sans-serif" font-size="14" lengthAdjust="spacing" textLength="94.6162" x="608.85" y="137.4795">&#1044;&#1086;&#1089;&#1090;&#1091;&#1087;&#1085;&#1086;&#1089;&#1090;&#1100;</text><text fill="#000000" font-family="sans-serif" font-size="14" lengthAdjust="spacing" textLength="197.6543" x="608.85" y="153.7764">&#1052;&#1072;&#1082;&#1089;&#1080;&#1084;&#1072;&#1083;&#1100;&#1085;&#1086;&#1077; &#1082;&#1086;&#1083;&#1080;&#1095;&#1077;&#1089;&#1090;&#1074;&#1086;</text><text fill="#000000" font-family="sans-serif" font-size="14" lengthAdjust="spacing" textLength="119.8887" x="608.85" y="170.0732">&#1054;&#1073;&#1103;&#1079;&#1072;&#1090;&#1077;&#1083;&#1100;&#1085;&#1086;&#1089;&#1090;&#1100;</text><line style="stroke:#181818;stroke-width:0.5;" x1="603.85" x2="811.5043" y1="177.375" y2="177.375"/></g><!--class ???????????--><g id="elem_&#1050;&#1086;&#1084;&#1073;&#1086;&#1073;&#1091;&#1088;&#1075;&#1077;&#1088;"><rect codeLine="46" fill="#F1F1F1" height="113.1875" id="&#1050;&#1086;&#1084;&#1073;&#1086;&#1073;&#1091;&#1088;&#1075;&#1077;&#1088;" rx="2.5" ry="2.5" style="stroke:#181818;stroke-width:0.5;" width="235.3369" x="590.01" y="246.38"/><ellipse cx="654.9651" cy="262.38" fill="#ADD1B2" rx="11" ry="11" style="stroke:#181818;stroke-width:1.0;"/><path d="M659.0745,268.38 L651.3557,268.38 L651.3557,255.9894 L659.0745,255.9894 L659.0745,258.1456 L653.8088,258.1456 L653.8088,260.8175 L658.5745,260.8175 L658.5745,262.9738 L653.8088,262.9738 L653.8088,266.2238 L659.0745,266.2238 L659.0745,268.38 Z " fill="#000000"/><text fill="#000000" font-family="sans-serif" font-size="14" lengthAdjust="spacing" textLength="96.9268" x="675.4651" y="267.2267">&#1050;&#1086;&#1084;&#1073;&#1086;&#1073;&#1091;&#1088;&#1075;&#1077;&#1088;</text><line style="stroke:#181818;stroke-width:0.5;" x1="591.01" x2="824.3469" y1="278.38" y2="278.38"/><text fill="#000000" font-family="sans-serif" font-size="14" lengthAdjust="spacing" textLength="72.4131" x="596.01" y="295.3751">&#1054;&#1087;&#1080;&#1089;&#1072;&#1085;&#1080;&#1077;</text><text fill="#000000" font-family="sans-serif" font-size="14" lengthAdjust="spacing" textLength="51.0234" x="596.01" y="311.672">&#1057;&#1086;&#1089;&#1090;&#1072;&#1074;</text><text fill="#000000" font-family="sans-serif" font-size="14" lengthAdjust="spacing" textLength="223.3369" x="596.01" y="327.9689">&#1054;&#1075;&#1088;&#1072;&#1085;&#1080;&#1095;&#1077;&#1085;&#1080;&#1077; &#1085;&#1072; &#1080;&#1085;&#1075;&#1088;&#1077;&#1076;&#1080;&#1077;&#1085;&#1090;&#1099;</text><text fill="#000000" font-family="sans-serif" font-size="14" lengthAdjust="spacing" textLength="63.4375" x="596.01" y="344.2657">&#1053;&#1072;&#1094;&#1077;&#1085;&#1082;&#1072;</text><line style="stroke:#181818;stroke-width:0.5;" x1="591.01" x2="824.3469" y1="351.5675" y2="351.5675"/></g><!--class ???????--><g id="elem_&#1050;&#1086;&#1088;&#1079;&#1080;&#1085;&#1072;"><rect codeLine="53" fill="#F1F1F1" height="80.5938" id="&#1050;&#1086;&#1088;&#1079;&#1080;&#1085;&#1072;" rx="2.5" ry="2.5" style="stroke:#181818;stroke-width:0.5;" width="199.8516" x="482.75" y="732.98"/><ellipse cx="547.5923" cy="748.98" fill="#ADD1B2" rx="11" ry="11" style="stroke:#181818;stroke-width:1.0;"/><path d="M551.7017,754.98 L543.9829,754.98 L543.9829,742.5894 L551.7017,742.5894 L551.7017,744.7456 L546.436,744.7456 L546.436,747.4175 L551.2017,747.4175 L551.2017,749.5738 L546.436,749.5738 L546.436,752.8238 L551.7017,752.8238 L551.7017,754.98 Z " fill="#000000"/><text fill="#000000" font-family="sans-serif" font-size="14" lengthAdjust="spacing" textLength="61.667" x="568.0923" y="753.8267">&#1050;&#1086;&#1088;&#1079;&#1080;&#1085;&#1072;</text><line style="stroke:#181818;stroke-width:0.5;" x1="483.75" x2="681.6016" y1="764.98" y2="764.98"/><text fill="#000000" font-family="sans-serif" font-size="14" lengthAdjust="spacing" textLength="78.8252" x="488.75" y="781.9751">&#1057;&#1090;&#1086;&#1080;&#1084;&#1086;&#1089;&#1090;&#1100;</text><text fill="#000000" font-family="sans-serif" font-size="14" lengthAdjust="spacing" textLength="187.8516" x="488.75" y="798.272">&#1057;&#1086;&#1089;&#1090;&#1072;&#1074;\&#1090;&#1086;&#1074;&#1072;&#1088;-&#1082;&#1086;&#1083;&#1080;&#1095;&#1077;&#1089;&#1090;&#1074;&#1086;</text><line style="stroke:#181818;stroke-width:0.5;" x1="483.75" x2="681.6016" y1="805.5738" y2="805.5738"/></g><!--class ?????--><g id="elem_&#1047;&#1072;&#1082;&#1072;&#1079;"><rect codeLine="58" fill="#F1F1F1" height="162.0781" id="&#1047;&#1072;&#1082;&#1072;&#1079;" rx="2.5" ry="2.5" style="stroke:#181818;stroke-width:0.5;" width="147.3516" x="91" y="915.32"/><ellipse cx="139.4087" cy="931.32" fill="#ADD1B2" rx="11" ry="11" style="stroke:#181818;stroke-width:1.0;"/><path d="M143.5181,937.32 L135.7993,937.32 L135.7993,924.9294 L143.5181,924.9294 L143.5181,927.0856 L138.2524,927.0856 L138.2524,929.7575 L143.0181,929.7575 L143.0181,931.9138 L138.2524,931.9138 L138.2524,935.1638 L143.5181,935.1638 L143.5181,937.32 Z " fill="#000000"/><text fill="#000000" font-family="sans-serif" font-size="14" lengthAdjust="spacing" textLength="42.0342" x="159.9087" y="936.1667">&#1047;&#1072;&#1082;&#1072;&#1079;</text><line style="stroke:#181818;stroke-width:0.5;" x1="92" x2="237.3516" y1="947.32" y2="947.32"/><text fill="#000000" font-family="sans-serif" font-size="14" lengthAdjust="spacing" textLength="47.1543" x="97" y="964.3151">&#1053;&#1086;&#1084;&#1077;&#1088;</text><text fill="#000000" font-family="sans-serif" font-size="14" lengthAdjust="spacing" textLength="50.6475" x="97" y="980.612">&#1057;&#1090;&#1072;&#1090;&#1091;&#1089;</text><text fill="#000000" font-family="sans-serif" font-size="14" lengthAdjust="spacing" textLength="36.251" x="97" y="996.9089">&#1044;&#1072;&#1090;&#1072;</text><text fill="#000000" font-family="sans-serif" font-size="14" lengthAdjust="spacing" textLength="78.8252" x="97" y="1013.2057">&#1057;&#1090;&#1086;&#1080;&#1084;&#1086;&#1089;&#1090;&#1100;</text><text fill="#000000" font-family="sans-serif" font-size="14" lengthAdjust="spacing" textLength="135.3516" x="97" y="1029.5026">&#1057;&#1087;&#1086;&#1089;&#1086;&#1073; &#1087;&#1086;&#1083;&#1091;&#1095;&#1077;&#1085;&#1080;&#1103;</text><text fill="#000000" font-family="sans-serif" font-size="14" lengthAdjust="spacing" textLength="129.0488" x="97" y="1045.7995">&#1042;&#1088;&#1077;&#1084;&#1103; &#1087;&#1086;&#1083;&#1091;&#1095;&#1077;&#1085;&#1080;&#1103;</text><text fill="#000000" font-family="sans-serif" font-size="14" lengthAdjust="spacing" textLength="111.2959" x="97" y="1062.0964">&#1057;&#1087;&#1086;&#1089;&#1086;&#1073; &#1086;&#1087;&#1083;&#1072;&#1090;&#1099;</text><line style="stroke:#181818;stroke-width:0.5;" x1="92" x2="237.3516" y1="1069.3981" y2="1069.3981"/></g><!--class ??????????--><g id="elem_&#1057;&#1087;&#1088;&#1072;&#1074;&#1086;&#1095;&#1085;&#1080;&#1082;"><rect codeLine="68" fill="#F1F1F1" height="80.5938" id="&#1057;&#1087;&#1088;&#1072;&#1074;&#1086;&#1095;&#1085;&#1080;&#1082;" rx="2.5" ry="2.5" style="stroke:#181818;stroke-width:0.5;" width="147.3516" x="7" y="1178.84"/><ellipse cx="34.2225" cy="1194.84" fill="#ADD1B2" rx="11" ry="11" style="stroke:#181818;stroke-width:1.0;"/><path d="M38.3319,1200.84 L30.6131,1200.84 L30.6131,1188.4494 L38.3319,1188.4494 L38.3319,1190.6056 L33.0663,1190.6056 L33.0663,1193.2775 L37.8319,1193.2775 L37.8319,1195.4338 L33.0663,1195.4338 L33.0663,1198.6838 L38.3319,1198.6838 L38.3319,1200.84 Z " fill="#000000"/><text fill="#000000" font-family="sans-serif" font-size="14" lengthAdjust="spacing" textLength="88.1904" x="50.9386" y="1199.6867">&#1057;&#1087;&#1088;&#1072;&#1074;&#1086;&#1095;&#1085;&#1080;&#1082;</text><line style="stroke:#181818;stroke-width:0.5;" x1="8" x2="153.3516" y1="1210.84" y2="1210.84"/><text fill="#000000" font-family="sans-serif" font-size="14" lengthAdjust="spacing" textLength="135.3516" x="13" y="1227.8351">&#1057;&#1087;&#1086;&#1089;&#1086;&#1073; &#1087;&#1086;&#1083;&#1091;&#1095;&#1077;&#1085;&#1080;&#1103;</text><text fill="#000000" font-family="sans-serif" font-size="14" lengthAdjust="spacing" textLength="111.2959" x="13" y="1244.132">&#1057;&#1087;&#1086;&#1089;&#1086;&#1073; &#1086;&#1087;&#1083;&#1072;&#1090;&#1099;</text><line style="stroke:#181818;stroke-width:0.5;" x1="8" x2="153.3516" y1="1251.4338" y2="1251.4338"/></g><!--class ??????????--><g id="elem_&#1058;&#1088;&#1072;&#1085;&#1079;&#1072;&#1082;&#1094;&#1080;&#1103;"><rect codeLine="73" fill="#F1F1F1" height="129.4844" id="&#1058;&#1088;&#1072;&#1085;&#1079;&#1072;&#1082;&#1094;&#1080;&#1103;" rx="2.5" ry="2.5" style="stroke:#181818;stroke-width:0.5;" width="118.7002" x="189.33" y="1154.4"/><ellipse cx="204.33" cy="1170.4" fill="#ADD1B2" rx="11" ry="11" style="stroke:#181818;stroke-width:1.0;"/><path d="M208.4394,1176.4 L200.7206,1176.4 L200.7206,1164.0094 L208.4394,1164.0094 L208.4394,1166.1656 L203.1738,1166.1656 L203.1738,1168.8375 L207.9394,1168.8375 L207.9394,1170.9938 L203.1738,1170.9938 L203.1738,1174.2438 L208.4394,1174.2438 L208.4394,1176.4 Z " fill="#000000"/><text fill="#000000" font-family="sans-serif" font-size="14" lengthAdjust="spacing" textLength="86.7002" x="218.33" y="1175.2467">&#1058;&#1088;&#1072;&#1085;&#1079;&#1072;&#1082;&#1094;&#1080;&#1103;</text><line style="stroke:#181818;stroke-width:0.5;" x1="190.33" x2="307.0302" y1="1186.4" y2="1186.4"/><text fill="#000000" font-family="sans-serif" font-size="14" lengthAdjust="spacing" textLength="35.793" x="195.33" y="1203.3951">&#1041;&#1072;&#1085;&#1082;</text><text fill="#000000" font-family="sans-serif" font-size="14" lengthAdjust="spacing" textLength="50.6475" x="195.33" y="1219.692">&#1057;&#1090;&#1072;&#1090;&#1091;&#1089;</text><text fill="#000000" font-family="sans-serif" font-size="14" lengthAdjust="spacing" textLength="82.3389" x="195.33" y="1235.9889">&#1044;&#1072;&#1090;&#1072;&#1042;&#1088;&#1077;&#1084;&#1103;</text><text fill="#000000" font-family="sans-serif" font-size="14" lengthAdjust="spacing" textLength="47.7627" x="195.33" y="1252.2857">&#1057;&#1091;&#1084;&#1084;&#1072;</text><text fill="#000000" font-family="sans-serif" font-size="14" lengthAdjust="spacing" textLength="26.667" x="195.33" y="1268.5826">&#1063;&#1077;&#1082;</text><line style="stroke:#181818;stroke-width:0.5;" x1="190.33" x2="307.0302" y1="1275.8844" y2="1275.8844"/></g><!--link ?????? to ???????--><g id="link_&#1050;&#1083;&#1080;&#1077;&#1085;&#1090;_&#1050;&#1086;&#1088;&#1079;&#1080;&#1085;&#1072;"><path codeLine="81" d="M391.07,566.56 C435.8,614.58 499.9306,683.4395 541.7606,728.3495 " fill="none" id="&#1050;&#1083;&#1080;&#1077;&#1085;&#1090;-to-&#1050;&#1086;&#1088;&#1079;&#1080;&#1085;&#1072;" style="stroke:#181818;stroke-width:1.0;"/><polygon fill="#181818" points="545.85,732.74,542.6429,723.4279,542.4422,729.0812,536.7889,728.8805,545.85,732.74" style="stroke:#181818;stroke-width:1.0;"/><text fill="#000000" font-family="sans-serif" font-size="13" lengthAdjust="spacing" textLength="77.1685" x="480.68" y="658.3069">&#1060;&#1086;&#1088;&#1084;&#1080;&#1088;&#1091;&#1077;&#1090;</text><text fill="#000000" font-family="sans-serif" font-size="13" lengthAdjust="spacing" textLength="8.271" x="388.769" y="586.533">1</text><text fill="#000000" font-family="sans-serif" font-size="13" lengthAdjust="spacing" textLength="24.8066" x="513.83" y="721.8618">0..1</text></g><!--link ?????? to ?????--><g id="link_&#1050;&#1083;&#1080;&#1077;&#1085;&#1090;_&#1047;&#1072;&#1082;&#1072;&#1079;"><path codeLine="82" d="M271.85,566.54 C231.3,596.99 185.03,640.47 162.68,692.24 C132.17,762.9 136.2414,845.8223 146.1414,909.0223 " fill="none" id="&#1050;&#1083;&#1080;&#1077;&#1085;&#1090;-to-&#1047;&#1072;&#1082;&#1072;&#1079;" style="stroke:#181818;stroke-width:1.0;"/><polygon fill="#181818" points="147.07,914.95,149.629,905.4394,146.2962,910.0102,141.7254,906.6775,147.07,914.95" style="stroke:#181818;stroke-width:1.0;"/><text fill="#000000" font-family="sans-serif" font-size="13" lengthAdjust="spacing" textLength="64.5557" x="163.68" y="777.8469">&#1047;&#1072;&#1073;&#1080;&#1088;&#1072;&#1077;&#1090;</text><text fill="#000000" font-family="sans-serif" font-size="13" lengthAdjust="spacing" textLength="8.271" x="252.7837" y="586.5102">1</text><text fill="#000000" font-family="sans-serif" font-size="13" lengthAdjust="spacing" textLength="23.0356" x="121.5703" y="904.382">0..*</text></g><!--reverse link ??????? to ?????--><g id="link_&#1050;&#1086;&#1088;&#1079;&#1080;&#1085;&#1072;_&#1047;&#1072;&#1082;&#1072;&#1079;"><path codeLine="83" d="M513.1823,824.1994 C493.6223,837.6894 485.97,842.19 464.68,854.32 C390.04,896.83 300.46,937.71 238.73,964.41 " fill="none" id="&#1050;&#1086;&#1088;&#1079;&#1080;&#1085;&#1072;-backto-&#1047;&#1072;&#1082;&#1072;&#1079;" style="stroke:#181818;stroke-width:1.0;"/><polygon fill="none" points="528,813.98,509.7758,819.2601,516.5887,829.1386,528,813.98" style="stroke:#181818;stroke-width:1.0;"/></g><!--link ????? to ???????--><g id="link_&#1058;&#1086;&#1074;&#1072;&#1088;_&#1050;&#1086;&#1088;&#1079;&#1080;&#1085;&#1072;"><path codeLine="84" d="M660.06,615.42 C639.98,656.11 623.0388,690.4582 607.5688,721.8182 " fill="none" id="&#1058;&#1086;&#1074;&#1072;&#1088;-to-&#1050;&#1086;&#1088;&#1079;&#1080;&#1085;&#1072;" style="stroke:#181818;stroke-width:1.0;"/><polygon fill="none" points="602.26,732.58,608.5017,728.9687,607.5688,721.8182,601.3272,725.4295,602.26,732.58" style="stroke:#181818;stroke-width:1.0;"/><text fill="#000000" font-family="sans-serif" font-size="13" lengthAdjust="spacing" textLength="16.5356" x="639.9956" y="635.2037">1..</text><text fill="#000000" font-family="sans-serif" font-size="13" lengthAdjust="spacing" textLength="16.5356" x="588.1489" y="721.9761">0..</text></g><!--link ??????????? to ?????--><g id="link_&#1050;&#1086;&#1084;&#1073;&#1086;&#1073;&#1091;&#1088;&#1075;&#1077;&#1088;_&#1058;&#1086;&#1074;&#1072;&#1088;"><path codeLine="85" d="M707.68,359.92 C707.68,378.4 707.68,381.53 707.68,402.16 " fill="none" id="&#1050;&#1086;&#1084;&#1073;&#1086;&#1073;&#1091;&#1088;&#1075;&#1077;&#1088;-to-&#1058;&#1086;&#1074;&#1072;&#1088;" style="stroke:#181818;stroke-width:1.0;"/><polygon fill="none" points="707.68,420.16,713.68,402.16,701.68,402.16,707.68,420.16" style="stroke:#181818;stroke-width:1.0;"/></g><!--link ????? to ????--><g id="link_&#1058;&#1086;&#1074;&#1072;&#1088;_&#1052;&#1077;&#1085;&#1102;"><path codeLine="86" d="M734.72,615.42 C745.18,652.76 753.4535,682.2547 762.0635,712.9947 " fill="none" id="&#1058;&#1086;&#1074;&#1072;&#1088;-to-&#1052;&#1077;&#1085;&#1102;" style="stroke:#181818;stroke-width:1.0;"/><polygon fill="none" points="765.3,724.55,767.5335,717.6935,762.0635,712.9947,759.83,719.8512,765.3,724.55" style="stroke:#181818;stroke-width:1.0;"/><text fill="#000000" font-family="sans-serif" font-size="13" lengthAdjust="spacing" textLength="16.5356" x="720.1384" y="635.2037">1..</text><text fill="#000000" font-family="sans-serif" font-size="13" lengthAdjust="spacing" textLength="16.5356" x="746.3318" y="713.7195">1..</text></g><!--link ?????????? to ???????????--><g id="link_&#1048;&#1085;&#1075;&#1088;&#1077;&#1076;&#1080;&#1077;&#1085;&#1090;_&#1050;&#1086;&#1084;&#1073;&#1086;&#1073;&#1091;&#1088;&#1075;&#1077;&#1088;"><path codeLine="87" d="M707.68,185.82 C707.68,206.25 707.68,215.43 707.68,234.01 " fill="none" id="&#1048;&#1085;&#1075;&#1088;&#1077;&#1076;&#1080;&#1077;&#1085;&#1090;-to-&#1050;&#1086;&#1084;&#1073;&#1086;&#1073;&#1091;&#1088;&#1075;&#1077;&#1088;" style="stroke:#181818;stroke-width:1.0;"/><polygon fill="none" points="707.68,246.01,711.68,240.01,707.68,234.01,703.68,240.01,707.68,246.01" style="stroke:#181818;stroke-width:1.0;"/><text fill="#000000" font-family="sans-serif" font-size="13" lengthAdjust="spacing" textLength="33.0776" x="673.4199" y="205.3287">2..10</text><text fill="#000000" font-family="sans-serif" font-size="13" lengthAdjust="spacing" textLength="16.5356" x="690.7378" y="235.2285">0..</text></g><!--link ?????????? to ??????????--><g id="link_&#1048;&#1085;&#1075;&#1088;&#1077;&#1076;&#1080;&#1077;&#1085;&#1090;_&#1048;&#1085;&#1075;&#1088;&#1077;&#1076;&#1080;&#1077;&#1085;&#1090;"><path codeLine="88" d="M812.86,74.79 C833.14,77.31 847.5,84.45 847.5,96.19 C847.5,107.94 833.14,115.07 812.86,117.6 " fill="none" id="&#1048;&#1085;&#1075;&#1088;&#1077;&#1076;&#1080;&#1077;&#1085;&#1090;-&#1048;&#1085;&#1075;&#1088;&#1077;&#1076;&#1080;&#1077;&#1085;&#1090;" style="stroke:#181818;stroke-width:1.0;"/></g><!--link ????? to ?????--><g id="link_&#1058;&#1086;&#1074;&#1072;&#1088;_&#1058;&#1086;&#1074;&#1072;&#1088;"><path codeLine="89" d="M783.13,494.16 C802.92,495.57 817.87,503.48 817.87,517.9 C817.87,532.32 814.8901,539.3932 795.1001,540.7932 " fill="none" id="&#1058;&#1086;&#1074;&#1072;&#1088;-to-&#1058;&#1086;&#1074;&#1072;&#1088;" style="stroke:#181818;stroke-width:1.0;"/><polygon fill="none" points="783.13,541.64,789.3973,545.2066,795.1001,540.7932,788.8328,537.2266,783.13,541.64" style="stroke:#181818;stroke-width:1.0;"/></g><!--link ????? to ??????????--><g id="link_&#1047;&#1072;&#1082;&#1072;&#1079;_&#1058;&#1088;&#1072;&#1085;&#1079;&#1072;&#1082;&#1094;&#1080;&#1103;"><path codeLine="90" d="M195.24,1077.69 C204.81,1102.84 210.9735,1119.0341 220.0535,1142.9041 " fill="none" id="&#1047;&#1072;&#1082;&#1072;&#1079;-to-&#1058;&#1088;&#1072;&#1085;&#1079;&#1072;&#1082;&#1094;&#1080;&#1103;" style="stroke:#181818;stroke-width:1.0;"/><polygon fill="none" points="224.32,1154.12,225.9254,1147.0899,220.0535,1142.9041,218.4481,1149.9342,224.32,1154.12" style="stroke:#181818;stroke-width:1.0;"/><text fill="#000000" font-family="sans-serif" font-size="13" lengthAdjust="spacing" textLength="68.0723" x="213.68" y="1120.4669">&#1089;&#1086;&#1076;&#1077;&#1088;&#1078;&#1080;&#1090;</text><text fill="#000000" font-family="sans-serif" font-size="13" lengthAdjust="spacing" textLength="8.271" x="189.5345" y="1097.3965">1</text><text fill="#000000" font-family="sans-serif" font-size="13" lengthAdjust="spacing" textLength="23.0356" x="197.3998" y="1143.262">0..*</text></g><!--link ????? to ??????????--><g id="link_&#1047;&#1072;&#1082;&#1072;&#1079;_&#1057;&#1087;&#1088;&#1072;&#1074;&#1086;&#1095;&#1085;&#1080;&#1082;"><path codeLine="91" d="M130.4,1077.64 C126.35,1087.62 122.35,1097.72 118.68,1107.4 C109.79,1130.77 102.5674,1151.5479 95.4974,1172.7579 " fill="none" id="&#1047;&#1072;&#1082;&#1072;&#1079;-to-&#1057;&#1087;&#1088;&#1072;&#1074;&#1086;&#1095;&#1085;&#1080;&#1082;" style="stroke:#181818;stroke-width:1.0;"/><polygon fill="#181818" points="93.6,1178.45,100.2408,1171.1768,95.1811,1173.7066,92.6513,1168.6469,93.6,1178.45" style="stroke:#181818;stroke-width:1.0;"/><text fill="#000000" font-family="sans-serif" font-size="13" lengthAdjust="spacing" textLength="78.1968" x="119.68" y="1120.4669">&#1080;&#1089;&#1087;&#1086;&#1083;&#1100;&#1079;&#1091;&#1077;&#1090;</text></g><!--link ?????? to ???????????????????--><g id="link_&#1050;&#1083;&#1080;&#1077;&#1085;&#1090;_&#1055;&#1088;&#1086;&#1075;&#1088;&#1072;&#1084;&#1084;&#1072;&#1051;&#1086;&#1103;&#1083;&#1100;&#1085;&#1086;&#1089;&#1090;&#1080;"><path codeLine="92" d="M346.68,566.56 C346.68,601.83 346.68,638.69 346.68,679.95 " fill="none" id="&#1050;&#1083;&#1080;&#1077;&#1085;&#1090;-to-&#1055;&#1088;&#1086;&#1075;&#1088;&#1072;&#1084;&#1084;&#1072;&#1051;&#1086;&#1103;&#1083;&#1100;&#1085;&#1086;&#1089;&#1090;&#1080;" style="stroke:#181818;stroke-width:1.0;"/><polygon fill="none" points="346.68,691.95,350.68,685.95,346.68,679.95,342.68,685.95,346.68,691.95" style="stroke:#181818;stroke-width:1.0;"/><text fill="#000000" font-family="sans-serif" font-size="13" lengthAdjust="spacing" textLength="80.7803" x="347.68" y="658.3069">&#1091;&#1095;&#1072;&#1089;&#1090;&#1074;&#1091;&#1077;&#1090; &#1074;</text><text fill="#000000" font-family="sans-serif" font-size="13" lengthAdjust="spacing" textLength="8.271" x="338.1367" y="586.533">1</text><text fill="#000000" font-family="sans-serif" font-size="13" lengthAdjust="spacing" textLength="24.8066" x="321.6478" y="681.1115">0..1</text></g><!--SRC=[ZLLDJzj04BtlhrZvMCaHz9X3R_oBYdilvCAbGfMIk883KICg18ZIq0JKNZS6DywNynTc_r7VpDhE6Zk5Ix9Upxnvy-Rj-k3e-DFnPqstjAIK4bhRlZvHDC5oIOdzIXcj5JtOCpAsP_kqHjH2qvJtRMHxsCXehcbZkrWyuTVGYbRsND4O-Jr4f7QelYXra5UwhqRYzmTbTaXBEs0mgP8oXrk4WHHA9x8PK-ONpYXMz4WtDAhHlGVC6JACealfQQ2bw5zwvaTXX9vuAyxVqs8hWCipl72DfL8kGNQAx0B1w-bE4hynwvzeQ0PO8r8ba47gG3EkFSyx4GOJ16nyc8aGChRR2EJ2wHTWc2ohjxRd41-8s69aHHTqHG-idK58njnfNiXg1uf6j95sIjH7lEiN0u60mkotD6buXZ56CvDmBfPe2HQIcB77_GOHZE5KAerKw-8rWl_dSva7HcZ3Ixe3seAj9dxAdGIo4Ahc8TPWwfeIuJpV0ShhYFst4iDDORWkFG539bFJS9pRrh0bHxctrwwiYz5CNujzNeZ49mKYsLC9NQ39AWL4poJFSEcnQCDjbhrxnJzkXnCsjkv1NxDaF1mt9MuLxRaAXXMslV8KxAYxuGUMH_CIGaP5mpopxzBdoWuRtrQoCpmifMh5KcCvV8QP8zNTF2Ul5tuBz2GVqKoCSyg937qXcujc5ROTyVl8NLwA_l3XO-pA7Hhi1peCF-XWhzN2iZh9jXQRTm6GuXn5KBw_E_rTu4shxTPJJiH_dkYxv30ClNZbNIh1Vgl5i1s1VKbAxJ1y61vwDrCTpm7AihW7LUDj4Bo757j5GicWNh8vdTjgsFS9CR1FTUjnfsUdrBDf_cqTY6kUcGE-5Qdj1pu6pwFHaqYK-y1vSK0pDz6WQQITqX5l-muogQZy-iOEMLCS_0C0]--></g></svg>