<svg xmlns="http://www.w3.org/2000/svg" xmlns:xlink="http://www.w3.org/1999/xlink" contentStyleType="text/css" height="1452px" preserveAspectRatio="none" style="width:1519px;height:1452px;background:#FFFFFF;" version="1.1" viewBox="0 0 1519 1452" width="1519px" zoomAndPan="magnify"><defs/><g><rect fill="#DDDDDD" height="1440.7891" style="stroke:#181818;stroke-width:0.5;" width="1128.8691" x="377.3701" y="6"/><text fill="#000000" font-family="sans-serif" font-size="13" font-weight="bold" lengthAdjust="spacing" textLength="140.1372" x="871.7361" y="18.0669">Restaurant System</text><rect fill="#FFFFFF" height="1220.9297" style="stroke:#181818;stroke-width:1.0;" width="10" x="436.9502" y="136.5625"/><rect fill="#FFFFFF" height="87.3984" style="stroke:#181818;stroke-width:1.0;" width="10" x="650.3823" y="165.6953"/><rect fill="#FFFFFF" height="111.5313" style="stroke:#181818;stroke-width:1.0;" width="10" x="650.3823" y="833.2891"/><rect fill="#FFFFFF" height="59.1328" style="stroke:#181818;stroke-width:1.0;" width="10" x="650.3823" y="1090.0234"/><rect fill="#FFFFFF" height="149.3984" style="stroke:#181818;stroke-width:1.0;" width="10" x="650.3823" y="1193.0938"/><rect fill="#FFFFFF" height="59.1328" style="stroke:#181818;stroke-width:1.0;" width="10" x="766.8179" y="686.7578"/><rect fill="#FFFFFF" height="65.1328" style="stroke:#181818;stroke-width:1.0;" width="10" x="766.8179" y="973.9531"/><rect fill="#FFFFFF" height="29.1328" style="stroke:#181818;stroke-width:1.0;" width="10" x="890.937" y="194.8281"/><rect fill="#FFFFFF" height="376.3984" style="stroke:#181818;stroke-width:1.0;" width="10" x="890.937" y="289.2266"/><rect fill="#FFFFFF" height="126.5313" style="stroke:#181818;stroke-width:1.0;" width="10" x="1014.2598" y="400.7578"/><rect fill="#FFFFFF" height="53.2656" style="stroke:#181818;stroke-width:1.0;" width="10" x="1131.2524" y="862.4219"/><rect fill="#FFFFFF" height="30" style="stroke:#181818;stroke-width:1.0;" width="10" x="1131.2524" y="1276.3594"/><rect fill="#FFFFFF" height="28" style="stroke:#181818;stroke-width:1.0;" width="10" x="1249.626" y="1011.0859"/><rect fill="#FFFFFF" height="30" style="stroke:#181818;stroke-width:1.0;" width="10" x="1467.5518" y="715.8906"/><rect fill="none" height="162.7969" style="stroke:#000000;stroke-width:1.5;" width="944.9448" x="20" y="98.2969"/><rect fill="none" height="354.3984" style="stroke:#000000;stroke-width:1.5;" width="1083.5747" x="10" y="304.2266"/><rect fill="none" height="75.3984" style="stroke:#000000;stroke-width:1.5;" width="1063.5747" x="20" y="444.8906"/><rect fill="none" height="473.0703" style="stroke:#000000;stroke-width:1.5;" width="1140.8691" x="371.3701" y="877.4219"/><rect fill="none" height="76.2656" style="stroke:#000000;stroke-width:1.5;" width="604.8721" x="594.0581" y="1238.0938"/><line style="stroke:#181818;stroke-width:0.5;stroke-dasharray:5.0,5.0;" x1="67" x2="67" y1="81.2969" y2="1367.4922"/><line style="stroke:#181818;stroke-width:0.5;stroke-dasharray:5.0,5.0;" x1="441.3701" x2="441.3701" y1="81.2969" y2="1367.4922"/><line style="stroke:#181818;stroke-width:0.5;stroke-dasharray:5.0,5.0;" x1="655.0581" x2="655.0581" y1="81.2969" y2="1367.4922"/><line style="stroke:#181818;stroke-width:0.5;stroke-dasharray:5.0,5.0;" x1="771.7065" x2="771.7065" y1="81.2969" y2="1367.4922"/><line style="stroke:#181818;stroke-width:0.5;stroke-dasharray:5.0,5.0;" x1="895.9292" x2="895.9292" y1="81.2969" y2="1367.4922"/><line style="stroke:#181818;stroke-width:0.5;stroke-dasharray:5.0,5.0;" x1="1018.9448" x2="1018.9448" y1="81.2969" y2="1367.4922"/><line style="stroke:#181818;stroke-width:0.5;stroke-dasharray:5.0,5.0;" x1="1135.5747" x2="1135.5747" y1="81.2969" y2="1367.4922"/><line style="stroke:#181818;stroke-width:0.5;stroke-dasharray:5.0,5.0;" x1="1253.9302" x2="1253.9302" y1="81.2969" y2="1367.4922"/><line style="stroke:#181818;stroke-width:0.5;stroke-dasharray:5.0,5.0;" x1="1471.8643" x2="1471.8643" y1="81.2969" y2="1367.4922"/><text fill="#000000" font-family="sans-serif" font-size="14" lengthAdjust="spacing" textLength="68.0039" x="30" y="77.9951">Customer</text><ellipse cx="67.002" cy="13.5" fill="#E2E2F0" rx="8" ry="8" style="stroke:#181818;stroke-width:0.5;"/><path d="M67.002,21.5 L67.002,48.5 M54.002,29.5 L80.002,29.5 M67.002,48.5 L54.002,63.5 M67.002,48.5 L80.002,63.5 " fill="none" style="stroke:#181818;stroke-width:0.5;"/><text fill="#000000" font-family="sans-serif" font-size="14" lengthAdjust="spacing" textLength="68.0039" x="30" y="1379.4873">Customer</text><ellipse cx="67.002" cy="1391.2891" fill="#E2E2F0" rx="8" ry="8" style="stroke:#181818;stroke-width:0.5;"/><path d="M67.002,1399.2891 L67.002,1426.2891 M54.002,1407.2891 L80.002,1407.2891 M67.002,1426.2891 L54.002,1441.2891 M67.002,1426.2891 L80.002,1441.2891 " fill="none" style="stroke:#181818;stroke-width:0.5;"/><rect fill="#E2E2F0" height="30.2969" rx="2.5" ry="2.5" style="stroke:#181818;stroke-width:0.5;" width="121.1602" x="381.3701" y="50"/><text fill="#000000" font-family="sans-serif" font-size="14" lengthAdjust="spacing" textLength="107.1602" x="388.3701" y="69.9951">Order Interface</text><rect fill="#E2E2F0" height="30.2969" rx="2.5" ry="2.5" style="stroke:#181818;stroke-width:0.5;" width="121.1602" x="381.3701" y="1366.4922"/><text fill="#000000" font-family="sans-serif" font-size="14" lengthAdjust="spacing" textLength="107.1602" x="388.3701" y="1386.4873">Order Interface</text><rect fill="#E2E2F0" height="30.2969" rx="2.5" ry="2.5" style="stroke:#181818;stroke-width:0.5;" width="102.6484" x="604.0581" y="50"/><text fill="#000000" font-family="sans-serif" font-size="14" lengthAdjust="spacing" textLength="88.6484" x="611.0581" y="69.9951">Api Gateway</text><rect fill="#E2E2F0" height="30.2969" rx="2.5" ry="2.5" style="stroke:#181818;stroke-width:0.5;" width="102.6484" x="604.0581" y="1366.4922"/><text fill="#000000" font-family="sans-serif" font-size="14" lengthAdjust="spacing" textLength="88.6484" x="611.0581" y="1386.4873">Api Gateway</text><rect fill="#E2E2F0" height="30.2969" rx="2.5" ry="2.5" style="stroke:#181818;stroke-width:0.5;" width="110.2227" x="716.7065" y="50"/><text fill="#000000" font-family="sans-serif" font-size="14" lengthAdjust="spacing" textLength="96.2227" x="723.7065" y="69.9951">Order Service</text><rect fill="#E2E2F0" height="30.2969" rx="2.5" ry="2.5" style="stroke:#181818;stroke-width:0.5;" width="110.2227" x="716.7065" y="1366.4922"/><text fill="#000000" font-family="sans-serif" font-size="14" lengthAdjust="spacing" textLength="96.2227" x="723.7065" y="1386.4873">Order Service</text><rect fill="#E2E2F0" height="30.2969" rx="2.5" ry="2.5" style="stroke:#181818;stroke-width:0.5;" width="118.0156" x="836.9292" y="50"/><text fill="#000000" font-family="sans-serif" font-size="14" lengthAdjust="spacing" textLength="104.0156" x="843.9292" y="69.9951">Clients Service</text><rect fill="#E2E2F0" height="30.2969" rx="2.5" ry="2.5" style="stroke:#181818;stroke-width:0.5;" width="118.0156" x="836.9292" y="1366.4922"/><text fill="#000000" font-family="sans-serif" font-size="14" lengthAdjust="spacing" textLength="104.0156" x="843.9292" y="1386.4873">Clients Service</text><rect fill="#E2E2F0" height="30.2969" rx="2.5" ry="2.5" style="stroke:#181818;stroke-width:0.5;" width="108.6299" x="964.9448" y="50"/><text fill="#000000" font-family="sans-serif" font-size="14" lengthAdjust="spacing" textLength="94.6299" x="971.9448" y="69.9951">Menu Service</text><rect fill="#E2E2F0" height="30.2969" rx="2.5" ry="2.5" style="stroke:#181818;stroke-width:0.5;" width="108.6299" x="964.9448" y="1366.4922"/><text fill="#000000" font-family="sans-serif" font-size="14" lengthAdjust="spacing" textLength="94.6299" x="971.9448" y="1386.4873">Menu Service</text><rect fill="#E2E2F0" height="30.2969" rx="2.5" ry="2.5" style="stroke:#181818;stroke-width:0.5;" width="105.3555" x="1083.5747" y="50"/><text fill="#000000" font-family="sans-serif" font-size="14" lengthAdjust="spacing" textLength="91.3555" x="1090.5747" y="69.9951">Bank Service</text><rect fill="#E2E2F0" height="30.2969" rx="2.5" ry="2.5" style="stroke:#181818;stroke-width:0.5;" width="105.3555" x="1083.5747" y="1366.4922"/><text fill="#000000" font-family="sans-serif" font-size="14" lengthAdjust="spacing" textLength="91.3555" x="1090.5747" y="1386.4873">Bank Service</text><rect fill="#E2E2F0" height="30.2969" rx="2.5" ry="2.5" style="stroke:#181818;stroke-width:0.5;" width="111.3916" x="1198.9302" y="50"/><text fill="#000000" font-family="sans-serif" font-size="14" lengthAdjust="spacing" textLength="97.3916" x="1205.9302" y="69.9951">Order tableau</text><rect fill="#E2E2F0" height="30.2969" rx="2.5" ry="2.5" style="stroke:#181818;stroke-width:0.5;" width="111.3916" x="1198.9302" y="1366.4922"/><text fill="#000000" font-family="sans-serif" font-size="14" lengthAdjust="spacing" textLength="97.3916" x="1205.9302" y="1386.4873">Order tableau</text><path d="M1447.8643,55 L1497.2393,55 C1502.2393,55 1502.2393,68.1484 1502.2393,68.1484 C1502.2393,68.1484 1502.2393,81.2969 1497.2393,81.2969 L1447.8643,81.2969 C1442.8643,81.2969 1442.8643,68.1484 1442.8643,68.1484 C1442.8643,68.1484 1442.8643,55 1447.8643,55 " fill="#E2E2F0" style="stroke:#181818;stroke-width:0.5;"/><path d="M1497.2393,55 C1492.2393,55 1492.2393,68.1484 1492.2393,68.1484 C1492.2393,81.2969 1497.2393,81.2969 1497.2393,81.2969 " fill="none" style="stroke:#181818;stroke-width:0.5;"/><text fill="#000000" font-family="sans-serif" font-size="14" lengthAdjust="spacing" textLength="39.375" x="1447.8643" y="72.9951">Kafka</text><path d="M1447.8643,1366.4922 L1497.2393,1366.4922 C1502.2393,1366.4922 1502.2393,1379.6406 1502.2393,1379.6406 C1502.2393,1379.6406 1502.2393,1392.7891 1497.2393,1392.7891 L1447.8643,1392.7891 C1442.8643,1392.7891 1442.8643,1379.6406 1442.8643,1379.6406 C1442.8643,1379.6406 1442.8643,1366.4922 1447.8643,1366.4922 " fill="#E2E2F0" style="stroke:#181818;stroke-width:0.5;"/><path d="M1497.2393,1366.4922 C1492.2393,1366.4922 1492.2393,1379.6406 1492.2393,1379.6406 C1492.2393,1392.7891 1497.2393,1392.7891 1497.2393,1392.7891 " fill="none" style="stroke:#181818;stroke-width:0.5;"/><text fill="#000000" font-family="sans-serif" font-size="14" lengthAdjust="spacing" textLength="39.375" x="1447.8643" y="1384.4873">Kafka</text><rect fill="#FFFFFF" height="1220.9297" style="stroke:#181818;stroke-width:1.0;" width="10" x="436.9502" y="136.5625"/><rect fill="#FFFFFF" height="87.3984" style="stroke:#181818;stroke-width:1.0;" width="10" x="650.3823" y="165.6953"/><rect fill="#FFFFFF" height="111.5313" style="stroke:#181818;stroke-width:1.0;" width="10" x="650.3823" y="833.2891"/><rect fill="#FFFFFF" height="59.1328" style="stroke:#181818;stroke-width:1.0;" width="10" x="650.3823" y="1090.0234"/><rect fill="#FFFFFF" height="149.3984" style="stroke:#181818;stroke-width:1.0;" width="10" x="650.3823" y="1193.0938"/><rect fill="#FFFFFF" height="59.1328" style="stroke:#181818;stroke-width:1.0;" width="10" x="766.8179" y="686.7578"/><rect fill="#FFFFFF" height="65.1328" style="stroke:#181818;stroke-width:1.0;" width="10" x="766.8179" y="973.9531"/><rect fill="#FFFFFF" height="29.1328" style="stroke:#181818;stroke-width:1.0;" width="10" x="890.937" y="194.8281"/><rect fill="#FFFFFF" height="376.3984" style="stroke:#181818;stroke-width:1.0;" width="10" x="890.937" y="289.2266"/><rect fill="#FFFFFF" height="126.5313" style="stroke:#181818;stroke-width:1.0;" width="10" x="1014.2598" y="400.7578"/><rect fill="#FFFFFF" height="53.2656" style="stroke:#181818;stroke-width:1.0;" width="10" x="1131.2524" y="862.4219"/><rect fill="#FFFFFF" height="30" style="stroke:#181818;stroke-width:1.0;" width="10" x="1131.2524" y="1276.3594"/><rect fill="#FFFFFF" height="28" style="stroke:#181818;stroke-width:1.0;" width="10" x="1249.626" y="1011.0859"/><rect fill="#FFFFFF" height="30" style="stroke:#181818;stroke-width:1.0;" width="10" x="1467.5518" y="715.8906"/><path d="M20,98.2969 L89.4512,98.2969 L89.4512,105.4297 L79.4512,115.4297 L20,115.4297 L20,98.2969 " fill="#EEEEEE" style="stroke:#000000;stroke-width:1.5;"/><rect fill="none" height="162.7969" style="stroke:#000000;stroke-width:1.5;" width="944.9448" x="20" y="98.2969"/><text fill="#000000" font-family="sans-serif" font-size="13" font-weight="bold" lengthAdjust="spacing" textLength="24.4512" x="35" y="111.3638">opt</text><text fill="#000000" font-family="sans-serif" font-size="11" font-weight="bold" lengthAdjust="spacing" textLength="242.5371" x="104.4512" y="110.5073">[&#1040;&#1074;&#1090;&#1086;&#1088;&#1080;&#1079;&#1072;&#1094;&#1080;&#1103; &#1082;&#1083;&#1080;&#1077;&#1085;&#1090;&#1072; &#1074; &#1087;&#1088;&#1080;&#1083;&#1086;&#1078;&#1077;&#1085;&#1080;&#1080;]</text><polygon fill="#181818" points="424.9502,132.5625,434.9502,136.5625,424.9502,140.5625,428.9502,136.5625" style="stroke:#181818;stroke-width:1.0;"/><line style="stroke:#181818;stroke-width:1.0;" x1="67.002" x2="430.9502" y1="136.5625" y2="136.5625"/><text fill="#000000" font-family="sans-serif" font-size="13" font-weight="bold" lengthAdjust="spacing" textLength="20.9282" x="74.002" y="131.4966">[1]</text><text fill="#000000" font-family="sans-serif" font-size="13" lengthAdjust="spacing" textLength="143.2666" x="98.9302" y="131.4966">&#1047;&#1072;&#1081;&#1090;&#1080; &#1074; &#1087;&#1088;&#1080;&#1083;&#1086;&#1078;&#1077;&#1085;&#1080;&#1080;</text><polygon fill="#181818" points="638.3823,161.6953,648.3823,165.6953,638.3823,169.6953,642.3823,165.6953" style="stroke:#181818;stroke-width:1.0;"/><line style="stroke:#181818;stroke-width:1.0;" x1="446.9502" x2="644.3823" y1="165.6953" y2="165.6953"/><text fill="#000000" font-family="sans-serif" font-size="13" font-weight="bold" lengthAdjust="spacing" textLength="20.9282" x="453.9502" y="160.6294">[2]</text><text fill="#000000" font-family="sans-serif" font-size="13" lengthAdjust="spacing" textLength="88.7783" x="478.8784" y="160.6294">&#1040;&#1074;&#1090;&#1086;&#1088;&#1080;&#1079;&#1072;&#1094;&#1080;&#1103;</text><polygon fill="#181818" points="878.937,190.8281,888.937,194.8281,878.937,198.8281,882.937,194.8281" style="stroke:#181818;stroke-width:1.0;"/><line style="stroke:#181818;stroke-width:1.0;" x1="660.3823" x2="884.937" y1="194.8281" y2="194.8281"/><text fill="#000000" font-family="sans-serif" font-size="13" font-weight="bold" lengthAdjust="spacing" textLength="20.9282" x="667.3823" y="189.7622">[3]</text><text fill="#000000" font-family="sans-serif" font-size="13" lengthAdjust="spacing" textLength="121.7544" x="692.3105" y="189.7622">&#1055;&#1088;&#1086;&#1074;&#1077;&#1088;&#1082;&#1072; &#1076;&#1072;&#1085;&#1085;&#1099;&#1093;</text><polygon fill="#181818" points="671.3823,219.9609,661.3823,223.9609,671.3823,227.9609,667.3823,223.9609" style="stroke:#181818;stroke-width:1.0;"/><line style="stroke:#181818;stroke-width:1.0;" x1="665.3823" x2="894.937" y1="223.9609" y2="223.9609"/><text fill="#000000" font-family="sans-serif" font-size="13" font-weight="bold" lengthAdjust="spacing" textLength="20.9282" x="677.3823" y="218.895">[4]</text><text fill="#000000" font-family="sans-serif" font-size="13" lengthAdjust="spacing" textLength="40.2441" x="702.3105" y="218.895">&#1058;&#1086;&#1082;&#1077;&#1085;</text><polygon fill="#181818" points="457.9502,249.0938,447.9502,253.0938,457.9502,257.0938,453.9502,253.0938" style="stroke:#181818;stroke-width:1.0;"/><line style="stroke:#181818;stroke-width:1.0;" x1="451.9502" x2="654.3823" y1="253.0938" y2="253.0938"/><text fill="#000000" font-family="sans-serif" font-size="13" font-weight="bold" lengthAdjust="spacing" textLength="20.9282" x="463.9502" y="248.0278">[5]</text><text fill="#000000" font-family="sans-serif" font-size="13" lengthAdjust="spacing" textLength="101.0103" x="488.8784" y="248.0278">&#1058;&#1086;&#1082;&#1077;&#1085; &#1087;&#1086;&#1083;&#1091;&#1095;&#1077;&#1085;</text><polygon fill="#181818" points="878.937,285.2266,888.937,289.2266,878.937,293.2266,882.937,289.2266" style="stroke:#181818;stroke-width:1.0;"/><line style="stroke:#181818;stroke-width:1.0;" x1="446.9502" x2="884.937" y1="289.2266" y2="289.2266"/><text fill="#000000" font-family="sans-serif" font-size="13" font-weight="bold" lengthAdjust="spacing" textLength="20.9282" x="453.9502" y="284.1606">[6]</text><text fill="#000000" font-family="sans-serif" font-size="13" lengthAdjust="spacing" textLength="230.1025" x="478.8784" y="284.1606">&#1055;&#1088;&#1086;&#1074;&#1077;&#1088;&#1082;&#1072; &#1088;&#1077;&#1075;&#1080;&#1089;&#1090;&#1088;&#1072;&#1094;&#1080;&#1080; &#1074; &#1089;&#1080;&#1089;&#1090;&#1077;&#1084;&#1077;</text><path d="M10,304.2266 L74.4429,304.2266 L74.4429,311.3594 L64.4429,321.3594 L10,321.3594 L10,304.2266 " fill="#EEEEEE" style="stroke:#000000;stroke-width:1.5;"/><rect fill="none" height="354.3984" style="stroke:#000000;stroke-width:1.5;" width="1083.5747" x="10" y="304.2266"/><text fill="#000000" font-family="sans-serif" font-size="13" font-weight="bold" lengthAdjust="spacing" textLength="19.4429" x="25" y="317.2935">alt</text><text fill="#000000" font-family="sans-serif" font-size="11" font-weight="bold" lengthAdjust="spacing" textLength="168.5718" x="89.4429" y="316.437">[&#1050;&#1083;&#1080;&#1077;&#1085;&#1090; &#1079;&#1072;&#1088;&#1077;&#1075;&#1080;&#1089;&#1090;&#1088;&#1080;&#1088;&#1086;&#1074;&#1072;&#1085;]</text><polygon fill="#181818" points="457.9502,338.4922,447.9502,342.4922,457.9502,346.4922,453.9502,342.4922" style="stroke:#181818;stroke-width:1.0;"/><line style="stroke:#181818;stroke-width:1.0;" x1="451.9502" x2="889.937" y1="342.4922" y2="342.4922"/><text fill="#000000" font-family="sans-serif" font-size="13" font-weight="bold" lengthAdjust="spacing" textLength="20.9282" x="463.9502" y="337.4263">[7]</text><text fill="#000000" font-family="sans-serif" font-size="13" lengthAdjust="spacing" textLength="130.7363" x="488.8784" y="337.4263">&#1041;&#1086;&#1085;&#1091;&#1089;&#1099; &#1079;&#1072;&#1075;&#1088;&#1091;&#1078;&#1077;&#1085;&#1099;</text><polygon fill="#181818" points="424.9502,367.625,434.9502,371.625,424.9502,375.625,428.9502,371.625" style="stroke:#181818;stroke-width:1.0;"/><line style="stroke:#181818;stroke-width:1.0;" x1="67.002" x2="430.9502" y1="371.625" y2="371.625"/><text fill="#000000" font-family="sans-serif" font-size="13" font-weight="bold" lengthAdjust="spacing" textLength="20.9282" x="74.002" y="366.5591">[8]</text><text fill="#000000" font-family="sans-serif" font-size="13" lengthAdjust="spacing" textLength="294.3345" x="98.9302" y="366.5591">&#1042;&#1099;&#1073;&#1088;&#1072;&#1090;&#1100; &#1079;&#1072;&#1082;&#1072;&#1079; &#1080;&#1079; &#1080;&#1089;&#1090;&#1086;&#1088;&#1080;&#1080; &#1076;&#1083;&#1103; &#1087;&#1086;&#1074;&#1090;&#1086;&#1088;&#1077;&#1085;&#1080;&#1103;</text><polygon fill="#181818" points="1002.2598,396.7578,1012.2598,400.7578,1002.2598,404.7578,1006.2598,400.7578" style="stroke:#181818;stroke-width:1.0;"/><line style="stroke:#181818;stroke-width:1.0;" x1="446.9502" x2="1008.2598" y1="400.7578" y2="400.7578"/><text fill="#000000" font-family="sans-serif" font-size="13" font-weight="bold" lengthAdjust="spacing" textLength="20.9282" x="453.9502" y="395.6919">[9]</text><text fill="#000000" font-family="sans-serif" font-size="13" lengthAdjust="spacing" textLength="320.0869" x="478.8784" y="395.6919">&#1055;&#1088;&#1086;&#1074;&#1077;&#1088;&#1082;&#1072; &#1076;&#1086;&#1089;&#1090;&#1091;&#1087;&#1085;&#1086;&#1089;&#1090;&#1080; &#1073;&#1083;&#1102;&#1076; &#1080;&#1079; &#1079;&#1072;&#1082;&#1072;&#1079;&#1072; &#1074; &#1084;&#1077;&#1085;&#1102;</text><polygon fill="#181818" points="457.9502,425.8906,447.9502,429.8906,457.9502,433.8906,453.9502,429.8906" style="stroke:#181818;stroke-width:1.0;"/><line style="stroke:#181818;stroke-width:1.0;" x1="451.9502" x2="1013.2598" y1="429.8906" y2="429.8906"/><text fill="#000000" font-family="sans-serif" font-size="13" font-weight="bold" lengthAdjust="spacing" textLength="29.9736" x="463.9502" y="424.8247">[10]</text><text fill="#000000" font-family="sans-serif" font-size="13" lengthAdjust="spacing" textLength="167.813" x="497.9238" y="424.8247">&#1057;&#1087;&#1080;&#1089;&#1086;&#1082; &#1076;&#1086;&#1089;&#1090;&#1091;&#1087;&#1085;&#1099;&#1093; &#1073;&#1083;&#1102;&#1076;</text><path d="M20,444.8906 L89.4512,444.8906 L89.4512,452.0234 L79.4512,462.0234 L20,462.0234 L20,444.8906 " fill="#EEEEEE" style="stroke:#000000;stroke-width:1.5;"/><rect fill="none" height="75.3984" style="stroke:#000000;stroke-width:1.5;" width="1063.5747" x="20" y="444.8906"/><text fill="#000000" font-family="sans-serif" font-size="13" font-weight="bold" lengthAdjust="spacing" textLength="24.4512" x="35" y="457.9575">opt</text><text fill="#000000" font-family="sans-serif" font-size="11" font-weight="bold" lengthAdjust="spacing" textLength="208.0708" x="104.4512" y="457.1011">[&#1053;&#1077;&#1082;&#1086;&#1090;&#1086;&#1088;&#1099;&#1077; &#1073;&#1083;&#1102;&#1076;&#1072; &#1085;&#1077;&#1076;&#1086;&#1089;&#1090;&#1091;&#1087;&#1085;&#1099;]</text><polygon fill="#181818" points="457.9502,479.1563,447.9502,483.1563,457.9502,487.1563,453.9502,483.1563" style="stroke:#181818;stroke-width:1.0;"/><line style="stroke:#181818;stroke-width:1.0;" x1="451.9502" x2="1013.2598" y1="483.1563" y2="483.1563"/><text fill="#000000" font-family="sans-serif" font-size="13" font-weight="bold" lengthAdjust="spacing" textLength="29.9736" x="463.9502" y="478.0903">[11]</text><text fill="#000000" font-family="sans-serif" font-size="13" lengthAdjust="spacing" textLength="284.4385" x="497.9238" y="478.0903">&#1057;&#1087;&#1080;&#1089;&#1086;&#1082; &#1085;&#1077;&#1076;&#1086;&#1089;&#1090;&#1091;&#1087;&#1085;&#1099;&#1093; &#1073;&#1083;&#1102;&#1076; &#1080; &#1080;&#1093; &#1072;&#1085;&#1072;&#1083;&#1086;&#1075;&#1086;&#1074;</text><polygon fill="#181818" points="424.9502,508.2891,434.9502,512.2891,424.9502,516.2891,428.9502,512.2891" style="stroke:#181818;stroke-width:1.0;"/><line style="stroke:#181818;stroke-width:1.0;" x1="67.002" x2="430.9502" y1="512.2891" y2="512.2891"/><text fill="#000000" font-family="sans-serif" font-size="13" font-weight="bold" lengthAdjust="spacing" textLength="29.9736" x="74.002" y="507.2231">[12]</text><text fill="#000000" font-family="sans-serif" font-size="13" lengthAdjust="spacing" textLength="162.0684" x="107.9756" y="507.2231">&#1057;&#1082;&#1086;&#1088;&#1088;&#1077;&#1082;&#1090;&#1080;&#1088;&#1086;&#1074;&#1072;&#1090;&#1100; &#1079;&#1072;&#1082;&#1072;&#1079;</text><line style="stroke:#000000;stroke-width:1.0;stroke-dasharray:2.0,2.0;" x1="10" x2="1093.5747" y1="528.2891" y2="528.2891"/><text fill="#000000" font-family="sans-serif" font-size="11" font-weight="bold" lengthAdjust="spacing" textLength="253.1182" x="15" y="538.4995">[&#1050;&#1083;&#1080;&#1077;&#1085;&#1090; &#1085;&#1077; &#1079;&#1072;&#1088;&#1077;&#1075;&#1080;&#1089;&#1090;&#1088;&#1080;&#1088;&#1086;&#1074;&#1072;&#1085; &#1074; &#1089;&#1080;&#1089;&#1090;&#1077;&#1084;&#1077;]</text><polygon fill="#181818" points="78.002,559.2266,68.002,563.2266,78.002,567.2266,74.002,563.2266" style="stroke:#181818;stroke-width:1.0;"/><line style="stroke:#181818;stroke-width:1.0;" x1="72.002" x2="435.9502" y1="563.2266" y2="563.2266"/><text fill="#000000" font-family="sans-serif" font-size="13" font-weight="bold" lengthAdjust="spacing" textLength="29.9736" x="84.002" y="558.1606">[13]</text><text fill="#000000" font-family="sans-serif" font-size="13" lengthAdjust="spacing" textLength="311.9746" x="117.9756" y="558.1606">&#1055;&#1088;&#1077;&#1076;&#1083;&#1086;&#1078;&#1077;&#1085;&#1080;&#1077; &#1079;&#1072;&#1088;&#1077;&#1075;&#1080;&#1089;&#1090;&#1088;&#1080;&#1088;&#1086;&#1074;&#1072;&#1090;&#1100;&#1089;&#1103; &#1074; &#1089;&#1080;&#1089;&#1090;&#1077;&#1084;&#1077;</text><polygon fill="#181818" points="424.9502,588.3594,434.9502,592.3594,424.9502,596.3594,428.9502,592.3594" style="stroke:#181818;stroke-width:1.0;"/><line style="stroke:#181818;stroke-width:1.0;" x1="67.002" x2="430.9502" y1="592.3594" y2="592.3594"/><text fill="#000000" font-family="sans-serif" font-size="13" font-weight="bold" lengthAdjust="spacing" textLength="29.9736" x="74.002" y="587.2935">[14]</text><text fill="#000000" font-family="sans-serif" font-size="13" lengthAdjust="spacing" textLength="225.6909" x="107.9756" y="587.2935">&#1042;&#1074;&#1077;&#1089;&#1090;&#1080; &#1076;&#1072;&#1085;&#1085;&#1099;&#1077; &#1076;&#1083;&#1103; &#1088;&#1077;&#1075;&#1080;&#1089;&#1090;&#1088;&#1072;&#1094;&#1080;&#1080;</text><polygon fill="#181818" points="878.937,617.4922,888.937,621.4922,878.937,625.4922,882.937,621.4922" style="stroke:#181818;stroke-width:1.0;"/><line style="stroke:#181818;stroke-width:1.0;" x1="446.9502" x2="884.937" y1="621.4922" y2="621.4922"/><text fill="#000000" font-family="sans-serif" font-size="13" font-weight="bold" lengthAdjust="spacing" textLength="29.9736" x="453.9502" y="616.4263">[15]</text><text fill="#000000" font-family="sans-serif" font-size="13" lengthAdjust="spacing" textLength="244.1563" x="487.9238" y="616.4263">&#1055;&#1077;&#1088;&#1077;&#1076;&#1072;&#1090;&#1100; &#1076;&#1072;&#1085;&#1085;&#1099;&#1077; &#1076;&#1083;&#1103; &#1088;&#1077;&#1075;&#1080;&#1089;&#1090;&#1088;&#1072;&#1094;&#1080;&#1080;</text><polygon fill="#181818" points="457.9502,646.625,447.9502,650.625,457.9502,654.625,453.9502,650.625" style="stroke:#181818;stroke-width:1.0;"/><line style="stroke:#181818;stroke-width:1.0;" x1="451.9502" x2="889.937" y1="650.625" y2="650.625"/><text fill="#000000" font-family="sans-serif" font-size="13" font-weight="bold" lengthAdjust="spacing" textLength="29.9736" x="463.9502" y="645.5591">[16]</text><text fill="#000000" font-family="sans-serif" font-size="13" lengthAdjust="spacing" textLength="204.1914" x="497.9238" y="645.5591">&#1055;&#1086;&#1076;&#1090;&#1074;&#1077;&#1088;&#1078;&#1076;&#1077;&#1085;&#1080;&#1077; &#1088;&#1077;&#1075;&#1080;&#1089;&#1090;&#1088;&#1072;&#1094;&#1080;&#1080;</text><polygon fill="#181818" points="754.8179,682.7578,764.8179,686.7578,754.8179,690.7578,758.8179,686.7578" style="stroke:#181818;stroke-width:1.0;"/><line style="stroke:#181818;stroke-width:1.0;" x1="446.9502" x2="760.8179" y1="686.7578" y2="686.7578"/><text fill="#000000" font-family="sans-serif" font-size="13" font-weight="bold" lengthAdjust="spacing" textLength="29.9736" x="453.9502" y="681.6919">[17]</text><text fill="#000000" font-family="sans-serif" font-size="13" lengthAdjust="spacing" textLength="97.8745" x="487.9238" y="681.6919">&#1057;&#1086;&#1079;&#1076;&#1072;&#1090;&#1100; &#1079;&#1072;&#1082;&#1072;&#1079;</text><polygon fill="#181818" points="1455.5518,711.8906,1465.5518,715.8906,1455.5518,719.8906,1459.5518,715.8906" style="stroke:#181818;stroke-width:1.0;"/><line style="stroke:#181818;stroke-width:1.0;" x1="776.8179" x2="1461.5518" y1="715.8906" y2="715.8906"/><text fill="#000000" font-family="sans-serif" font-size="13" font-weight="bold" lengthAdjust="spacing" textLength="29.9736" x="783.8179" y="710.8247">[18]</text><text fill="#000000" font-family="sans-serif" font-size="13" lengthAdjust="spacing" textLength="199.2212" x="817.7915" y="710.8247">&#1057;&#1086;&#1086;&#1073;&#1097;&#1080;&#1090;&#1100; &#1086; &#1089;&#1086;&#1079;&#1076;&#1072;&#1085;&#1080;&#1080; &#1079;&#1072;&#1082;&#1072;&#1079;&#1072;</text><polygon fill="#181818" points="78.002,771.0234,68.002,775.0234,78.002,779.0234,74.002,775.0234" style="stroke:#181818;stroke-width:1.0;"/><line style="stroke:#181818;stroke-width:1.0;" x1="72.002" x2="435.9502" y1="775.0234" y2="775.0234"/><text fill="#000000" font-family="sans-serif" font-size="13" font-weight="bold" lengthAdjust="spacing" textLength="29.9736" x="84.002" y="769.9575">[19]</text><text fill="#000000" font-family="sans-serif" font-size="13" lengthAdjust="spacing" textLength="174.6685" x="117.9756" y="769.9575">&#1055;&#1086;&#1082;&#1072;&#1079;&#1072;&#1090;&#1100; &#1080;&#1090;&#1086;&#1075;&#1086;&#1074;&#1099;&#1081; &#1079;&#1072;&#1082;&#1072;&#1079;</text><polygon fill="#181818" points="424.9502,800.1563,434.9502,804.1563,424.9502,808.1563,428.9502,804.1563" style="stroke:#181818;stroke-width:1.0;"/><line style="stroke:#181818;stroke-width:1.0;" x1="67.002" x2="430.9502" y1="804.1563" y2="804.1563"/><text fill="#000000" font-family="sans-serif" font-size="13" font-weight="bold" lengthAdjust="spacing" textLength="29.9736" x="74.002" y="799.0903">[20]</text><text fill="#000000" font-family="sans-serif" font-size="13" lengthAdjust="spacing" textLength="108.0054" x="107.9756" y="799.0903">&#1054;&#1087;&#1083;&#1072;&#1090;&#1080;&#1090;&#1100; &#1079;&#1072;&#1082;&#1072;&#1079;</text><polygon fill="#181818" points="638.3823,829.2891,648.3823,833.2891,638.3823,837.2891,642.3823,833.2891" style="stroke:#181818;stroke-width:1.0;"/><line style="stroke:#181818;stroke-width:1.0;" x1="446.9502" x2="644.3823" y1="833.2891" y2="833.2891"/><text fill="#000000" font-family="sans-serif" font-size="13" font-weight="bold" lengthAdjust="spacing" textLength="29.9736" x="453.9502" y="828.2231">[21]</text><text fill="#000000" font-family="sans-serif" font-size="13" lengthAdjust="spacing" textLength="150.4585" x="487.9238" y="828.2231">&#1053;&#1072;&#1095;&#1072;&#1090;&#1100; &#1086;&#1087;&#1083;&#1072;&#1090;&#1091; &#1079;&#1072;&#1082;&#1072;&#1079;&#1072;</text><polygon fill="#181818" points="1119.2524,858.4219,1129.2524,862.4219,1119.2524,866.4219,1123.2524,862.4219" style="stroke:#181818;stroke-width:1.0;"/><line style="stroke:#181818;stroke-width:1.0;" x1="660.3823" x2="1125.2524" y1="862.4219" y2="862.4219"/><text fill="#000000" font-family="sans-serif" font-size="13" font-weight="bold" lengthAdjust="spacing" textLength="29.9736" x="667.3823" y="857.356">[22]</text><text fill="#000000" font-family="sans-serif" font-size="13" lengthAdjust="spacing" textLength="138.271" x="701.356" y="857.356">&#1055;&#1088;&#1086;&#1074;&#1077;&#1076;&#1077;&#1085;&#1080;&#1077; &#1086;&#1087;&#1083;&#1072;&#1090;&#1099;</text><path d="M371.3701,877.4219 L435.813,877.4219 L435.813,884.5547 L425.813,894.5547 L371.3701,894.5547 L371.3701,877.4219 " fill="#EEEEEE" style="stroke:#000000;stroke-width:1.5;"/><rect fill="none" height="473.0703" style="stroke:#000000;stroke-width:1.5;" width="1140.8691" x="371.3701" y="877.4219"/><text fill="#000000" font-family="sans-serif" font-size="13" font-weight="bold" lengthAdjust="spacing" textLength="19.4429" x="386.3701" y="890.4888">alt</text><text fill="#000000" font-family="sans-serif" font-size="11" font-weight="bold" lengthAdjust="spacing" textLength="122.1494" x="450.813" y="889.6323">[&#1059;&#1089;&#1087;&#1077;&#1096;&#1085;&#1072;&#1103; &#1086;&#1087;&#1083;&#1072;&#1090;&#1072;]</text><polygon fill="#181818" points="671.3823,911.6875,661.3823,915.6875,671.3823,919.6875,667.3823,915.6875" style="stroke:#181818;stroke-width:1.0;"/><line style="stroke:#181818;stroke-width:1.0;" x1="665.3823" x2="1135.2524" y1="915.6875" y2="915.6875"/><text fill="#000000" font-family="sans-serif" font-size="13" font-weight="bold" lengthAdjust="spacing" textLength="29.9736" x="677.3823" y="910.6216">[23]</text><text fill="#000000" font-family="sans-serif" font-size="13" lengthAdjust="spacing" textLength="114.3784" x="711.356" y="910.6216">&#1054;&#1087;&#1083;&#1072;&#1090;&#1072; &#1091;&#1089;&#1087;&#1077;&#1096;&#1085;&#1072;</text><polygon fill="#181818" points="457.9502,940.8203,447.9502,944.8203,457.9502,948.8203,453.9502,944.8203" style="stroke:#181818;stroke-width:1.0;"/><line style="stroke:#181818;stroke-width:1.0;" x1="451.9502" x2="654.3823" y1="944.8203" y2="944.8203"/><text fill="#000000" font-family="sans-serif" font-size="13" font-weight="bold" lengthAdjust="spacing" textLength="29.9736" x="463.9502" y="939.7544">[24]</text><text fill="#000000" font-family="sans-serif" font-size="13" lengthAdjust="spacing" textLength="129.4351" x="497.9238" y="939.7544">&#1057;&#1086;&#1086;&#1073;&#1097;&#1080;&#1090;&#1100; &#1082;&#1083;&#1080;&#1077;&#1085;&#1090;&#1091;</text><polygon fill="#181818" points="1460.5518,969.9531,1470.5518,973.9531,1460.5518,977.9531,1464.5518,973.9531" style="stroke:#181818;stroke-width:1.0;"/><line style="stroke:#181818;stroke-width:1.0;" x1="776.8179" x2="1466.5518" y1="973.9531" y2="973.9531"/><text fill="#000000" font-family="sans-serif" font-size="13" font-weight="bold" lengthAdjust="spacing" textLength="29.9736" x="783.8179" y="968.8872">[25]</text><text fill="#000000" font-family="sans-serif" font-size="13" lengthAdjust="spacing" textLength="164.9883" x="817.7915" y="968.8872">&#1054;&#1073;&#1085;&#1086;&#1074;&#1080;&#1090;&#1100; &#1089;&#1090;&#1072;&#1090;&#1091;&#1089; &#1079;&#1072;&#1082;&#1072;&#1079;&#1072;</text><line style="stroke:#181818;stroke-width:1.0;" x1="1259.626" x2="1301.626" y1="1003.0859" y2="1003.0859"/><line style="stroke:#181818;stroke-width:1.0;" x1="1301.626" x2="1301.626" y1="1003.0859" y2="1016.0859"/><line style="stroke:#181818;stroke-width:1.0;" x1="1260.626" x2="1301.626" y1="1016.0859" y2="1016.0859"/><polygon fill="#181818" points="1270.626,1012.0859,1260.626,1016.0859,1270.626,1020.0859,1266.626,1016.0859" style="stroke:#181818;stroke-width:1.0;"/><text fill="#000000" font-family="sans-serif" font-size="13" font-weight="bold" lengthAdjust="spacing" textLength="29.9736" x="1266.626" y="998.02">[26]</text><text fill="#000000" font-family="sans-serif" font-size="13" lengthAdjust="spacing" textLength="169.9521" x="1300.5996" y="998.02">&#1055;&#1086;&#1082;&#1072;&#1079;&#1072;&#1090;&#1100; &#1079;&#1072;&#1082;&#1072;&#1079; &#1085;&#1072; &#1090;&#1072;&#1073;&#1083;&#1086;</text><line style="stroke:#000000;stroke-width:1.0;stroke-dasharray:2.0,2.0;" x1="371.3701" x2="1512.2393" y1="1055.0859" y2="1055.0859"/><text fill="#000000" font-family="sans-serif" font-size="11" font-weight="bold" lengthAdjust="spacing" textLength="129.1963" x="376.3701" y="1065.2964">[&#1054;&#1087;&#1083;&#1072;&#1090;&#1072; &#1085;&#1077; &#1087;&#1088;&#1086;&#1096;&#1083;&#1072;]</text><polygon fill="#181818" points="671.3823,1086.0234,661.3823,1090.0234,671.3823,1094.0234,667.3823,1090.0234" style="stroke:#181818;stroke-width:1.0;"/><line style="stroke:#181818;stroke-width:1.0;" x1="665.3823" x2="1135.2524" y1="1090.0234" y2="1090.0234"/><text fill="#000000" font-family="sans-serif" font-size="13" font-weight="bold" lengthAdjust="spacing" textLength="29.9736" x="677.3823" y="1084.9575">[27]</text><text fill="#000000" font-family="sans-serif" font-size="13" lengthAdjust="spacing" textLength="130.876" x="711.356" y="1084.9575">&#1054;&#1087;&#1083;&#1072;&#1090;&#1072; &#1085;&#1077;&#1091;&#1089;&#1087;&#1077;&#1096;&#1085;&#1072;</text><polygon fill="#181818" points="457.9502,1145.1563,447.9502,1149.1563,457.9502,1153.1563,453.9502,1149.1563" style="stroke:#181818;stroke-width:1.0;"/><line style="stroke:#181818;stroke-width:1.0;" x1="451.9502" x2="654.3823" y1="1149.1563" y2="1149.1563"/><text fill="#000000" font-family="sans-serif" font-size="13" font-weight="bold" lengthAdjust="spacing" textLength="29.9736" x="463.9502" y="1144.0903">[28]</text><text fill="#000000" font-family="sans-serif" font-size="13" lengthAdjust="spacing" textLength="129.4351" x="497.9238" y="1144.0903">&#1057;&#1086;&#1086;&#1073;&#1097;&#1080;&#1090;&#1100; &#1082;&#1083;&#1080;&#1077;&#1085;&#1090;&#1091;</text><line style="stroke:#000000;stroke-width:1.0;stroke-dasharray:2.0,2.0;" x1="371.3701" x2="1512.2393" y1="1158.1563" y2="1158.1563"/><text fill="#000000" font-family="sans-serif" font-size="11" font-weight="bold" lengthAdjust="spacing" textLength="118.9858" x="376.3701" y="1168.3667">[&#1041;&#1072;&#1085;&#1082; &#1085;&#1077;&#1076;&#1086;&#1089;&#1090;&#1091;&#1087;&#1077;&#1085;]</text><polygon fill="#181818" points="671.3823,1189.0938,661.3823,1193.0938,671.3823,1197.0938,667.3823,1193.0938" style="stroke:#181818;stroke-width:1.0;"/><line style="stroke:#181818;stroke-width:1.0;" x1="665.3823" x2="1135.2524" y1="1193.0938" y2="1193.0938"/><text fill="#000000" font-family="sans-serif" font-size="13" font-weight="bold" lengthAdjust="spacing" textLength="29.9736" x="677.3823" y="1188.0278">[29]</text><text fill="#000000" font-family="sans-serif" font-size="13" lengthAdjust="spacing" textLength="60.2964" x="711.356" y="1188.0278">500 code</text><path d="M594.0581,1238.0938 L670.6821,1238.0938 L670.6821,1245.2266 L660.6821,1255.2266 L594.0581,1255.2266 L594.0581,1238.0938 " fill="#EEEEEE" style="stroke:#000000;stroke-width:1.5;"/><rect fill="none" height="76.2656" style="stroke:#000000;stroke-width:1.5;" width="604.8721" x="594.0581" y="1238.0938"/><text fill="#000000" font-family="sans-serif" font-size="13" font-weight="bold" lengthAdjust="spacing" textLength="31.624" x="609.0581" y="1251.1606">loop</text><text fill="#000000" font-family="sans-serif" font-size="11" font-weight="bold" lengthAdjust="spacing" textLength="186.2588" x="685.6821" y="1250.3042">[&#1055;&#1086;&#1074;&#1090;&#1086;&#1088;&#1085;&#1072;&#1103; &#1087;&#1086;&#1087;&#1099;&#1090;&#1082;&#1072; &#1086;&#1087;&#1083;&#1072;&#1090;&#1099;]</text><polygon fill="#181818" points="1119.2524,1272.3594,1129.2524,1276.3594,1119.2524,1280.3594,1123.2524,1276.3594" style="stroke:#181818;stroke-width:1.0;"/><line style="stroke:#181818;stroke-width:1.0;" x1="660.3823" x2="1125.2524" y1="1276.3594" y2="1276.3594"/><text fill="#000000" font-family="sans-serif" font-size="13" font-weight="bold" lengthAdjust="spacing" textLength="29.9736" x="667.3823" y="1271.2935">[30]</text><text fill="#000000" font-family="sans-serif" font-size="13" lengthAdjust="spacing" textLength="124.979" x="701.356" y="1271.2935">&#1055;&#1086;&#1074;&#1090;&#1086;&#1088;&#1080;&#1090;&#1100; &#1086;&#1087;&#1083;&#1072;&#1090;&#1091;</text><polygon fill="#181818" points="457.9502,1338.4922,447.9502,1342.4922,457.9502,1346.4922,453.9502,1342.4922" style="stroke:#181818;stroke-width:1.0;"/><line style="stroke:#181818;stroke-width:1.0;" x1="451.9502" x2="654.3823" y1="1342.4922" y2="1342.4922"/><text fill="#000000" font-family="sans-serif" font-size="13" font-weight="bold" lengthAdjust="spacing" textLength="29.9736" x="463.9502" y="1337.4263">[31]</text><text fill="#000000" font-family="sans-serif" font-size="13" lengthAdjust="spacing" textLength="109.1099" x="497.9238" y="1337.4263">&#1054;&#1096;&#1080;&#1073;&#1082;&#1072; &#1086;&#1087;&#1083;&#1072;&#1090;&#1099;</text><!--SRC=[hLRBRjD05DtxAqRP8tN31g5Aq0L2227H9MBXE9FAoiCXdhHqroI2We9QoWO9gQqAFz1NMZTft5-O-IFEdR7ZiUD4B5Z5dRcFSyyzzqvTJmHTLjdeXI9eyMw5kI7pd6hmaLNUyb2ulQxR5cnpDnIyLN4wRbVudj-XiygRRertsSksuDswwt7j6lXvcsSTdxrm1TznT_NzravPZ4tUtVRJ267UOgFfyxO8SpPUmUOrR_To1gs2mNEttSWPLCCo7CAjDhdRCpY4yw77UvnLNhdrXglF6dM7jsiCx3YEsnD1kzUgmerLdbRNtwszhpX1Hp3vNLwgWOpLdepahJnNdsMa3fcSo2aEndA6otCcBvbyq2PJ6SiREiTtv7ZiqJfOVCBaJtakxs0RBRLrFU5lWrnYFV39SMk7FLa28BD63s07QoyawrFOnV9IZl4x8MJNI3m3p97wb3c1SfZFK_o6ouI0E3LksvZ006FR03q-fsgezeikm096dGH-EI3yZEKLQkYh0RvrFOOLrJUdkB-NunnOjubE_CeePvg9VAGeIOHoa-8Cy2ESpe2shqRQJLwfFJKqnAjHsYAo_A56ya9Z6gXlnXQ8vIqZvba2pZGY8cAd90GY8ssGRYMQO-flBMj8h14FuJeptnJk0k4Ev7MIQvux4TUzHdkGaOAPQ5b5dY4Oy56F2XceyVFeHjB723Q1ZGQDciVpUyesmsqXml9K9SPMEaQ5HNH06ZpNWhyYDcpMppIMFKtVXBX8-rZeWfQM9JOmm9iXB-XYHjMi54U9r1AzfksYakpPN1sHOEBii2IkhIqjWQJNyvcaq4P7vMEHdoIj8GANKFFlOUnvE0NiQ-0maho1Orhb4kS2xnZ715OGclx5eETwiL_PGWkTG0Der5E768Fs5PcqIyoqd6wJWlHqMGEG1SB6je0WhFKNxd9zrEjA-via4SdTg0-4tTb0hJQTGCDJSacnPLQvfNmCc_qqT9mwgU4IuFCbNStl18jyAyeeSyJBPfRV7r3qW8vzeK4YiStDaQTgxVAi0kpQeUrbirNDB_U5bbZFcneMLhpTonEC-apNOXormZKJgh-42rA3qAb5QQEijJkZ6X2FzecChH1YkGxoT_J6woLXqsAM1Bt1CPYPhY2GB0iasapy9q8DmYCj_fATIe-i1V3nsXhpWXfVWQGP11t3RFeo9QAXn-e1AtfWdY9RSZbzMfxHWiPpwimdfbLXqt02qY9qRo7RuZyDTWlzlm00]--></g></svg>