<svg xmlns="http://www.w3.org/2000/svg" xmlns:xlink="http://www.w3.org/1999/xlink" contentStyleType="text/css" height="1759px" preserveAspectRatio="none" style="width:1927px;height:1759px;background:#FFFFFF;" version="1.1" viewBox="0 0 1927 1759" width="1927px" zoomAndPan="magnify"><defs/><g><rect fill="#DDDDDD" height="1747.9844" style="stroke:#181818;stroke-width:0.5;" width="1536.7085" x="377.3701" y="6"/><text fill="#000000" font-family="sans-serif" font-size="13" font-weight="bold" lengthAdjust="spacing" textLength="140.1372" x="1075.6558" y="18.0669">Restaurant System</text><rect fill="#FFFFFF" height="1528.125" style="stroke:#181818;stroke-width:1.0;" width="10" x="436.9502" y="136.5625"/><rect fill="#FFFFFF" height="87.3984" style="stroke:#181818;stroke-width:1.0;" width="10" x="650.3823" y="165.6953"/><rect fill="#FFFFFF" height="111.5313" style="stroke:#181818;stroke-width:1.0;" width="10" x="650.3823" y="1140.4844"/><rect fill="#FFFFFF" height="59.1328" style="stroke:#181818;stroke-width:1.0;" width="10" x="650.3823" y="1397.2188"/><rect fill="#FFFFFF" height="149.3984" style="stroke:#181818;stroke-width:1.0;" width="10" x="650.3823" y="1500.2891"/><rect fill="#FFFFFF" height="59.1328" style="stroke:#181818;stroke-width:1.0;" width="10" x="766.8179" y="686.7578"/><rect fill="#FFFFFF" height="65.1328" style="stroke:#181818;stroke-width:1.0;" width="10" x="766.8179" y="1281.1484"/><rect fill="#FFFFFF" height="29.1328" style="stroke:#181818;stroke-width:1.0;" width="10" x="890.937" y="194.8281"/><rect fill="#FFFFFF" height="376.3984" style="stroke:#181818;stroke-width:1.0;" width="10" x="890.937" y="289.2266"/><rect fill="#FFFFFF" height="126.5313" style="stroke:#181818;stroke-width:1.0;" width="10" x="1014.2598" y="400.7578"/><rect fill="#FFFFFF" height="30" style="stroke:#181818;stroke-width:1.0;" width="10" x="1014.2598" y="1016.0859"/><rect fill="#FFFFFF" height="212.7969" style="stroke:#181818;stroke-width:1.0;" width="10" x="1288.6675" y="833.2891"/><rect fill="#FFFFFF" height="53.2656" style="stroke:#181818;stroke-width:1.0;" width="10" x="1539.0918" y="1169.6172"/><rect fill="#FFFFFF" height="30" style="stroke:#181818;stroke-width:1.0;" width="10" x="1539.0918" y="1583.5547"/><rect fill="#FFFFFF" height="28" style="stroke:#181818;stroke-width:1.0;" width="10" x="1657.4653" y="1318.2813"/><rect fill="#FFFFFF" height="30" style="stroke:#181818;stroke-width:1.0;" width="10" x="1875.3911" y="715.8906"/><rect fill="none" height="162.7969" style="stroke:#000000;stroke-width:1.5;" width="944.9448" x="20" y="98.2969"/><rect fill="none" height="354.3984" style="stroke:#000000;stroke-width:1.5;" width="1083.5747" x="10" y="304.2266"/><rect fill="none" height="75.3984" style="stroke:#000000;stroke-width:1.5;" width="1063.5747" x="20" y="444.8906"/><rect fill="none" height="176.6641" style="stroke:#000000;stroke-width:1.5;" width="1524.0918" x="20" y="877.4219"/><rect fill="none" height="473.0703" style="stroke:#000000;stroke-width:1.5;" width="1548.7085" x="371.3701" y="1184.6172"/><rect fill="none" height="76.2656" style="stroke:#000000;stroke-width:1.5;" width="1012.7114" x="594.0581" y="1545.2891"/><line style="stroke:#181818;stroke-width:0.5;stroke-dasharray:5.0,5.0;" x1="67" x2="67" y1="81.2969" y2="1674.6875"/><line style="stroke:#181818;stroke-width:0.5;stroke-dasharray:5.0,5.0;" x1="441.3701" x2="441.3701" y1="81.2969" y2="1674.6875"/><line style="stroke:#181818;stroke-width:0.5;stroke-dasharray:5.0,5.0;" x1="655.0581" x2="655.0581" y1="81.2969" y2="1674.6875"/><line style="stroke:#181818;stroke-width:0.5;stroke-dasharray:5.0,5.0;" x1="771.7065" x2="771.7065" y1="81.2969" y2="1674.6875"/><line style="stroke:#181818;stroke-width:0.5;stroke-dasharray:5.0,5.0;" x1="895.9292" x2="895.9292" y1="81.2969" y2="1674.6875"/><line style="stroke:#181818;stroke-width:0.5;stroke-dasharray:5.0,5.0;" x1="1018.9448" x2="1018.9448" y1="81.2969" y2="1674.6875"/><line style="stroke:#181818;stroke-width:0.5;stroke-dasharray:5.0,5.0;" x1="1293.1372" x2="1293.1372" y1="81.2969" y2="1674.6875"/><line style="stroke:#181818;stroke-width:0.5;stroke-dasharray:5.0,5.0;" x1="1543.4141" x2="1543.4141" y1="81.2969" y2="1674.6875"/><line style="stroke:#181818;stroke-width:0.5;stroke-dasharray:5.0,5.0;" x1="1661.7695" x2="1661.7695" y1="81.2969" y2="1674.6875"/><line style="stroke:#181818;stroke-width:0.5;stroke-dasharray:5.0,5.0;" x1="1879.7036" x2="1879.7036" y1="81.2969" y2="1674.6875"/><text fill="#000000" font-family="sans-serif" font-size="14" lengthAdjust="spacing" textLength="68.0039" x="30" y="77.9951">Customer</text><ellipse cx="67.002" cy="13.5" fill="#E2E2F0" rx="8" ry="8" style="stroke:#181818;stroke-width:0.5;"/><path d="M67.002,21.5 L67.002,48.5 M54.002,29.5 L80.002,29.5 M67.002,48.5 L54.002,63.5 M67.002,48.5 L80.002,63.5 " fill="none" style="stroke:#181818;stroke-width:0.5;"/><text fill="#000000" font-family="sans-serif" font-size="14" lengthAdjust="spacing" textLength="68.0039" x="30" y="1686.6826">Customer</text><ellipse cx="67.002" cy="1698.4844" fill="#E2E2F0" rx="8" ry="8" style="stroke:#181818;stroke-width:0.5;"/><path d="M67.002,1706.4844 L67.002,1733.4844 M54.002,1714.4844 L80.002,1714.4844 M67.002,1733.4844 L54.002,1748.4844 M67.002,1733.4844 L80.002,1748.4844 " fill="none" style="stroke:#181818;stroke-width:0.5;"/><rect fill="#E2E2F0" height="30.2969" rx="2.5" ry="2.5" style="stroke:#181818;stroke-width:0.5;" width="121.1602" x="381.3701" y="50"/><text fill="#000000" font-family="sans-serif" font-size="14" lengthAdjust="spacing" textLength="107.1602" x="388.3701" y="69.9951">Order Interface</text><rect fill="#E2E2F0" height="30.2969" rx="2.5" ry="2.5" style="stroke:#181818;stroke-width:0.5;" width="121.1602" x="381.3701" y="1673.6875"/><text fill="#000000" font-family="sans-serif" font-size="14" lengthAdjust="spacing" textLength="107.1602" x="388.3701" y="1693.6826">Order Interface</text><rect fill="#E2E2F0" height="30.2969" rx="2.5" ry="2.5" style="stroke:#181818;stroke-width:0.5;" width="102.6484" x="604.0581" y="50"/><text fill="#000000" font-family="sans-serif" font-size="14" lengthAdjust="spacing" textLength="88.6484" x="611.0581" y="69.9951">Api Gateway</text><rect fill="#E2E2F0" height="30.2969" rx="2.5" ry="2.5" style="stroke:#181818;stroke-width:0.5;" width="102.6484" x="604.0581" y="1673.6875"/><text fill="#000000" font-family="sans-serif" font-size="14" lengthAdjust="spacing" textLength="88.6484" x="611.0581" y="1693.6826">Api Gateway</text><rect fill="#E2E2F0" height="30.2969" rx="2.5" ry="2.5" style="stroke:#181818;stroke-width:0.5;" width="110.2227" x="716.7065" y="50"/><text fill="#000000" font-family="sans-serif" font-size="14" lengthAdjust="spacing" textLength="96.2227" x="723.7065" y="69.9951">Order Service</text><rect fill="#E2E2F0" height="30.2969" rx="2.5" ry="2.5" style="stroke:#181818;stroke-width:0.5;" width="110.2227" x="716.7065" y="1673.6875"/><text fill="#000000" font-family="sans-serif" font-size="14" lengthAdjust="spacing" textLength="96.2227" x="723.7065" y="1693.6826">Order Service</text><rect fill="#E2E2F0" height="30.2969" rx="2.5" ry="2.5" style="stroke:#181818;stroke-width:0.5;" width="118.0156" x="836.9292" y="50"/><text fill="#000000" font-family="sans-serif" font-size="14" lengthAdjust="spacing" textLength="104.0156" x="843.9292" y="69.9951">Clients Service</text><rect fill="#E2E2F0" height="30.2969" rx="2.5" ry="2.5" style="stroke:#181818;stroke-width:0.5;" width="118.0156" x="836.9292" y="1673.6875"/><text fill="#000000" font-family="sans-serif" font-size="14" lengthAdjust="spacing" textLength="104.0156" x="843.9292" y="1693.6826">Clients Service</text><rect fill="#E2E2F0" height="30.2969" rx="2.5" ry="2.5" style="stroke:#181818;stroke-width:0.5;" width="108.6299" x="964.9448" y="50"/><text fill="#000000" font-family="sans-serif" font-size="14" lengthAdjust="spacing" textLength="94.6299" x="971.9448" y="69.9951">Menu Service</text><rect fill="#E2E2F0" height="30.2969" rx="2.5" ry="2.5" style="stroke:#181818;stroke-width:0.5;" width="108.6299" x="964.9448" y="1673.6875"/><text fill="#000000" font-family="sans-serif" font-size="14" lengthAdjust="spacing" textLength="94.6299" x="971.9448" y="1693.6826">Menu Service</text><rect fill="#E2E2F0" height="30.2969" rx="2.5" ry="2.5" style="stroke:#181818;stroke-width:0.5;" width="137.0605" x="1225.1372" y="50"/><text fill="#000000" font-family="sans-serif" font-size="14" lengthAdjust="spacing" textLength="123.0605" x="1232.1372" y="69.9951">Inventory Service</text><rect fill="#E2E2F0" height="30.2969" rx="2.5" ry="2.5" style="stroke:#181818;stroke-width:0.5;" width="137.0605" x="1225.1372" y="1673.6875"/><text fill="#000000" font-family="sans-serif" font-size="14" lengthAdjust="spacing" textLength="123.0605" x="1232.1372" y="1693.6826">Inventory Service</text><rect fill="#E2E2F0" height="30.2969" rx="2.5" ry="2.5" style="stroke:#181818;stroke-width:0.5;" width="105.3555" x="1491.4141" y="50"/><text fill="#000000" font-family="sans-serif" font-size="14" lengthAdjust="spacing" textLength="91.3555" x="1498.4141" y="69.9951">Bank Service</text><rect fill="#E2E2F0" height="30.2969" rx="2.5" ry="2.5" style="stroke:#181818;stroke-width:0.5;" width="105.3555" x="1491.4141" y="1673.6875"/><text fill="#000000" font-family="sans-serif" font-size="14" lengthAdjust="spacing" textLength="91.3555" x="1498.4141" y="1693.6826">Bank Service</text><rect fill="#E2E2F0" height="30.2969" rx="2.5" ry="2.5" style="stroke:#181818;stroke-width:0.5;" width="111.3916" x="1606.7695" y="50"/><text fill="#000000" font-family="sans-serif" font-size="14" lengthAdjust="spacing" textLength="97.3916" x="1613.7695" y="69.9951">Order tableau</text><rect fill="#E2E2F0" height="30.2969" rx="2.5" ry="2.5" style="stroke:#181818;stroke-width:0.5;" width="111.3916" x="1606.7695" y="1673.6875"/><text fill="#000000" font-family="sans-serif" font-size="14" lengthAdjust="spacing" textLength="97.3916" x="1613.7695" y="1693.6826">Order tableau</text><path d="M1855.7036,55 L1905.0786,55 C1910.0786,55 1910.0786,68.1484 1910.0786,68.1484 C1910.0786,68.1484 1910.0786,81.2969 1905.0786,81.2969 L1855.7036,81.2969 C1850.7036,81.2969 1850.7036,68.1484 1850.7036,68.1484 C1850.7036,68.1484 1850.7036,55 1855.7036,55 " fill="#E2E2F0" style="stroke:#181818;stroke-width:0.5;"/><path d="M1905.0786,55 C1900.0786,55 1900.0786,68.1484 1900.0786,68.1484 C1900.0786,81.2969 1905.0786,81.2969 1905.0786,81.2969 " fill="none" style="stroke:#181818;stroke-width:0.5;"/><text fill="#000000" font-family="sans-serif" font-size="14" lengthAdjust="spacing" textLength="39.375" x="1855.7036" y="72.9951">Kafka</text><path d="M1855.7036,1673.6875 L1905.0786,1673.6875 C1910.0786,1673.6875 1910.0786,1686.8359 1910.0786,1686.8359 C1910.0786,1686.8359 1910.0786,1699.9844 1905.0786,1699.9844 L1855.7036,1699.9844 C1850.7036,1699.9844 1850.7036,1686.8359 1850.7036,1686.8359 C1850.7036,1686.8359 1850.7036,1673.6875 1855.7036,1673.6875 " fill="#E2E2F0" style="stroke:#181818;stroke-width:0.5;"/><path d="M1905.0786,1673.6875 C1900.0786,1673.6875 1900.0786,1686.8359 1900.0786,1686.8359 C1900.0786,1699.9844 1905.0786,1699.9844 1905.0786,1699.9844 " fill="none" style="stroke:#181818;stroke-width:0.5;"/><text fill="#000000" font-family="sans-serif" font-size="14" lengthAdjust="spacing" textLength="39.375" x="1855.7036" y="1691.6826">Kafka</text><rect fill="#FFFFFF" height="1528.125" style="stroke:#181818;stroke-width:1.0;" width="10" x="436.9502" y="136.5625"/><rect fill="#FFFFFF" height="87.3984" style="stroke:#181818;stroke-width:1.0;" width="10" x="650.3823" y="165.6953"/><rect fill="#FFFFFF" height="111.5313" style="stroke:#181818;stroke-width:1.0;" width="10" x="650.3823" y="1140.4844"/><rect fill="#FFFFFF" height="59.1328" style="stroke:#181818;stroke-width:1.0;" width="10" x="650.3823" y="1397.2188"/><rect fill="#FFFFFF" height="149.3984" style="stroke:#181818;stroke-width:1.0;" width="10" x="650.3823" y="1500.2891"/><rect fill="#FFFFFF" height="59.1328" style="stroke:#181818;stroke-width:1.0;" width="10" x="766.8179" y="686.7578"/><rect fill="#FFFFFF" height="65.1328" style="stroke:#181818;stroke-width:1.0;" width="10" x="766.8179" y="1281.1484"/><rect fill="#FFFFFF" height="29.1328" style="stroke:#181818;stroke-width:1.0;" width="10" x="890.937" y="194.8281"/><rect fill="#FFFFFF" height="376.3984" style="stroke:#181818;stroke-width:1.0;" width="10" x="890.937" y="289.2266"/><rect fill="#FFFFFF" height="126.5313" style="stroke:#181818;stroke-width:1.0;" width="10" x="1014.2598" y="400.7578"/><rect fill="#FFFFFF" height="30" style="stroke:#181818;stroke-width:1.0;" width="10" x="1014.2598" y="1016.0859"/><rect fill="#FFFFFF" height="212.7969" style="stroke:#181818;stroke-width:1.0;" width="10" x="1288.6675" y="833.2891"/><rect fill="#FFFFFF" height="53.2656" style="stroke:#181818;stroke-width:1.0;" width="10" x="1539.0918" y="1169.6172"/><rect fill="#FFFFFF" height="30" style="stroke:#181818;stroke-width:1.0;" width="10" x="1539.0918" y="1583.5547"/><rect fill="#FFFFFF" height="28" style="stroke:#181818;stroke-width:1.0;" width="10" x="1657.4653" y="1318.2813"/><rect fill="#FFFFFF" height="30" style="stroke:#181818;stroke-width:1.0;" width="10" x="1875.3911" y="715.8906"/><path d="M20,98.2969 L89.4512,98.2969 L89.4512,105.4297 L79.4512,115.4297 L20,115.4297 L20,98.2969 " fill="#EEEEEE" style="stroke:#000000;stroke-width:1.5;"/><rect fill="none" height="162.7969" style="stroke:#000000;stroke-width:1.5;" width="944.9448" x="20" y="98.2969"/><text fill="#000000" font-family="sans-serif" font-size="13" font-weight="bold" lengthAdjust="spacing" textLength="24.4512" x="35" y="111.3638">opt</text><text fill="#000000" font-family="sans-serif" font-size="11" font-weight="bold" lengthAdjust="spacing" textLength="242.5371" x="104.4512" y="110.5073">[&#1040;&#1074;&#1090;&#1086;&#1088;&#1080;&#1079;&#1072;&#1094;&#1080;&#1103; &#1082;&#1083;&#1080;&#1077;&#1085;&#1090;&#1072; &#1074; &#1087;&#1088;&#1080;&#1083;&#1086;&#1078;&#1077;&#1085;&#1080;&#1080;]</text><polygon fill="#181818" points="424.9502,132.5625,434.9502,136.5625,424.9502,140.5625,428.9502,136.5625" style="stroke:#181818;stroke-width:1.0;"/><line style="stroke:#181818;stroke-width:1.0;" x1="67.002" x2="430.9502" y1="136.5625" y2="136.5625"/><text fill="#000000" font-family="sans-serif" font-size="13" font-weight="bold" lengthAdjust="spacing" textLength="20.9282" x="74.002" y="131.4966">[1]</text><text fill="#000000" font-family="sans-serif" font-size="13" lengthAdjust="spacing" textLength="143.2666" x="98.9302" y="131.4966">&#1047;&#1072;&#1081;&#1090;&#1080; &#1074; &#1087;&#1088;&#1080;&#1083;&#1086;&#1078;&#1077;&#1085;&#1080;&#1080;</text><polygon fill="#181818" points="638.3823,161.6953,648.3823,165.6953,638.3823,169.6953,642.3823,165.6953" style="stroke:#181818;stroke-width:1.0;"/><line style="stroke:#181818;stroke-width:1.0;" x1="446.9502" x2="644.3823" y1="165.6953" y2="165.6953"/><text fill="#000000" font-family="sans-serif" font-size="13" font-weight="bold" lengthAdjust="spacing" textLength="20.9282" x="453.9502" y="160.6294">[2]</text><text fill="#000000" font-family="sans-serif" font-size="13" lengthAdjust="spacing" textLength="88.7783" x="478.8784" y="160.6294">&#1040;&#1074;&#1090;&#1086;&#1088;&#1080;&#1079;&#1072;&#1094;&#1080;&#1103;</text><polygon fill="#181818" points="878.937,190.8281,888.937,194.8281,878.937,198.8281,882.937,194.8281" style="stroke:#181818;stroke-width:1.0;"/><line style="stroke:#181818;stroke-width:1.0;" x1="660.3823" x2="884.937" y1="194.8281" y2="194.8281"/><text fill="#000000" font-family="sans-serif" font-size="13" font-weight="bold" lengthAdjust="spacing" textLength="20.9282" x="667.3823" y="189.7622">[3]</text><text fill="#000000" font-family="sans-serif" font-size="13" lengthAdjust="spacing" textLength="121.7544" x="692.3105" y="189.7622">&#1055;&#1088;&#1086;&#1074;&#1077;&#1088;&#1082;&#1072; &#1076;&#1072;&#1085;&#1085;&#1099;&#1093;</text><polygon fill="#181818" points="671.3823,219.9609,661.3823,223.9609,671.3823,227.9609,667.3823,223.9609" style="stroke:#181818;stroke-width:1.0;"/><line style="stroke:#181818;stroke-width:1.0;" x1="665.3823" x2="894.937" y1="223.9609" y2="223.9609"/><text fill="#000000" font-family="sans-serif" font-size="13" font-weight="bold" lengthAdjust="spacing" textLength="20.9282" x="677.3823" y="218.895">[4]</text><text fill="#000000" font-family="sans-serif" font-size="13" lengthAdjust="spacing" textLength="40.2441" x="702.3105" y="218.895">&#1058;&#1086;&#1082;&#1077;&#1085;</text><polygon fill="#181818" points="457.9502,249.0938,447.9502,253.0938,457.9502,257.0938,453.9502,253.0938" style="stroke:#181818;stroke-width:1.0;"/><line style="stroke:#181818;stroke-width:1.0;" x1="451.9502" x2="654.3823" y1="253.0938" y2="253.0938"/><text fill="#000000" font-family="sans-serif" font-size="13" font-weight="bold" lengthAdjust="spacing" textLength="20.9282" x="463.9502" y="248.0278">[5]</text><text fill="#000000" font-family="sans-serif" font-size="13" lengthAdjust="spacing" textLength="101.0103" x="488.8784" y="248.0278">&#1058;&#1086;&#1082;&#1077;&#1085; &#1087;&#1086;&#1083;&#1091;&#1095;&#1077;&#1085;</text><polygon fill="#181818" points="878.937,285.2266,888.937,289.2266,878.937,293.2266,882.937,289.2266" style="stroke:#181818;stroke-width:1.0;"/><line style="stroke:#181818;stroke-width:1.0;" x1="446.9502" x2="884.937" y1="289.2266" y2="289.2266"/><text fill="#000000" font-family="sans-serif" font-size="13" font-weight="bold" lengthAdjust="spacing" textLength="20.9282" x="453.9502" y="284.1606">[6]</text><text fill="#000000" font-family="sans-serif" font-size="13" lengthAdjust="spacing" textLength="230.1025" x="478.8784" y="284.1606">&#1055;&#1088;&#1086;&#1074;&#1077;&#1088;&#1082;&#1072; &#1088;&#1077;&#1075;&#1080;&#1089;&#1090;&#1088;&#1072;&#1094;&#1080;&#1080; &#1074; &#1089;&#1080;&#1089;&#1090;&#1077;&#1084;&#1077;</text><path d="M10,304.2266 L74.4429,304.2266 L74.4429,311.3594 L64.4429,321.3594 L10,321.3594 L10,304.2266 " fill="#EEEEEE" style="stroke:#000000;stroke-width:1.5;"/><rect fill="none" height="354.3984" style="stroke:#000000;stroke-width:1.5;" width="1083.5747" x="10" y="304.2266"/><text fill="#000000" font-family="sans-serif" font-size="13" font-weight="bold" lengthAdjust="spacing" textLength="19.4429" x="25" y="317.2935">alt</text><text fill="#000000" font-family="sans-serif" font-size="11" font-weight="bold" lengthAdjust="spacing" textLength="168.5718" x="89.4429" y="316.437">[&#1050;&#1083;&#1080;&#1077;&#1085;&#1090; &#1079;&#1072;&#1088;&#1077;&#1075;&#1080;&#1089;&#1090;&#1088;&#1080;&#1088;&#1086;&#1074;&#1072;&#1085;]</text><polygon fill="#181818" points="457.9502,338.4922,447.9502,342.4922,457.9502,346.4922,453.9502,342.4922" style="stroke:#181818;stroke-width:1.0;"/><line style="stroke:#181818;stroke-width:1.0;" x1="451.9502" x2="889.937" y1="342.4922" y2="342.4922"/><text fill="#000000" font-family="sans-serif" font-size="13" font-weight="bold" lengthAdjust="spacing" textLength="20.9282" x="463.9502" y="337.4263">[7]</text><text fill="#000000" font-family="sans-serif" font-size="13" lengthAdjust="spacing" textLength="130.7363" x="488.8784" y="337.4263">&#1041;&#1086;&#1085;&#1091;&#1089;&#1099; &#1079;&#1072;&#1075;&#1088;&#1091;&#1078;&#1077;&#1085;&#1099;</text><polygon fill="#181818" points="424.9502,367.625,434.9502,371.625,424.9502,375.625,428.9502,371.625" style="stroke:#181818;stroke-width:1.0;"/><line style="stroke:#181818;stroke-width:1.0;" x1="67.002" x2="430.9502" y1="371.625" y2="371.625"/><text fill="#000000" font-family="sans-serif" font-size="13" font-weight="bold" lengthAdjust="spacing" textLength="20.9282" x="74.002" y="366.5591">[8]</text><text fill="#000000" font-family="sans-serif" font-size="13" lengthAdjust="spacing" textLength="294.3345" x="98.9302" y="366.5591">&#1042;&#1099;&#1073;&#1088;&#1072;&#1090;&#1100; &#1079;&#1072;&#1082;&#1072;&#1079; &#1080;&#1079; &#1080;&#1089;&#1090;&#1086;&#1088;&#1080;&#1080; &#1076;&#1083;&#1103; &#1087;&#1086;&#1074;&#1090;&#1086;&#1088;&#1077;&#1085;&#1080;&#1103;</text><polygon fill="#181818" points="1002.2598,396.7578,1012.2598,400.7578,1002.2598,404.7578,1006.2598,400.7578" style="stroke:#181818;stroke-width:1.0;"/><line style="stroke:#181818;stroke-width:1.0;" x1="446.9502" x2="1008.2598" y1="400.7578" y2="400.7578"/><text fill="#000000" font-family="sans-serif" font-size="13" font-weight="bold" lengthAdjust="spacing" textLength="20.9282" x="453.9502" y="395.6919">[9]</text><text fill="#000000" font-family="sans-serif" font-size="13" lengthAdjust="spacing" textLength="320.0869" x="478.8784" y="395.6919">&#1055;&#1088;&#1086;&#1074;&#1077;&#1088;&#1082;&#1072; &#1076;&#1086;&#1089;&#1090;&#1091;&#1087;&#1085;&#1086;&#1089;&#1090;&#1080; &#1073;&#1083;&#1102;&#1076; &#1080;&#1079; &#1079;&#1072;&#1082;&#1072;&#1079;&#1072; &#1074; &#1084;&#1077;&#1085;&#1102;</text><polygon fill="#181818" points="457.9502,425.8906,447.9502,429.8906,457.9502,433.8906,453.9502,429.8906" style="stroke:#181818;stroke-width:1.0;"/><line style="stroke:#181818;stroke-width:1.0;" x1="451.9502" x2="1013.2598" y1="429.8906" y2="429.8906"/><text fill="#000000" font-family="sans-serif" font-size="13" font-weight="bold" lengthAdjust="spacing" textLength="29.9736" x="463.9502" y="424.8247">[10]</text><text fill="#000000" font-family="sans-serif" font-size="13" lengthAdjust="spacing" textLength="167.813" x="497.9238" y="424.8247">&#1057;&#1087;&#1080;&#1089;&#1086;&#1082; &#1076;&#1086;&#1089;&#1090;&#1091;&#1087;&#1085;&#1099;&#1093; &#1073;&#1083;&#1102;&#1076;</text><path d="M20,444.8906 L89.4512,444.8906 L89.4512,452.0234 L79.4512,462.0234 L20,462.0234 L20,444.8906 " fill="#EEEEEE" style="stroke:#000000;stroke-width:1.5;"/><rect fill="none" height="75.3984" style="stroke:#000000;stroke-width:1.5;" width="1063.5747" x="20" y="444.8906"/><text fill="#000000" font-family="sans-serif" font-size="13" font-weight="bold" lengthAdjust="spacing" textLength="24.4512" x="35" y="457.9575">opt</text><text fill="#000000" font-family="sans-serif" font-size="11" font-weight="bold" lengthAdjust="spacing" textLength="208.0708" x="104.4512" y="457.1011">[&#1053;&#1077;&#1082;&#1086;&#1090;&#1086;&#1088;&#1099;&#1077; &#1073;&#1083;&#1102;&#1076;&#1072; &#1085;&#1077;&#1076;&#1086;&#1089;&#1090;&#1091;&#1087;&#1085;&#1099;]</text><polygon fill="#181818" points="457.9502,479.1563,447.9502,483.1563,457.9502,487.1563,453.9502,483.1563" style="stroke:#181818;stroke-width:1.0;"/><line style="stroke:#181818;stroke-width:1.0;" x1="451.9502" x2="1013.2598" y1="483.1563" y2="483.1563"/><text fill="#000000" font-family="sans-serif" font-size="13" font-weight="bold" lengthAdjust="spacing" textLength="29.9736" x="463.9502" y="478.0903">[11]</text><text fill="#000000" font-family="sans-serif" font-size="13" lengthAdjust="spacing" textLength="284.4385" x="497.9238" y="478.0903">&#1057;&#1087;&#1080;&#1089;&#1086;&#1082; &#1085;&#1077;&#1076;&#1086;&#1089;&#1090;&#1091;&#1087;&#1085;&#1099;&#1093; &#1073;&#1083;&#1102;&#1076; &#1080; &#1080;&#1093; &#1072;&#1085;&#1072;&#1083;&#1086;&#1075;&#1086;&#1074;</text><polygon fill="#181818" points="424.9502,508.2891,434.9502,512.2891,424.9502,516.2891,428.9502,512.2891" style="stroke:#181818;stroke-width:1.0;"/><line style="stroke:#181818;stroke-width:1.0;" x1="67.002" x2="430.9502" y1="512.2891" y2="512.2891"/><text fill="#000000" font-family="sans-serif" font-size="13" font-weight="bold" lengthAdjust="spacing" textLength="29.9736" x="74.002" y="507.2231">[12]</text><text fill="#000000" font-family="sans-serif" font-size="13" lengthAdjust="spacing" textLength="162.0684" x="107.9756" y="507.2231">&#1057;&#1082;&#1086;&#1088;&#1088;&#1077;&#1082;&#1090;&#1080;&#1088;&#1086;&#1074;&#1072;&#1090;&#1100; &#1079;&#1072;&#1082;&#1072;&#1079;</text><line style="stroke:#000000;stroke-width:1.0;stroke-dasharray:2.0,2.0;" x1="10" x2="1093.5747" y1="528.2891" y2="528.2891"/><text fill="#000000" font-family="sans-serif" font-size="11" font-weight="bold" lengthAdjust="spacing" textLength="253.1182" x="15" y="538.4995">[&#1050;&#1083;&#1080;&#1077;&#1085;&#1090; &#1085;&#1077; &#1079;&#1072;&#1088;&#1077;&#1075;&#1080;&#1089;&#1090;&#1088;&#1080;&#1088;&#1086;&#1074;&#1072;&#1085; &#1074; &#1089;&#1080;&#1089;&#1090;&#1077;&#1084;&#1077;]</text><polygon fill="#181818" points="78.002,559.2266,68.002,563.2266,78.002,567.2266,74.002,563.2266" style="stroke:#181818;stroke-width:1.0;"/><line style="stroke:#181818;stroke-width:1.0;" x1="72.002" x2="435.9502" y1="563.2266" y2="563.2266"/><text fill="#000000" font-family="sans-serif" font-size="13" font-weight="bold" lengthAdjust="spacing" textLength="29.9736" x="84.002" y="558.1606">[13]</text><text fill="#000000" font-family="sans-serif" font-size="13" lengthAdjust="spacing" textLength="311.9746" x="117.9756" y="558.1606">&#1055;&#1088;&#1077;&#1076;&#1083;&#1086;&#1078;&#1077;&#1085;&#1080;&#1077; &#1079;&#1072;&#1088;&#1077;&#1075;&#1080;&#1089;&#1090;&#1088;&#1080;&#1088;&#1086;&#1074;&#1072;&#1090;&#1100;&#1089;&#1103; &#1074; &#1089;&#1080;&#1089;&#1090;&#1077;&#1084;&#1077;</text><polygon fill="#181818" points="424.9502,588.3594,434.9502,592.3594,424.9502,596.3594,428.9502,592.3594" style="stroke:#181818;stroke-width:1.0;"/><line style="stroke:#181818;stroke-width:1.0;" x1="67.002" x2="430.9502" y1="592.3594" y2="592.3594"/><text fill="#000000" font-family="sans-serif" font-size="13" font-weight="bold" lengthAdjust="spacing" textLength="29.9736" x="74.002" y="587.2935">[14]</text><text fill="#000000" font-family="sans-serif" font-size="13" lengthAdjust="spacing" textLength="225.6909" x="107.9756" y="587.2935">&#1042;&#1074;&#1077;&#1089;&#1090;&#1080; &#1076;&#1072;&#1085;&#1085;&#1099;&#1077; &#1076;&#1083;&#1103; &#1088;&#1077;&#1075;&#1080;&#1089;&#1090;&#1088;&#1072;&#1094;&#1080;&#1080;</text><polygon fill="#181818" points="878.937,617.4922,888.937,621.4922,878.937,625.4922,882.937,621.4922" style="stroke:#181818;stroke-width:1.0;"/><line style="stroke:#181818;stroke-width:1.0;" x1="446.9502" x2="884.937" y1="621.4922" y2="621.4922"/><text fill="#000000" font-family="sans-serif" font-size="13" font-weight="bold" lengthAdjust="spacing" textLength="29.9736" x="453.9502" y="616.4263">[15]</text><text fill="#000000" font-family="sans-serif" font-size="13" lengthAdjust="spacing" textLength="244.1563" x="487.9238" y="616.4263">&#1055;&#1077;&#1088;&#1077;&#1076;&#1072;&#1090;&#1100; &#1076;&#1072;&#1085;&#1085;&#1099;&#1077; &#1076;&#1083;&#1103; &#1088;&#1077;&#1075;&#1080;&#1089;&#1090;&#1088;&#1072;&#1094;&#1080;&#1080;</text><polygon fill="#181818" points="457.9502,646.625,447.9502,650.625,457.9502,654.625,453.9502,650.625" style="stroke:#181818;stroke-width:1.0;"/><line style="stroke:#181818;stroke-width:1.0;" x1="451.9502" x2="889.937" y1="650.625" y2="650.625"/><text fill="#000000" font-family="sans-serif" font-size="13" font-weight="bold" lengthAdjust="spacing" textLength="29.9736" x="463.9502" y="645.5591">[16]</text><text fill="#000000" font-family="sans-serif" font-size="13" lengthAdjust="spacing" textLength="204.1914" x="497.9238" y="645.5591">&#1055;&#1086;&#1076;&#1090;&#1074;&#1077;&#1088;&#1078;&#1076;&#1077;&#1085;&#1080;&#1077; &#1088;&#1077;&#1075;&#1080;&#1089;&#1090;&#1088;&#1072;&#1094;&#1080;&#1080;</text><polygon fill="#181818" points="754.8179,682.7578,764.8179,686.7578,754.8179,690.7578,758.8179,686.7578" style="stroke:#181818;stroke-width:1.0;"/><line style="stroke:#181818;stroke-width:1.0;" x1="446.9502" x2="760.8179" y1="686.7578" y2="686.7578"/><text fill="#000000" font-family="sans-serif" font-size="13" font-weight="bold" lengthAdjust="spacing" textLength="29.9736" x="453.9502" y="681.6919">[17]</text><text fill="#000000" font-family="sans-serif" font-size="13" lengthAdjust="spacing" textLength="97.8745" x="487.9238" y="681.6919">&#1057;&#1086;&#1079;&#1076;&#1072;&#1090;&#1100; &#1079;&#1072;&#1082;&#1072;&#1079;</text><polygon fill="#181818" points="1863.3911,711.8906,1873.3911,715.8906,1863.3911,719.8906,1867.3911,715.8906" style="stroke:#181818;stroke-width:1.0;"/><line style="stroke:#181818;stroke-width:1.0;" x1="776.8179" x2="1869.3911" y1="715.8906" y2="715.8906"/><text fill="#000000" font-family="sans-serif" font-size="13" font-weight="bold" lengthAdjust="spacing" textLength="29.9736" x="783.8179" y="710.8247">[18]</text><text fill="#000000" font-family="sans-serif" font-size="13" lengthAdjust="spacing" textLength="199.2212" x="817.7915" y="710.8247">&#1057;&#1086;&#1086;&#1073;&#1097;&#1080;&#1090;&#1100; &#1086; &#1089;&#1086;&#1079;&#1076;&#1072;&#1085;&#1080;&#1080; &#1079;&#1072;&#1082;&#1072;&#1079;&#1072;</text><polygon fill="#181818" points="78.002,771.0234,68.002,775.0234,78.002,779.0234,74.002,775.0234" style="stroke:#181818;stroke-width:1.0;"/><line style="stroke:#181818;stroke-width:1.0;" x1="72.002" x2="435.9502" y1="775.0234" y2="775.0234"/><text fill="#000000" font-family="sans-serif" font-size="13" font-weight="bold" lengthAdjust="spacing" textLength="29.9736" x="84.002" y="769.9575">[19]</text><text fill="#000000" font-family="sans-serif" font-size="13" lengthAdjust="spacing" textLength="174.6685" x="117.9756" y="769.9575">&#1055;&#1086;&#1082;&#1072;&#1079;&#1072;&#1090;&#1100; &#1080;&#1090;&#1086;&#1075;&#1086;&#1074;&#1099;&#1081; &#1079;&#1072;&#1082;&#1072;&#1079;</text><polygon fill="#181818" points="424.9502,800.1563,434.9502,804.1563,424.9502,808.1563,428.9502,804.1563" style="stroke:#181818;stroke-width:1.0;"/><line style="stroke:#181818;stroke-width:1.0;" x1="67.002" x2="430.9502" y1="804.1563" y2="804.1563"/><text fill="#000000" font-family="sans-serif" font-size="13" font-weight="bold" lengthAdjust="spacing" textLength="29.9736" x="74.002" y="799.0903">[20]</text><text fill="#000000" font-family="sans-serif" font-size="13" lengthAdjust="spacing" textLength="132.6152" x="107.9756" y="799.0903">&#1055;&#1086;&#1076;&#1090;&#1074;&#1077;&#1088;&#1076;&#1080;&#1090;&#1100; &#1079;&#1072;&#1082;&#1072;&#1079;</text><polygon fill="#181818" points="1276.6675,829.2891,1286.6675,833.2891,1276.6675,837.2891,1280.6675,833.2891" style="stroke:#181818;stroke-width:1.0;"/><line style="stroke:#181818;stroke-width:1.0;" x1="446.9502" x2="1282.6675" y1="833.2891" y2="833.2891"/><text fill="#000000" font-family="sans-serif" font-size="13" font-weight="bold" lengthAdjust="spacing" textLength="29.9736" x="453.9502" y="828.2231">[21]</text><text fill="#000000" font-family="sans-serif" font-size="13" lengthAdjust="spacing" textLength="228.2998" x="487.9238" y="828.2231">&#1055;&#1088;&#1086;&#1074;&#1077;&#1088;&#1082;&#1072; &#1085;&#1072;&#1083;&#1080;&#1095;&#1080;&#1103; &#1080;&#1085;&#1075;&#1088;&#1077;&#1076;&#1080;&#1077;&#1085;&#1090;&#1086;&#1074;</text><polygon fill="#181818" points="457.9502,858.4219,447.9502,862.4219,457.9502,866.4219,453.9502,862.4219" style="stroke:#181818;stroke-width:1.0;"/><line style="stroke:#181818;stroke-width:1.0;" x1="451.9502" x2="1287.6675" y1="862.4219" y2="862.4219"/><text fill="#000000" font-family="sans-serif" font-size="13" font-weight="bold" lengthAdjust="spacing" textLength="29.9736" x="463.9502" y="857.356">[22]</text><text fill="#000000" font-family="sans-serif" font-size="13" lengthAdjust="spacing" textLength="166.8037" x="497.9238" y="857.356">&#1048;&#1085;&#1075;&#1088;&#1077;&#1076;&#1080;&#1077;&#1085;&#1090;&#1099; &#1074; &#1085;&#1072;&#1083;&#1080;&#1095;&#1080;&#1080;</text><path d="M20,877.4219 L89.4512,877.4219 L89.4512,884.5547 L79.4512,894.5547 L20,894.5547 L20,877.4219 " fill="#EEEEEE" style="stroke:#000000;stroke-width:1.5;"/><rect fill="none" height="176.6641" style="stroke:#000000;stroke-width:1.5;" width="1524.0918" x="20" y="877.4219"/><text fill="#000000" font-family="sans-serif" font-size="13" font-weight="bold" lengthAdjust="spacing" textLength="24.4512" x="35" y="890.4888">opt</text><text fill="#000000" font-family="sans-serif" font-size="11" font-weight="bold" lengthAdjust="spacing" textLength="192.7793" x="104.4512" y="889.6323">[&#1048;&#1085;&#1075;&#1088;&#1077;&#1076;&#1080;&#1077;&#1085;&#1090;&#1086;&#1074; &#1085;&#1077;&#1076;&#1086;&#1089;&#1090;&#1072;&#1090;&#1086;&#1095;&#1085;&#1086;]</text><polygon fill="#181818" points="457.9502,911.6875,447.9502,915.6875,457.9502,919.6875,453.9502,915.6875" style="stroke:#181818;stroke-width:1.0;"/><line style="stroke:#181818;stroke-width:1.0;" x1="451.9502" x2="1287.6675" y1="915.6875" y2="915.6875"/><text fill="#000000" font-family="sans-serif" font-size="13" font-weight="bold" lengthAdjust="spacing" textLength="29.9736" x="463.9502" y="910.6216">[23]</text><text fill="#000000" font-family="sans-serif" font-size="13" lengthAdjust="spacing" textLength="272.3271" x="497.9238" y="910.6216">&#1059;&#1074;&#1077;&#1076;&#1086;&#1084;&#1083;&#1077;&#1085;&#1080;&#1077; &#1086; &#1085;&#1077;&#1093;&#1074;&#1072;&#1090;&#1082;&#1077; &#1080;&#1085;&#1075;&#1088;&#1077;&#1076;&#1080;&#1077;&#1085;&#1090;&#1086;&#1074;</text><polygon fill="#181818" points="424.9502,940.8203,434.9502,944.8203,424.9502,948.8203,428.9502,944.8203" style="stroke:#181818;stroke-width:1.0;"/><line style="stroke:#181818;stroke-width:1.0;" x1="67.002" x2="430.9502" y1="944.8203" y2="944.8203"/><text fill="#000000" font-family="sans-serif" font-size="13" font-weight="bold" lengthAdjust="spacing" textLength="29.9736" x="74.002" y="939.7544">[24]</text><text fill="#000000" font-family="sans-serif" font-size="13" lengthAdjust="spacing" textLength="162.0684" x="107.9756" y="939.7544">&#1057;&#1082;&#1086;&#1088;&#1088;&#1077;&#1082;&#1090;&#1080;&#1088;&#1086;&#1074;&#1072;&#1090;&#1100; &#1079;&#1072;&#1082;&#1072;&#1079;</text><line style="stroke:#181818;stroke-width:1.0;" x1="1298.6675" x2="1340.6675" y1="973.9531" y2="973.9531"/><line style="stroke:#181818;stroke-width:1.0;" x1="1340.6675" x2="1340.6675" y1="973.9531" y2="986.9531"/><line style="stroke:#181818;stroke-width:1.0;" x1="1299.6675" x2="1340.6675" y1="986.9531" y2="986.9531"/><polygon fill="#181818" points="1309.6675,982.9531,1299.6675,986.9531,1309.6675,990.9531,1305.6675,986.9531" style="stroke:#181818;stroke-width:1.0;"/><text fill="#000000" font-family="sans-serif" font-size="13" font-weight="bold" lengthAdjust="spacing" textLength="29.9736" x="1305.6675" y="968.8872">[25]</text><text fill="#000000" font-family="sans-serif" font-size="13" lengthAdjust="spacing" textLength="182.4507" x="1339.6411" y="968.8872">&#1041;&#1083;&#1086;&#1082;&#1080;&#1088;&#1086;&#1074;&#1082;&#1072; &#1080;&#1085;&#1075;&#1088;&#1077;&#1076;&#1080;&#1077;&#1085;&#1090;&#1086;&#1074;</text><polygon fill="#181818" points="1035.2598,1012.0859,1025.2598,1016.0859,1035.2598,1020.0859,1031.2598,1016.0859" style="stroke:#181818;stroke-width:1.0;"/><line style="stroke:#181818;stroke-width:1.0;" x1="1029.2598" x2="1287.6675" y1="1016.0859" y2="1016.0859"/><text fill="#000000" font-family="sans-serif" font-size="13" font-weight="bold" lengthAdjust="spacing" textLength="29.9736" x="1041.2598" y="1011.02">[26]</text><text fill="#000000" font-family="sans-serif" font-size="13" lengthAdjust="spacing" textLength="211.4341" x="1075.2334" y="1011.02">&#1057;&#1076;&#1077;&#1083;&#1072;&#1090;&#1100; &#1073;&#1083;&#1102;&#1076;&#1072; &#1085;&#1077;&#1076;&#1086;&#1089;&#1090;&#1091;&#1087;&#1085;&#1099;&#1084;&#1080;</text><polygon fill="#181818" points="78.002,1078.2188,68.002,1082.2188,78.002,1086.2188,74.002,1082.2188" style="stroke:#181818;stroke-width:1.0;"/><line style="stroke:#181818;stroke-width:1.0;" x1="72.002" x2="435.9502" y1="1082.2188" y2="1082.2188"/><text fill="#000000" font-family="sans-serif" font-size="13" font-weight="bold" lengthAdjust="spacing" textLength="29.9736" x="84.002" y="1077.1528">[27]</text><text fill="#000000" font-family="sans-serif" font-size="13" lengthAdjust="spacing" textLength="174.6685" x="117.9756" y="1077.1528">&#1055;&#1086;&#1082;&#1072;&#1079;&#1072;&#1090;&#1100; &#1080;&#1090;&#1086;&#1075;&#1086;&#1074;&#1099;&#1081; &#1079;&#1072;&#1082;&#1072;&#1079;</text><polygon fill="#181818" points="424.9502,1107.3516,434.9502,1111.3516,424.9502,1115.3516,428.9502,1111.3516" style="stroke:#181818;stroke-width:1.0;"/><line style="stroke:#181818;stroke-width:1.0;" x1="67.002" x2="430.9502" y1="1111.3516" y2="1111.3516"/><text fill="#000000" font-family="sans-serif" font-size="13" font-weight="bold" lengthAdjust="spacing" textLength="29.9736" x="74.002" y="1106.2856">[28]</text><text fill="#000000" font-family="sans-serif" font-size="13" lengthAdjust="spacing" textLength="108.0054" x="107.9756" y="1106.2856">&#1054;&#1087;&#1083;&#1072;&#1090;&#1080;&#1090;&#1100; &#1079;&#1072;&#1082;&#1072;&#1079;</text><polygon fill="#181818" points="638.3823,1136.4844,648.3823,1140.4844,638.3823,1144.4844,642.3823,1140.4844" style="stroke:#181818;stroke-width:1.0;"/><line style="stroke:#181818;stroke-width:1.0;" x1="446.9502" x2="644.3823" y1="1140.4844" y2="1140.4844"/><text fill="#000000" font-family="sans-serif" font-size="13" font-weight="bold" lengthAdjust="spacing" textLength="29.9736" x="453.9502" y="1135.4185">[29]</text><text fill="#000000" font-family="sans-serif" font-size="13" lengthAdjust="spacing" textLength="150.4585" x="487.9238" y="1135.4185">&#1053;&#1072;&#1095;&#1072;&#1090;&#1100; &#1086;&#1087;&#1083;&#1072;&#1090;&#1091; &#1079;&#1072;&#1082;&#1072;&#1079;&#1072;</text><polygon fill="#181818" points="1527.0918,1165.6172,1537.0918,1169.6172,1527.0918,1173.6172,1531.0918,1169.6172" style="stroke:#181818;stroke-width:1.0;"/><line style="stroke:#181818;stroke-width:1.0;" x1="660.3823" x2="1533.0918" y1="1169.6172" y2="1169.6172"/><text fill="#000000" font-family="sans-serif" font-size="13" font-weight="bold" lengthAdjust="spacing" textLength="29.9736" x="667.3823" y="1164.5513">[30]</text><text fill="#000000" font-family="sans-serif" font-size="13" lengthAdjust="spacing" textLength="138.271" x="701.356" y="1164.5513">&#1055;&#1088;&#1086;&#1074;&#1077;&#1076;&#1077;&#1085;&#1080;&#1077; &#1086;&#1087;&#1083;&#1072;&#1090;&#1099;</text><path d="M371.3701,1184.6172 L435.813,1184.6172 L435.813,1191.75 L425.813,1201.75 L371.3701,1201.75 L371.3701,1184.6172 " fill="#EEEEEE" style="stroke:#000000;stroke-width:1.5;"/><rect fill="none" height="473.0703" style="stroke:#000000;stroke-width:1.5;" width="1548.7085" x="371.3701" y="1184.6172"/><text fill="#000000" font-family="sans-serif" font-size="13" font-weight="bold" lengthAdjust="spacing" textLength="19.4429" x="386.3701" y="1197.6841">alt</text><text fill="#000000" font-family="sans-serif" font-size="11" font-weight="bold" lengthAdjust="spacing" textLength="122.1494" x="450.813" y="1196.8276">[&#1059;&#1089;&#1087;&#1077;&#1096;&#1085;&#1072;&#1103; &#1086;&#1087;&#1083;&#1072;&#1090;&#1072;]</text><polygon fill="#181818" points="671.3823,1218.8828,661.3823,1222.8828,671.3823,1226.8828,667.3823,1222.8828" style="stroke:#181818;stroke-width:1.0;"/><line style="stroke:#181818;stroke-width:1.0;" x1="665.3823" x2="1543.0918" y1="1222.8828" y2="1222.8828"/><text fill="#000000" font-family="sans-serif" font-size="13" font-weight="bold" lengthAdjust="spacing" textLength="29.9736" x="677.3823" y="1217.8169">[31]</text><text fill="#000000" font-family="sans-serif" font-size="13" lengthAdjust="spacing" textLength="114.3784" x="711.356" y="1217.8169">&#1054;&#1087;&#1083;&#1072;&#1090;&#1072; &#1091;&#1089;&#1087;&#1077;&#1096;&#1085;&#1072;</text><polygon fill="#181818" points="457.9502,1248.0156,447.9502,1252.0156,457.9502,1256.0156,453.9502,1252.0156" style="stroke:#181818;stroke-width:1.0;"/><line style="stroke:#181818;stroke-width:1.0;" x1="451.9502" x2="654.3823" y1="1252.0156" y2="1252.0156"/><text fill="#000000" font-family="sans-serif" font-size="13" font-weight="bold" lengthAdjust="spacing" textLength="29.9736" x="463.9502" y="1246.9497">[32]</text><text fill="#000000" font-family="sans-serif" font-size="13" lengthAdjust="spacing" textLength="129.4351" x="497.9238" y="1246.9497">&#1057;&#1086;&#1086;&#1073;&#1097;&#1080;&#1090;&#1100; &#1082;&#1083;&#1080;&#1077;&#1085;&#1090;&#1091;</text><polygon fill="#181818" points="1868.3911,1277.1484,1878.3911,1281.1484,1868.3911,1285.1484,1872.3911,1281.1484" style="stroke:#181818;stroke-width:1.0;"/><line style="stroke:#181818;stroke-width:1.0;" x1="776.8179" x2="1874.3911" y1="1281.1484" y2="1281.1484"/><text fill="#000000" font-family="sans-serif" font-size="13" font-weight="bold" lengthAdjust="spacing" textLength="29.9736" x="783.8179" y="1276.0825">[33]</text><text fill="#000000" font-family="sans-serif" font-size="13" lengthAdjust="spacing" textLength="164.9883" x="817.7915" y="1276.0825">&#1054;&#1073;&#1085;&#1086;&#1074;&#1080;&#1090;&#1100; &#1089;&#1090;&#1072;&#1090;&#1091;&#1089; &#1079;&#1072;&#1082;&#1072;&#1079;&#1072;</text><line style="stroke:#181818;stroke-width:1.0;" x1="1667.4653" x2="1709.4653" y1="1310.2813" y2="1310.2813"/><line style="stroke:#181818;stroke-width:1.0;" x1="1709.4653" x2="1709.4653" y1="1310.2813" y2="1323.2813"/><line style="stroke:#181818;stroke-width:1.0;" x1="1668.4653" x2="1709.4653" y1="1323.2813" y2="1323.2813"/><polygon fill="#181818" points="1678.4653,1319.2813,1668.4653,1323.2813,1678.4653,1327.2813,1674.4653,1323.2813" style="stroke:#181818;stroke-width:1.0;"/><text fill="#000000" font-family="sans-serif" font-size="13" font-weight="bold" lengthAdjust="spacing" textLength="29.9736" x="1674.4653" y="1305.2153">[34]</text><text fill="#000000" font-family="sans-serif" font-size="13" lengthAdjust="spacing" textLength="169.9521" x="1708.439" y="1305.2153">&#1055;&#1086;&#1082;&#1072;&#1079;&#1072;&#1090;&#1100; &#1079;&#1072;&#1082;&#1072;&#1079; &#1085;&#1072; &#1090;&#1072;&#1073;&#1083;&#1086;</text><line style="stroke:#000000;stroke-width:1.0;stroke-dasharray:2.0,2.0;" x1="371.3701" x2="1920.0786" y1="1362.2813" y2="1362.2813"/><text fill="#000000" font-family="sans-serif" font-size="11" font-weight="bold" lengthAdjust="spacing" textLength="129.1963" x="376.3701" y="1372.4917">[&#1054;&#1087;&#1083;&#1072;&#1090;&#1072; &#1085;&#1077; &#1087;&#1088;&#1086;&#1096;&#1083;&#1072;]</text><polygon fill="#181818" points="671.3823,1393.2188,661.3823,1397.2188,671.3823,1401.2188,667.3823,1397.2188" style="stroke:#181818;stroke-width:1.0;"/><line style="stroke:#181818;stroke-width:1.0;" x1="665.3823" x2="1543.0918" y1="1397.2188" y2="1397.2188"/><text fill="#000000" font-family="sans-serif" font-size="13" font-weight="bold" lengthAdjust="spacing" textLength="29.9736" x="677.3823" y="1392.1528">[35]</text><text fill="#000000" font-family="sans-serif" font-size="13" lengthAdjust="spacing" textLength="130.876" x="711.356" y="1392.1528">&#1054;&#1087;&#1083;&#1072;&#1090;&#1072; &#1085;&#1077;&#1091;&#1089;&#1087;&#1077;&#1096;&#1085;&#1072;</text><polygon fill="#181818" points="457.9502,1452.3516,447.9502,1456.3516,457.9502,1460.3516,453.9502,1456.3516" style="stroke:#181818;stroke-width:1.0;"/><line style="stroke:#181818;stroke-width:1.0;" x1="451.9502" x2="654.3823" y1="1456.3516" y2="1456.3516"/><text fill="#000000" font-family="sans-serif" font-size="13" font-weight="bold" lengthAdjust="spacing" textLength="29.9736" x="463.9502" y="1451.2856">[36]</text><text fill="#000000" font-family="sans-serif" font-size="13" lengthAdjust="spacing" textLength="129.4351" x="497.9238" y="1451.2856">&#1057;&#1086;&#1086;&#1073;&#1097;&#1080;&#1090;&#1100; &#1082;&#1083;&#1080;&#1077;&#1085;&#1090;&#1091;</text><line style="stroke:#000000;stroke-width:1.0;stroke-dasharray:2.0,2.0;" x1="371.3701" x2="1920.0786" y1="1465.3516" y2="1465.3516"/><text fill="#000000" font-family="sans-serif" font-size="11" font-weight="bold" lengthAdjust="spacing" textLength="118.9858" x="376.3701" y="1475.562">[&#1041;&#1072;&#1085;&#1082; &#1085;&#1077;&#1076;&#1086;&#1089;&#1090;&#1091;&#1087;&#1077;&#1085;]</text><polygon fill="#181818" points="671.3823,1496.2891,661.3823,1500.2891,671.3823,1504.2891,667.3823,1500.2891" style="stroke:#181818;stroke-width:1.0;"/><line style="stroke:#181818;stroke-width:1.0;" x1="665.3823" x2="1543.0918" y1="1500.2891" y2="1500.2891"/><text fill="#000000" font-family="sans-serif" font-size="13" font-weight="bold" lengthAdjust="spacing" textLength="29.9736" x="677.3823" y="1495.2231">[37]</text><text fill="#000000" font-family="sans-serif" font-size="13" lengthAdjust="spacing" textLength="60.2964" x="711.356" y="1495.2231">500 code</text><path d="M594.0581,1545.2891 L670.6821,1545.2891 L670.6821,1552.4219 L660.6821,1562.4219 L594.0581,1562.4219 L594.0581,1545.2891 " fill="#EEEEEE" style="stroke:#000000;stroke-width:1.5;"/><rect fill="none" height="76.2656" style="stroke:#000000;stroke-width:1.5;" width="1012.7114" x="594.0581" y="1545.2891"/><text fill="#000000" font-family="sans-serif" font-size="13" font-weight="bold" lengthAdjust="spacing" textLength="31.624" x="609.0581" y="1558.356">loop</text><text fill="#000000" font-family="sans-serif" font-size="11" font-weight="bold" lengthAdjust="spacing" textLength="186.2588" x="685.6821" y="1557.4995">[&#1055;&#1086;&#1074;&#1090;&#1086;&#1088;&#1085;&#1072;&#1103; &#1087;&#1086;&#1087;&#1099;&#1090;&#1082;&#1072; &#1086;&#1087;&#1083;&#1072;&#1090;&#1099;]</text><polygon fill="#181818" points="1527.0918,1579.5547,1537.0918,1583.5547,1527.0918,1587.5547,1531.0918,1583.5547" style="stroke:#181818;stroke-width:1.0;"/><line style="stroke:#181818;stroke-width:1.0;" x1="660.3823" x2="1533.0918" y1="1583.5547" y2="1583.5547"/><text fill="#000000" font-family="sans-serif" font-size="13" font-weight="bold" lengthAdjust="spacing" textLength="29.9736" x="667.3823" y="1578.4888">[38]</text><text fill="#000000" font-family="sans-serif" font-size="13" lengthAdjust="spacing" textLength="124.979" x="701.356" y="1578.4888">&#1055;&#1086;&#1074;&#1090;&#1086;&#1088;&#1080;&#1090;&#1100; &#1086;&#1087;&#1083;&#1072;&#1090;&#1091;</text><polygon fill="#181818" points="457.9502,1645.6875,447.9502,1649.6875,457.9502,1653.6875,453.9502,1649.6875" style="stroke:#181818;stroke-width:1.0;"/><line style="stroke:#181818;stroke-width:1.0;" x1="451.9502" x2="654.3823" y1="1649.6875" y2="1649.6875"/><text fill="#000000" font-family="sans-serif" font-size="13" font-weight="bold" lengthAdjust="spacing" textLength="29.9736" x="463.9502" y="1644.6216">[39]</text><text fill="#000000" font-family="sans-serif" font-size="13" lengthAdjust="spacing" textLength="109.1099" x="497.9238" y="1644.6216">&#1054;&#1096;&#1080;&#1073;&#1082;&#1072; &#1086;&#1087;&#1083;&#1072;&#1090;&#1099;</text><!--SRC=[hLPDRzj64BtpLonqwI4mu4ilGH6WoI48Yg90SonweEXrG5WILPAouvjj8NKA1KdTIu82SP3c3pYs53DIHF-5tN-KDxEak4kHGXBqP7av7s_Ul9bTFqYZM7JkZP8qwiku8_n415utUYmwlyeazKUnFqZ5myCabVsED_JZD0p28PrrVebtP2mU358Px_g1PDSeT6r-78RYlf_A0_-GlpywQ8hnKCRxOHaXSItkzK8vI1F79gZP_2m78yUWNpDuCDX7a2W-TAp2cjLTVx3d67IJ9hIft-r9VsJGfjuV8pcIelEJlxldyzdUhYS7Em8SUfu_IgF1gD-5c-ZyqBtps_Rl7IyQfaBzhIxrYShraShKjRhGVwfCln1ghXOucAabFbu8TIdK3PiiLAu-q3b-PruWjkw0wzj2lLGNwYDiirPRFqZ3VRI0UXE5vFZeGDnk0L1PerEmWtMGaFKRsENgKitmTqx8faYy1Co9Vb8veJ4mNwNu3ovp0kBjIDl610OOsmReyNEXn_gqxW8iODGhu3S3mf-Pka8Dn_e4lxaUmue-DgVu_adD7B1-3vtujw9SC1DkfAn8X7ABuWpmCvmkWVPOJzXDNUaZFJR4wqdP8hByHq_KUyPqefyPMo1MruAO5mKuquYCY5sG48YCia7SIZJ7rDzlQqZEYCTmNPhV5EuzmZrNqoBNAdSXha-Czdb52YQdRnNv5i60ZtfKoq2DNqKtadwDO7FOC6ZKF5jzfsnBVAr5Q4_LO6ob4rHOHWUamGiM_1MnORF-bh4SCNrpugBiOwqBB2rBR610zX9PqyMIgjaeZWQf5NejsqKbsREvEIB1nDcBXhYsjbW2HQzNCqcXZOwQnyAT9DOGWIke-V8mzZoy0UmfS1X9Ve1ZMMMBSurtZ6C1AqfC_tBGCrtlLxNG4YzY07kxfKEEGViBcTWb5oodww8WdYvh0Af0sDWM48Ir_iCtfu-yhjZV9Cb8xaPz8EoZ3JHe8sTQ8gnilUzeVieW-YdjawOfDnFD84gbc7CKU5MqiRm_Q20CzB1vPPZPoR1m-UvfYx7Y0XTcQ7NyrRezxS9B9p29ZPR3g-RWpgWJf_XrIllBoVIEK9CLvB-efYTdR_t4Z0jT8-r5VCjcC10CUMTVmxfnx2UtRd4w6eL56NxpIaI16RjlyNBSydXClb60Tj7dYCyO6hHdFmjUm-QqZ9sNJdhSCZghPqBNbPWr_bQKIUM8jvMvVjzXI6_GnQUa6fBXoXnvkjPhege0j_tOzhBdjUi-BzQMWlN0qkFQ8yFU9kTer99hCOwbFYbp2nUqZr9EdJPsohhubrG3ufbXjaAaxPl8_KQlJBwcR5hCDKMlm1pCB3OGo8FZacWpyJyHQX2UyVfjkDNfcMS1_7vxMmJHZjo0f1T5GyDi-JOgH4FFfHiy4axCODgIS_HfUMPh6dVKwIQcARHfE0Tf6RgtbctzsMgtCFmC]--></g></svg>