<svg xmlns="http://www.w3.org/2000/svg" xmlns:xlink="http://www.w3.org/1999/xlink" contentStyleType="text/css" height="1008px" preserveAspectRatio="none" style="width:1336px;height:1008px;background:#FFFFFF;" version="1.1" viewBox="0 0 1336 1008" width="1336px" zoomAndPan="magnify"><defs/><g><!--cluster ???????--><g id="cluster_&#1057;&#1080;&#1089;&#1090;&#1077;&#1084;&#1072;"><path d="M279.94,6 L347.8228,6 A3.75,3.75 0 0 1 350.3228,8.5 L357.3228,28.2969 L1327.14,28.2969 A2.5,2.5 0 0 1 1329.64,30.7969 L1329.64,998.5 A2.5,2.5 0 0 1 1327.14,1001 L279.94,1001 A2.5,2.5 0 0 1 277.44,998.5 L277.44,8.5 A2.5,2.5 0 0 1 279.94,6 " fill="none" style="stroke:#000000;stroke-width:1.5;"/><line style="stroke:#000000;stroke-width:1.5;" x1="277.44" x2="357.3228" y1="28.2969" y2="28.2969"/><text fill="#000000" font-family="sans-serif" font-size="14" font-weight="bold" lengthAdjust="spacing" textLength="66.8828" x="281.44" y="20.9951">&#1057;&#1080;&#1089;&#1090;&#1077;&#1084;&#1072;</text></g><g id="elem_offer"><ellipse cx="430.0597" cy="227.0039" fill="#F1F1F1" rx="81.2197" ry="18.6439" style="stroke:#181818;stroke-width:0.5;"/><text fill="#000000" font-family="sans-serif" font-size="14" lengthAdjust="spacing" textLength="121.4609" x="368.1135" y="230.2489">&#1054;&#1092;&#1086;&#1088;&#1084;&#1080;&#1090;&#1100; &#1079;&#1072;&#1082;&#1072;&#1079;</text></g><g id="elem_getoffer"><ellipse cx="430.0616" cy="298.9963" fill="#F1F1F1" rx="78.5816" ry="18.1163" style="stroke:#181818;stroke-width:0.5;"/><text fill="#000000" font-family="sans-serif" font-size="14" lengthAdjust="spacing" textLength="115.0557" x="370.3165" y="302.5345">&#1055;&#1086;&#1083;&#1091;&#1095;&#1080;&#1090;&#1100; &#1079;&#1072;&#1082;&#1072;&#1079;</text></g><g id="elem_menu"><ellipse cx="843.119" cy="63.0038" fill="#F1F1F1" rx="99.119" ry="22.2238" style="stroke:#181818;stroke-width:0.5;"/><text fill="#000000" font-family="sans-serif" font-size="14" lengthAdjust="spacing" textLength="162.1143" x="762.0619" y="65.8505">&#1054;&#1079;&#1085;&#1072;&#1082;&#1086;&#1084;&#1080;&#1090;&#1100;&#1089;&#1103; &#1089; &#1084;&#1077;&#1085;&#1102;</text></g><g id="elem_basket"><ellipse cx="1215.6013" cy="62.9983" fill="#F1F1F1" rx="82.7913" ry="18.9583" style="stroke:#181818;stroke-width:0.5;"/><text fill="#000000" font-family="sans-serif" font-size="14" lengthAdjust="spacing" textLength="125.1865" x="1152.3439" y="66.0686">&#1057;&#1086;&#1073;&#1088;&#1072;&#1090;&#1100; &#1082;&#1086;&#1088;&#1079;&#1080;&#1085;&#1091;</text></g><g id="elem_place"><ellipse cx="843.1225" cy="385.0005" fill="#F1F1F1" rx="128.2525" ry="28.0505" style="stroke:#181818;stroke-width:0.5;"/><text fill="#000000" font-family="sans-serif" font-size="14" lengthAdjust="spacing" textLength="159.6738" x="763.2856" y="379.6987">&#1059;&#1082;&#1072;&#1079;&#1072;&#1090;&#1100; &#1080;&#1085;&#1092;&#1086;&#1088;&#1084;&#1072;&#1094;&#1080;&#1102;</text><text fill="#000000" font-family="sans-serif" font-size="14" lengthAdjust="spacing" textLength="178.2471" x="753.999" y="395.9956">&#8220;&#1074; &#1079;&#1072;&#1083;&#1077;&#8221; &#1080;&#1083;&#1080; &#8220;&#1085;&#1072; &#1074;&#1099;&#1085;&#1086;&#1089;&#8221;</text></g><g id="elem_pay"><ellipse cx="843.1243" cy="301.0049" fill="#F1F1F1" rx="90.3243" ry="20.4649" style="stroke:#181818;stroke-width:0.5;"/><text fill="#000000" font-family="sans-serif" font-size="14" lengthAdjust="spacing" textLength="142.4746" x="771.887" y="303.8515">&#1055;&#1088;&#1086;&#1080;&#1079;&#1074;&#1077;&#1089;&#1090;&#1080; &#1086;&#1087;&#1083;&#1072;&#1090;&#1091;</text></g><g id="elem_pay_bonus"><ellipse cx="1215.5982" cy="379.0016" fill="#F1F1F1" rx="92.0582" ry="20.8116" style="stroke:#181818;stroke-width:0.5;"/><text fill="#000000" font-family="sans-serif" font-size="14" lengthAdjust="spacing" textLength="146.3848" x="1142.4058" y="381.8483">&#1054;&#1087;&#1083;&#1072;&#1090;&#1080;&#1090;&#1100; &#1073;&#1086;&#1085;&#1091;&#1089;&#1072;&#1084;&#1080;</text></g><g id="elem_pay_cash"><ellipse cx="1215.6" cy="300.998" fill="#F1F1F1" rx="98.04" ry="22.008" style="stroke:#181818;stroke-width:0.5;"/><text fill="#000000" font-family="sans-serif" font-size="14" lengthAdjust="spacing" textLength="159.7285" x="1135.7357" y="303.8447">&#1054;&#1087;&#1083;&#1072;&#1090;&#1080;&#1090;&#1100; &#1085;&#1072;&#1083;&#1080;&#1095;&#1085;&#1099;&#1084;&#1080;</text></g><g id="elem_pay_card"><ellipse cx="1215.6023" cy="225.0005" fill="#F1F1F1" rx="83.8023" ry="19.1605" style="stroke:#181818;stroke-width:0.5;"/><text fill="#000000" font-family="sans-serif" font-size="14" lengthAdjust="spacing" textLength="127.5518" x="1151.5016" y="227.9584">&#1054;&#1087;&#1083;&#1072;&#1090;&#1080;&#1090;&#1100; &#1082;&#1072;&#1088;&#1090;&#1086;&#1081;</text></g><g id="elem_ticket"><ellipse cx="843.125" cy="227.003" fill="#F1F1F1" rx="79.765" ry="18.353" style="stroke:#181818;stroke-width:0.5;"/><text fill="#000000" font-family="sans-serif" font-size="14" lengthAdjust="spacing" textLength="117.9541" x="782.3925" y="230.4096">&#1055;&#1086;&#1083;&#1091;&#1095;&#1080;&#1090;&#1100; &#1090;&#1072;&#1083;&#1086;&#1085;</text></g><g id="elem_loyal"><ellipse cx="843.1194" cy="147.0019" fill="#F1F1F1" rx="122.7094" ry="26.9419" style="stroke:#181818;stroke-width:0.5;"/><text fill="#000000" font-family="sans-serif" font-size="14" lengthAdjust="spacing" textLength="136.0352" x="775.1018" y="141.7001">&#1047;&#1072;&#1088;&#1077;&#1075;&#1080;&#1089;&#1090;&#1088;&#1080;&#1088;&#1086;&#1074;&#1072;&#1090;&#1100;</text><text fill="#000000" font-family="sans-serif" font-size="14" lengthAdjust="spacing" textLength="163.3926" x="761.4231" y="157.997">&#1074; &#1089;&#1080;&#1089;&#1090;&#1077;&#1084;&#1077; &#1083;&#1086;&#1103;&#1083;&#1100;&#1085;&#1086;&#1089;&#1090;&#1080;</text></g><g id="elem_canc"><ellipse cx="430.0576" cy="844.9955" fill="#F1F1F1" rx="110.8776" ry="24.5755" style="stroke:#181818;stroke-width:0.5;"/><text fill="#000000" font-family="sans-serif" font-size="14" lengthAdjust="spacing" textLength="187.7764" x="336.1694" y="847.8422">&#1054;&#1092;&#1086;&#1088;&#1084;&#1080;&#1090;&#1100; &#1086;&#1090;&#1082;&#1072;&#1079; &#1087;&#1086;&#1082;&#1091;&#1087;&#1082;&#1080;</text></g><g id="elem_canc_client"><ellipse cx="843.1243" cy="951.9969" fill="#F1F1F1" rx="151.1343" ry="32.6269" style="stroke:#181818;stroke-width:0.5;"/><text fill="#000000" font-family="sans-serif" font-size="14" lengthAdjust="spacing" textLength="272.8428" x="706.7029" y="954.8435">&#1054;&#1092;&#1086;&#1088;&#1084;&#1080;&#1090;&#1100; &#1086;&#1090;&#1082;&#1072;&#1079; &#1087;&#1086; &#1079;&#1072;&#1087;&#1088;&#1086;&#1089;&#1091; &#1082;&#1083;&#1080;&#1077;&#1085;&#1090;&#1072;</text></g><g id="elem_canc_no_stock"><ellipse cx="843.1201" cy="847.998" fill="#F1F1F1" rx="167.4401" ry="35.888" style="stroke:#181818;stroke-width:0.5;"/><text fill="#000000" font-family="sans-serif" font-size="14" lengthAdjust="spacing" textLength="306.626" x="689.8071" y="850.8447">&#1054;&#1092;&#1086;&#1088;&#1084;&#1080;&#1090;&#1100; &#1086;&#1090;&#1082;&#1072;&#1079; &#1080;&#1079;-&#1079;&#1072; &#1086;&#1090;&#1089;&#1091;&#1090;&#1089;&#1090;&#1074;&#1080;&#1103; &#1090;&#1086;&#1074;&#1072;&#1088;&#1072;</text></g><g id="elem_canc_other"><ellipse cx="843.1173" cy="745.0015" fill="#F1F1F1" rx="148.5073" ry="32.1015" style="stroke:#181818;stroke-width:0.5;"/><text fill="#000000" font-family="sans-serif" font-size="14" lengthAdjust="spacing" textLength="267.374" x="709.4303" y="747.8481">&#1054;&#1092;&#1086;&#1088;&#1084;&#1080;&#1090;&#1100; &#1086;&#1090;&#1082;&#1072;&#1079; &#1087;&#1086; &#1076;&#1088;&#1091;&#1075;&#1086;&#1081; &#1087;&#1088;&#1080;&#1095;&#1080;&#1085;&#1077;</text></g><g id="elem_addmenu"><ellipse cx="430.0595" cy="563.0019" fill="#F1F1F1" rx="95.5095" ry="21.5019" style="stroke:#181818;stroke-width:0.5;"/><text fill="#000000" font-family="sans-serif" font-size="14" lengthAdjust="spacing" textLength="154.1094" x="353.0048" y="565.8486">&#1057;&#1092;&#1086;&#1088;&#1084;&#1080;&#1088;&#1086;&#1074;&#1072;&#1090;&#1100; &#1084;&#1077;&#1085;&#1102;</text></g><g id="elem_acs"><ellipse cx="843.1182" cy="650.9996" fill="#F1F1F1" rx="120.4482" ry="26.4896" style="stroke:#181818;stroke-width:0.5;"/><text fill="#000000" font-family="sans-serif" font-size="14" lengthAdjust="spacing" textLength="154" x="763.1182" y="646.5988">&#1042;&#1085;&#1077;&#1089;&#1090;&#1080; &#1080;&#1085;&#1092;&#1086;&#1088;&#1084;&#1072;&#1094;&#1080;&#1102;</text><text fill="#000000" font-family="sans-serif" font-size="14" lengthAdjust="spacing" textLength="76.8154" x="801.7104" y="662.8956">&#1087;&#1086; &#1072;&#1082;&#1094;&#1080;&#1103;&#1084;</text></g><g id="elem_cena"><ellipse cx="843.1182" cy="562.9996" fill="#F1F1F1" rx="120.4482" ry="26.4896" style="stroke:#181818;stroke-width:0.5;"/><text fill="#000000" font-family="sans-serif" font-size="14" lengthAdjust="spacing" textLength="154" x="763.1182" y="558.5988">&#1042;&#1085;&#1077;&#1089;&#1090;&#1080; &#1080;&#1085;&#1092;&#1086;&#1088;&#1084;&#1072;&#1094;&#1080;&#1102;</text><text fill="#000000" font-family="sans-serif" font-size="14" lengthAdjust="spacing" textLength="68.6055" x="805.8154" y="574.8956">&#1087;&#1086; &#1094;&#1077;&#1085;&#1072;&#1084;</text></g><g id="elem_poc"><ellipse cx="843.1182" cy="474.9996" fill="#F1F1F1" rx="120.4482" ry="26.4896" style="stroke:#181818;stroke-width:0.5;"/><text fill="#000000" font-family="sans-serif" font-size="14" lengthAdjust="spacing" textLength="154" x="763.1182" y="470.5988">&#1042;&#1085;&#1077;&#1089;&#1090;&#1080; &#1080;&#1085;&#1092;&#1086;&#1088;&#1084;&#1072;&#1094;&#1080;&#1102;</text><text fill="#000000" font-family="sans-serif" font-size="14" lengthAdjust="spacing" textLength="109.3408" x="785.4477" y="486.8956">&#1087;&#1086; &#1090;&#1077;&#1093;. &#1082;&#1072;&#1088;&#1090;&#1072;&#1084;</text></g><g id="elem_robot"><ellipse cx="430.0571" cy="955.0034" fill="#F1F1F1" rx="136.6171" ry="29.7234" style="stroke:#181818;stroke-width:0.5;"/><text fill="#000000" font-family="sans-serif" font-size="14" lengthAdjust="spacing" textLength="198.543" x="327.7856" y="950.6025">&#1055;&#1088;&#1086;&#1089;&#1084;&#1086;&#1090;&#1088;&#1077;&#1090;&#1100; &#1080;&#1085;&#1092;&#1086;&#1088;&#1084;&#1072;&#1094;&#1080;&#1102;</text><text fill="#000000" font-family="sans-serif" font-size="14" lengthAdjust="spacing" textLength="153.542" x="350.2861" y="966.8994">&#1086; &#1089;&#1086;&#1089;&#1090;&#1086;&#1103;&#1085;&#1080;&#1080; &#1088;&#1086;&#1073;&#1086;&#1090;&#1086;&#1074;</text></g><!--entity client--><g id="elem_client"><ellipse cx="118.2225" cy="233.35" fill="#F1F1F1" rx="8" ry="8" style="stroke:#181818;stroke-width:0.5;"/><path d="M118.2225,241.35 L118.2225,268.35 M105.2225,249.35 L131.2225,249.35 M118.2225,268.35 L105.2225,283.35 M118.2225,268.35 L131.2225,283.35 " fill="none" style="stroke:#181818;stroke-width:0.5;"/><text fill="#000000" font-family="sans-serif" font-size="14" lengthAdjust="spacing" textLength="86.625" x="74.91" y="297.8451">&#1055;&#1086;&#1089;&#1077;&#1090;&#1080;&#1090;&#1077;&#1083;&#1100;</text></g><!--entity mvariety--><g id="elem_mvariety"><ellipse cx="118.2192" cy="533.35" fill="#F1F1F1" rx="8" ry="8" style="stroke:#181818;stroke-width:0.5;"/><path d="M118.2192,541.35 L118.2192,568.35 M105.2192,549.35 L131.2192,549.35 M118.2192,568.35 L105.2192,583.35 M118.2192,568.35 L131.2192,583.35 " fill="none" style="stroke:#181818;stroke-width:0.5;"/><text fill="#000000" font-family="sans-serif" font-size="14" lengthAdjust="spacing" textLength="208.3184" x="14.06" y="597.8451">&#1052;&#1077;&#1085;&#1077;&#1076;&#1078;&#1077;&#1088; &#1087;&#1086; &#1072;&#1089;&#1089;&#1086;&#1088;&#1090;&#1080;&#1084;&#1077;&#1085;&#1090;&#1091;</text></g><!--entity mguest--><g id="elem_mguest"><ellipse cx="118.2222" cy="814.35" fill="#F1F1F1" rx="8" ry="8" style="stroke:#181818;stroke-width:0.5;"/><path d="M118.2222,822.35 L118.2222,849.35 M105.2222,830.35 L131.2222,830.35 M118.2222,849.35 L105.2222,864.35 M118.2222,849.35 L131.2222,864.35 " fill="none" style="stroke:#181818;stroke-width:0.5;"/><text fill="#000000" font-family="sans-serif" font-size="14" lengthAdjust="spacing" textLength="224.4443" x="6" y="878.8451">&#1052;&#1077;&#1085;&#1077;&#1076;&#1078;&#1077;&#1088; &#1087;&#1086; &#1075;&#1086;&#1089;&#1090;&#1077;&#1087;&#1088;&#1080;&#1080;&#1084;&#1089;&#1090;&#1074;&#1091;</text></g><!--entity mbuy--><g id="elem_mbuy"><ellipse cx="118.2202" cy="925.35" fill="#F1F1F1" rx="8" ry="8" style="stroke:#181818;stroke-width:0.5;"/><path d="M118.2202,933.35 L118.2202,960.35 M105.2202,941.35 L131.2202,941.35 M118.2202,960.35 L105.2202,975.35 M118.2202,960.35 L131.2202,975.35 " fill="none" style="stroke:#181818;stroke-width:0.5;"/><text fill="#000000" font-family="sans-serif" font-size="14" lengthAdjust="spacing" textLength="162.3604" x="37.04" y="989.8451">&#1056;&#1072;&#1073;&#1086;&#1090;&#1085;&#1080;&#1082; &#1087;&#1086;&#1087;&#1086;&#1083;&#1085;&#1077;&#1085;&#1080;&#1103;</text></g><!--link client to offer--><g id="link_client_offer"><path d="M161.98,258.03 C212.2,252.2 296.31,242.42 356.73,235.4 " fill="none" id="client-offer" style="stroke:#181818;stroke-width:1.0;"/></g><!--link client to getoffer--><g id="link_client_getoffer"><path d="M161.98,267.97 C212.86,273.88 298.54,283.83 359.11,290.87 " fill="none" id="client-getoffer" style="stroke:#181818;stroke-width:1.0;"/></g><!--link offer to menu--><g id="link_offer_menu"><path d="M460.18,209.41 C505.02,182.97 594.35,132.92 675.68,103 C704.55,92.38 731.4251,85.1215 760.1751,78.6815 " fill="none" id="offer-to-menu" style="stroke:#181818;stroke-width:1.0;stroke-dasharray:7.0,7.0;"/><polygon fill="#181818" points="766.03,77.37,756.3733,75.434,761.1509,78.4629,758.122,83.2405,766.03,77.37" style="stroke:#181818;stroke-width:1.0;"/><text fill="#000000" font-family="sans-serif" font-size="13" lengthAdjust="spacing" textLength="47.0996" x="597.68" y="113.0669">include</text></g><!--link menu to basket--><g id="link_menu_basket"><path d="M942.43,63 C1001.7,63 1070.33,63 1126.44,63 " fill="none" id="menu-to-basket" style="stroke:#181818;stroke-width:1.0;stroke-dasharray:7.0,7.0;"/><polygon fill="#181818" points="1132.44,63,1123.44,59,1127.44,63,1123.44,67,1132.44,63" style="stroke:#181818;stroke-width:1.0;"/><text fill="#000000" font-family="sans-serif" font-size="13" lengthAdjust="spacing" textLength="45.2778" x="1041.56" y="59.0669">extend</text></g><!--link offer to pay--><g id="link_offer_pay"><path d="M494.84,238.48 C569.71,251.96 687.5949,273.1872 765.3849,287.1872 " fill="none" id="offer-to-pay" style="stroke:#181818;stroke-width:1.0;stroke-dasharray:7.0,7.0;"/><polygon fill="#181818" points="771.29,288.25,763.1408,282.7191,766.3691,287.3644,761.7238,290.5926,771.29,288.25" style="stroke:#181818;stroke-width:1.0;"/><text fill="#000000" font-family="sans-serif" font-size="13" lengthAdjust="spacing" textLength="47.0996" x="597.68" y="254.0669">include</text></g><!--link offer to place--><g id="link_offer_place"><path d="M496.44,238.04 C519.49,243.54 545.04,251.55 566.68,263 C582.27,271.25 582.52,278.47 596.68,289 C630.03,313.79 637.69,322.17 675.68,339 C699.53,349.56 720.6039,356.6721 745.6739,363.5521 " fill="none" id="offer-to-place" style="stroke:#181818;stroke-width:1.0;stroke-dasharray:7.0,7.0;"/><polygon fill="#181818" points="751.46,365.14,743.8395,358.9008,746.6383,363.8168,741.7223,366.6156,751.46,365.14" style="stroke:#181818;stroke-width:1.0;"/><text fill="#000000" font-family="sans-serif" font-size="13" lengthAdjust="spacing" textLength="47.0996" x="597.68" y="285.0669">include</text></g><!--link offer to ticket--><g id="link_offer_ticket"><path d="M511.29,227 C584.07,227 684.75,227 757.14,227 " fill="none" id="offer-to-ticket" style="stroke:#181818;stroke-width:1.0;stroke-dasharray:7.0,7.0;"/><polygon fill="#181818" points="763.14,227,754.14,223,758.14,227,754.14,231,763.14,227" style="stroke:#181818;stroke-width:1.0;"/><text fill="#000000" font-family="sans-serif" font-size="13" lengthAdjust="spacing" textLength="47.0996" x="597.68" y="223.0669">include</text></g><!--reverse link offer to loyal--><g id="link_offer_loyal"><path d="M498.9395,213.7938 C567.2295,200.5038 671.87,180.13 750.24,164.88 " fill="none" id="offer-backto-loyal" style="stroke:#181818;stroke-width:1.0;stroke-dasharray:7.0,7.0;"/><polygon fill="#181818" points="493.05,214.94,502.6484,217.1471,497.9579,213.9849,501.1202,209.2944,493.05,214.94" style="stroke:#181818;stroke-width:1.0;"/><text fill="#000000" font-family="sans-serif" font-size="13" lengthAdjust="spacing" textLength="45.2778" x="598.68" y="183.0669">extend</text></g><!--reverse link pay to pay_bonus--><g id="link_pay_pay_bonus"><path d="M927.9636,318.6494 C994.7736,332.7194 1079.79,350.62 1147.06,364.78 " fill="none" id="pay-backto-pay_bonus" style="stroke:#181818;stroke-width:1.0;stroke-dasharray:7.0,7.0;"/><polygon fill="none" points="910.35,314.94,926.7272,324.5206,929.2001,312.7782,910.35,314.94" style="stroke:#181818;stroke-width:1.0;"/><text fill="#000000" font-family="sans-serif" font-size="13" lengthAdjust="spacing" textLength="45.2778" x="1041.56" y="341.0669">extend</text></g><!--reverse link pay to pay_cash--><g id="link_pay_pay_cash"><path d="M951.8,301 C1007.27,301 1060.47,301 1117.3,301 " fill="none" id="pay-backto-pay_cash" style="stroke:#181818;stroke-width:1.0;stroke-dasharray:7.0,7.0;"/><polygon fill="none" points="933.8,301,951.8,307,951.8,295,933.8,301" style="stroke:#181818;stroke-width:1.0;"/><text fill="#000000" font-family="sans-serif" font-size="13" lengthAdjust="spacing" textLength="45.2778" x="1041.56" y="297.0669">extend</text></g><!--reverse link pay to pay_card--><g id="link_pay_pay_card"><path d="M928.8429,283.6233 C997.3429,269.5733 1085.2,251.54 1152.02,237.84 " fill="none" id="pay-backto-pay_card" style="stroke:#181818;stroke-width:1.0;stroke-dasharray:7.0,7.0;"/><polygon fill="none" points="911.21,287.24,930.0485,289.501,927.6374,277.7457,911.21,287.24" style="stroke:#181818;stroke-width:1.0;"/><text fill="#000000" font-family="sans-serif" font-size="13" lengthAdjust="spacing" textLength="45.2778" x="1041.56" y="248.0669">extend</text></g><!--link mvariety to addmenu--><g id="link_mvariety_addmenu"><path d="M222.82,563 C258.8,563 298.94,563 334.18,563 " fill="none" id="mvariety-addmenu" style="stroke:#181818;stroke-width:1.0;"/></g><!--link mguest to canc--><g id="link_mguest_canc"><path d="M230.64,844.36 C259.36,844.45 290.24,844.55 318.89,844.64 " fill="none" id="mguest-canc" style="stroke:#181818;stroke-width:1.0;"/></g><!--reverse link canc to canc_client--><g id="link_canc_canc_client"><path d="M520.5497,868.2937 C587.7897,885.7937 671.17,907.5 745.38,926.82 " fill="none" id="canc-backto-canc_client" style="stroke:#181818;stroke-width:1.0;stroke-dasharray:7.0,7.0;"/><polygon fill="none" points="503.13,863.76,519.0385,874.1002,522.0609,862.4871,503.13,863.76" style="stroke:#181818;stroke-width:1.0;"/><text fill="#000000" font-family="sans-serif" font-size="13" lengthAdjust="spacing" textLength="45.2778" x="598.68" y="885.0669">extend</text></g><!--reverse link canc to canc_no_stock--><g id="link_canc_canc_no_stock"><path d="M559.2195,845.9352 C600.4795,846.2452 630.33,846.45 675.56,846.78 " fill="none" id="canc-backto-canc_no_stock" style="stroke:#181818;stroke-width:1.0;stroke-dasharray:7.0,7.0;"/><polygon fill="none" points="541.22,845.8,559.1744,851.9351,559.2646,839.9354,541.22,845.8" style="stroke:#181818;stroke-width:1.0;"/><text fill="#000000" font-family="sans-serif" font-size="13" lengthAdjust="spacing" textLength="45.2778" x="598.68" y="843.0669">extend</text></g><!--reverse link canc to canc_other--><g id="link_canc_canc_other"><path d="M523.4704,822.5171 C589.9304,806.3571 670.01,786.87 742.93,769.13 " fill="none" id="canc-backto-canc_other" style="stroke:#181818;stroke-width:1.0;stroke-dasharray:7.0,7.0;"/><polygon fill="none" points="505.98,826.77,524.888,828.3473,522.0528,816.687,505.98,826.77" style="stroke:#181818;stroke-width:1.0;"/><text fill="#000000" font-family="sans-serif" font-size="13" lengthAdjust="spacing" textLength="45.2778" x="598.68" y="791.0669">extend</text></g><!--link addmenu to acs--><g id="link_addmenu_acs"><path d="M500.33,577.83 C570.57,592.87 673.5928,614.9245 749.5328,631.1745 " fill="none" id="addmenu-to-acs" style="stroke:#181818;stroke-width:1.0;stroke-dasharray:7.0,7.0;"/><polygon fill="#181818" points="755.4,632.43,747.4362,626.6353,750.5107,631.3838,745.7622,634.4582,755.4,632.43" style="stroke:#181818;stroke-width:1.0;"/><text fill="#000000" font-family="sans-serif" font-size="13" lengthAdjust="spacing" textLength="47.0996" x="597.68" y="596.0669">include</text></g><!--link addmenu to cena--><g id="link_addmenu_cena"><path d="M525.88,563 C584.33,563 653.8,563 716.35,563 " fill="none" id="addmenu-to-cena" style="stroke:#181818;stroke-width:1.0;stroke-dasharray:7.0,7.0;"/><polygon fill="#181818" points="722.35,563,713.35,559,717.35,563,713.35,567,722.35,563" style="stroke:#181818;stroke-width:1.0;"/><text fill="#000000" font-family="sans-serif" font-size="13" lengthAdjust="spacing" textLength="47.0996" x="597.68" y="559.0669">include</text></g><!--link addmenu to poc--><g id="link_addmenu_poc"><path d="M500.33,548.17 C570.57,533.13 673.5928,511.0755 749.5328,494.8255 " fill="none" id="addmenu-to-poc" style="stroke:#181818;stroke-width:1.0;stroke-dasharray:7.0,7.0;"/><polygon fill="#181818" points="755.4,493.57,745.7622,491.5418,750.5107,494.6162,747.4362,499.3647,755.4,493.57" style="stroke:#181818;stroke-width:1.0;"/><text fill="#000000" font-family="sans-serif" font-size="13" lengthAdjust="spacing" textLength="47.0996" x="597.68" y="515.0669">include</text></g><!--link mbuy to robot--><g id="link_mbuy_robot"><path d="M199.82,955 C228.33,955 261.24,955 293.07,955 " fill="none" id="mbuy-robot" style="stroke:#181818;stroke-width:1.0;"/></g><!--SRC=[dLNDRjf04BxxALQvXmUeeagL-WWzHeesPY4Mn4QsgOhQIX3wSsWKf5vwIPD6VG52Go7yvHLsNo5FqczcRRpGG9CURF3Ep3VZRxuPrrKb5Maaug1wb8fo42i_3QBGIsf1s92nF1OlLKKsw-ahzIPzKG-guR4AK-7Zfc9F-caKYnrzgHUceuVcH8zn3VNKdEu8cGY_7i1nwNOEqnpNZVuDvxRGTteXTDzq4BmmRGhNC_8n9wRB0CUlPHoejFKFY5-KdpFVcJP00CFFWnocsbH9KSSFtTVN23a1r5XF68IlAMFZqFHit66pvNaDwTTaLGbz1ODDCzDzyTRpcedoPQ80UM4-q2l000RCgT0Zv9ZW6Z5GLAc0hiBzafAPhldyi7jLfUiH5t2PizCYJu9QUi9qHCRPcIrPXKqdx0hkrwYhRzDCkCWHtdgUKNCeavfAdOYVjeuyWZppL-kRJyXyjX_Ujy_rm1OzrSFxzdVoc-gn80Eg563-2_wWAp1odaPT-ifb08WBH8tq08qaLiU2kp3bpBQuXcojK91PSzBGGteFgATFdEGX1uTHs4os1Swvy37edwDEDnGHHziYmGqBTQ5ldPYulAMtyAPiA9KZqi1V9VmRGQA3lwowIC3CpS2sO3y4rNZ5Gdf3GN2cHsDcIQRw6BmUjMHzcon9zDnVA_g9wU9taaNxClGV7spxJmD75NI96t1gnrVtbu07sH9u72u4iKkuV4YmVCSaqqmA9dx0V3a9mkWWIIE_zfJIRz35BkqDVIliqg1-qVWNk55wj3A2Lmweqw3L-PFbyje8VYNKNE4FZbEs1z4DEkZfcKNoawUZu678yhOOsDFoFq2WC_EnLAWzXsj4_le8GvapxbMRzl_6ZK6edKog95rQl6F1DDfD33evHHmTHgddlVSygnknkvjjp-9vkHuz_X6bqdFUU-AP24A_tYmhZn_ftEutMF3zKc7PYS3eEW7EEMsg1orsTFyoxPLATl2AB1w1xxs3ORcF2kEAZHREHbDSTY3pRo4naAlCirysEkBXfPi5S4Qlm5WpvuEpqO4dm2aXIyjaG9uE4ww5HBV1104v5e- -hrGxD_qF]--></g></svg>