<svg xmlns="http://www.w3.org/2000/svg" xmlns:xlink="http://www.w3.org/1999/xlink" contentStyleType="text/css" height="1675px" preserveAspectRatio="none" style="width:868px;height:1675px;background:#FFFFFF;" version="1.1" viewBox="0 0 868 1675" width="868px" zoomAndPan="magnify"><defs/><g><!--class Client--><g id="elem_Client"><rect codeLine="1" fill="#F1F1F1" height="113.1875" id="Client" rx="2.5" ry="2.5" style="stroke:#181818;stroke-width:0.5;" width="190.9854" x="190.83" y="740.53"/><ellipse cx="261.8075" cy="756.53" fill="#ADD1B2" rx="11" ry="11" style="stroke:#181818;stroke-width:1.0;"/><path d="M265.9169,762.53 L258.1982,762.53 L258.1982,750.1394 L265.9169,750.1394 L265.9169,752.2956 L260.6513,752.2956 L260.6513,754.9675 L265.4169,754.9675 L265.4169,757.1238 L260.6513,757.1238 L260.6513,760.3738 L265.9169,760.3738 L265.9169,762.53 Z " fill="#000000"/><text fill="#000000" font-family="sans-serif" font-size="14" lengthAdjust="spacing" textLength="40.5303" x="282.3075" y="761.3767">Client</text><line style="stroke:#181818;stroke-width:0.5;" x1="191.83" x2="380.8154" y1="772.53" y2="772.53"/><ellipse cx="201.83" cy="786.1784" fill="#000000" rx="3" ry="3" style="stroke:#000000;stroke-width:1.0;"/><text fill="#000000" font-family="sans-serif" font-size="14" lengthAdjust="spacing" textLength="142.0029" x="210.83" y="789.5251">client_id: UUID &#171;PK&#187;</text><line style="stroke:#181818;stroke-width:1.0;" x1="191.83" x2="380.8154" y1="796.8269" y2="796.8269"/><text fill="#000000" font-family="sans-serif" font-size="14" lengthAdjust="spacing" textLength="94.7598" x="196.83" y="813.822">phone: String</text><text fill="#000000" font-family="sans-serif" font-size="14" lengthAdjust="spacing" textLength="178.9854" x="196.83" y="830.1189">loyalty_member: Boolean</text><text fill="#000000" font-family="sans-serif" font-size="14" lengthAdjust="spacing" textLength="102.7715" x="196.83" y="846.4157">session: String</text></g><!--class LoyaltyProgram--><g id="elem_LoyaltyProgram"><rect codeLine="9" fill="#F1F1F1" height="194.6719" id="LoyaltyProgram" rx="2.5" ry="2.5" style="stroke:#181818;stroke-width:0.5;" width="243.6016" x="164.52" y="963.31"/><ellipse cx="226.8125" cy="979.31" fill="#ADD1B2" rx="11" ry="11" style="stroke:#181818;stroke-width:1.0;"/><path d="M230.9219,985.31 L223.2031,985.31 L223.2031,972.9194 L230.9219,972.9194 L230.9219,975.0756 L225.6562,975.0756 L225.6562,977.7475 L230.4219,977.7475 L230.4219,979.9038 L225.6562,979.9038 L225.6562,983.1538 L230.9219,983.1538 L230.9219,985.31 Z " fill="#000000"/><text fill="#000000" font-family="sans-serif" font-size="14" lengthAdjust="spacing" textLength="110.5166" x="247.3125" y="984.1567">LoyaltyProgram</text><line style="stroke:#181818;stroke-width:0.5;" x1="165.52" x2="407.1216" y1="995.31" y2="995.31"/><ellipse cx="175.52" cy="1008.9584" fill="#000000" rx="3" ry="3" style="stroke:#000000;stroke-width:1.0;"/><text fill="#000000" font-family="sans-serif" font-size="14" lengthAdjust="spacing" textLength="217.6016" x="184.52" y="1012.3051">loyalty_program_id: UUID &#171;PK&#187;</text><line style="stroke:#181818;stroke-width:1.0;" x1="165.52" x2="407.1216" y1="1019.6069" y2="1019.6069"/><text fill="#000000" font-family="sans-serif" font-size="14" lengthAdjust="spacing" textLength="141.6133" x="170.52" y="1036.602">client_id: UUID &#171;FK&#187;</text><text fill="#000000" font-family="sans-serif" font-size="14" lengthAdjust="spacing" textLength="152.0176" x="170.52" y="1052.8989">bonus_points: Integer</text><text fill="#000000" font-family="sans-serif" font-size="14" lengthAdjust="spacing" textLength="119.2324" x="170.52" y="1069.1957">full_name: String</text><text fill="#000000" font-family="sans-serif" font-size="14" lengthAdjust="spacing" textLength="94.7598" x="170.52" y="1085.4926">phone: String</text><text fill="#000000" font-family="sans-serif" font-size="14" lengthAdjust="spacing" textLength="89.5576" x="170.52" y="1101.7895">email: String</text><text fill="#000000" font-family="sans-serif" font-size="14" lengthAdjust="spacing" textLength="101.2744" x="170.52" y="1118.0864">birthday: Date</text><text fill="#000000" font-family="sans-serif" font-size="14" lengthAdjust="spacing" textLength="129.6914" x="170.52" y="1134.3832">client_level: String</text><text fill="#000000" font-family="sans-serif" font-size="14" lengthAdjust="spacing" textLength="106.415" x="170.52" y="1150.6801">joined_at: Date</text></g><!--class Menu--><g id="elem_Menu"><rect codeLine="22" fill="#F1F1F1" height="113.1875" id="Menu" rx="2.5" ry="2.5" style="stroke:#181818;stroke-width:0.5;" width="169.5479" x="634.54" y="1004.05"/><ellipse cx="695.8447" cy="1020.05" fill="#ADD1B2" rx="11" ry="11" style="stroke:#181818;stroke-width:1.0;"/><path d="M699.9541,1026.05 L692.2353,1026.05 L692.2353,1013.6594 L699.9541,1013.6594 L699.9541,1015.8156 L694.6884,1015.8156 L694.6884,1018.4875 L699.4541,1018.4875 L699.4541,1020.6438 L694.6884,1020.6438 L694.6884,1023.8938 L699.9541,1023.8938 L699.9541,1026.05 Z " fill="#000000"/><text fill="#000000" font-family="sans-serif" font-size="14" lengthAdjust="spacing" textLength="38.4385" x="716.3447" y="1024.8967">Menu</text><line style="stroke:#181818;stroke-width:0.5;" x1="635.54" x2="803.0879" y1="1036.05" y2="1036.05"/><ellipse cx="645.54" cy="1049.6984" fill="#000000" rx="3" ry="3" style="stroke:#000000;stroke-width:1.0;"/><text fill="#000000" font-family="sans-serif" font-size="14" lengthAdjust="spacing" textLength="143.5479" x="654.54" y="1053.0451">menu_id: UUID &#171;PK&#187;</text><line style="stroke:#181818;stroke-width:1.0;" x1="635.54" x2="803.0879" y1="1060.3469" y2="1060.3469"/><text fill="#000000" font-family="sans-serif" font-size="14" lengthAdjust="spacing" textLength="90.6514" x="640.54" y="1077.342">name: String</text><text fill="#000000" font-family="sans-serif" font-size="14" lengthAdjust="spacing" textLength="114.1738" x="640.54" y="1093.6389">valid_until: Date</text><text fill="#000000" font-family="sans-serif" font-size="14" lengthAdjust="spacing" textLength="82.2227" x="640.54" y="1109.9357">type: String</text></g><!--class Dish--><g id="elem_Dish"><rect codeLine="30" fill="#F1F1F1" height="178.375" id="Dish" rx="2.5" ry="2.5" style="stroke:#181818;stroke-width:0.5;" width="158.4941" x="564.07" y="707.93"/><ellipse cx="623.6486" cy="723.93" fill="#ADD1B2" rx="11" ry="11" style="stroke:#181818;stroke-width:1.0;"/><path d="M627.758,729.93 L620.0392,729.93 L620.0392,717.5394 L627.758,717.5394 L627.758,719.6956 L622.4924,719.6956 L622.4924,722.3675 L627.258,722.3675 L627.258,724.5238 L622.4924,724.5238 L622.4924,727.7738 L627.758,727.7738 L627.758,729.93 Z " fill="#000000"/><text fill="#000000" font-family="sans-serif" font-size="14" lengthAdjust="spacing" textLength="30.8369" x="644.1486" y="728.7767">Dish</text><line style="stroke:#181818;stroke-width:0.5;" x1="565.07" x2="721.5641" y1="739.93" y2="739.93"/><ellipse cx="575.07" cy="753.5784" fill="#000000" rx="3" ry="3" style="stroke:#000000;stroke-width:1.0;"/><text fill="#000000" font-family="sans-serif" font-size="14" lengthAdjust="spacing" textLength="132.4941" x="584.07" y="756.9251">dish_id: UUID &#171;PK&#187;</text><line style="stroke:#181818;stroke-width:1.0;" x1="565.07" x2="721.5641" y1="764.2269" y2="764.2269"/><text fill="#000000" font-family="sans-serif" font-size="14" lengthAdjust="spacing" textLength="90.6514" x="570.07" y="781.222">name: String</text><text fill="#000000" font-family="sans-serif" font-size="14" lengthAdjust="spacing" textLength="82.2227" x="570.07" y="797.5189">type: String</text><text fill="#000000" font-family="sans-serif" font-size="14" lengthAdjust="spacing" textLength="128.7891" x="570.07" y="813.8157">description: String</text><text fill="#000000" font-family="sans-serif" font-size="14" lengthAdjust="spacing" textLength="101.0967" x="570.07" y="830.1126">price: Decimal</text><text fill="#000000" font-family="sans-serif" font-size="14" lengthAdjust="spacing" textLength="91.3281" x="570.07" y="846.4095">photo: String</text><text fill="#000000" font-family="sans-serif" font-size="14" lengthAdjust="spacing" textLength="103.291" x="570.07" y="862.7064">ad_text: String</text><text fill="#000000" font-family="sans-serif" font-size="14" lengthAdjust="spacing" textLength="143.1582" x="570.07" y="879.0032">menu_id: UUID &#171;FK&#187;</text></g><!--class Ingredient--><g id="elem_Ingredient"><rect codeLine="42" fill="#F1F1F1" height="194.6719" id="Ingredient" rx="2.5" ry="2.5" style="stroke:#181818;stroke-width:0.5;" width="201.3213" x="644.66" y="229.78"/><ellipse cx="705.0658" cy="245.78" fill="#ADD1B2" rx="11" ry="11" style="stroke:#181818;stroke-width:1.0;"/><path d="M709.1751,251.78 L701.4564,251.78 L701.4564,239.3894 L709.1751,239.3894 L709.1751,241.5456 L703.9095,241.5456 L703.9095,244.2175 L708.6751,244.2175 L708.6751,246.3737 L703.9095,246.3737 L703.9095,249.6237 L709.1751,249.6237 L709.1751,251.78 Z " fill="#000000"/><text fill="#000000" font-family="sans-serif" font-size="14" lengthAdjust="spacing" textLength="72.0098" x="725.5658" y="250.6267">Ingredient</text><line style="stroke:#181818;stroke-width:0.5;" x1="645.66" x2="844.9813" y1="261.78" y2="261.78"/><ellipse cx="655.66" cy="275.4284" fill="#000000" rx="3" ry="3" style="stroke:#000000;stroke-width:1.0;"/><text fill="#000000" font-family="sans-serif" font-size="14" lengthAdjust="spacing" textLength="175.3213" x="664.66" y="278.7751">ingredient_id: UUID &#171;PK&#187;</text><line style="stroke:#181818;stroke-width:1.0;" x1="645.66" x2="844.9813" y1="286.0769" y2="286.0769"/><text fill="#000000" font-family="sans-serif" font-size="14" lengthAdjust="spacing" textLength="90.6514" x="650.66" y="303.072">name: String</text><text fill="#000000" font-family="sans-serif" font-size="14" lengthAdjust="spacing" textLength="72.5977" x="650.66" y="319.3689">bju: String</text><text fill="#000000" font-family="sans-serif" font-size="14" lengthAdjust="spacing" textLength="113.8115" x="650.66" y="335.6657">calories: Integer</text><text fill="#000000" font-family="sans-serif" font-size="14" lengthAdjust="spacing" textLength="91.3281" x="650.66" y="351.9626">photo: String</text><text fill="#000000" font-family="sans-serif" font-size="14" lengthAdjust="spacing" textLength="101.0967" x="650.66" y="368.2595">price: Decimal</text><text fill="#000000" font-family="sans-serif" font-size="14" lengthAdjust="spacing" textLength="129.0488" x="650.66" y="384.5564">available: Boolean</text><text fill="#000000" font-family="sans-serif" font-size="14" lengthAdjust="spacing" textLength="155.3945" x="650.66" y="400.8532">max_quantity: Integer</text><text fill="#000000" font-family="sans-serif" font-size="14" lengthAdjust="spacing" textLength="142.5088" x="650.66" y="417.1501">mandatory: Boolean</text></g><!--class ComboBurger--><g id="elem_ComboBurger"><rect codeLine="55" fill="#F1F1F1" height="129.4844" id="ComboBurger" rx="2.5" ry="2.5" style="stroke:#181818;stroke-width:0.5;" width="181.0938" x="649.77" y="501.45"/><ellipse cx="688.2482" cy="517.45" fill="#ADD1B2" rx="11" ry="11" style="stroke:#181818;stroke-width:1.0;"/><path d="M692.3576,523.45 L684.6388,523.45 L684.6388,511.0594 L692.3576,511.0594 L692.3576,513.2156 L687.092,513.2156 L687.092,515.8875 L691.8576,515.8875 L691.8576,518.0438 L687.092,518.0438 L687.092,521.2938 L692.3576,521.2938 L692.3576,523.45 Z " fill="#000000"/><text fill="#000000" font-family="sans-serif" font-size="14" lengthAdjust="spacing" textLength="96.9199" x="707.4656" y="522.2967">ComboBurger</text><line style="stroke:#181818;stroke-width:0.5;" x1="650.77" x2="829.8638" y1="533.45" y2="533.45"/><ellipse cx="660.77" cy="547.0984" fill="#000000" rx="3" ry="3" style="stroke:#000000;stroke-width:1.0;"/><text fill="#000000" font-family="sans-serif" font-size="14" lengthAdjust="spacing" textLength="150.9033" x="669.77" y="550.4451">combo_id: UUID &#171;PK&#187;</text><line style="stroke:#181818;stroke-width:1.0;" x1="650.77" x2="829.8638" y1="557.7469" y2="557.7469"/><text fill="#000000" font-family="sans-serif" font-size="14" lengthAdjust="spacing" textLength="90.6514" x="655.77" y="574.742">name: String</text><text fill="#000000" font-family="sans-serif" font-size="14" lengthAdjust="spacing" textLength="128.7891" x="655.77" y="591.0389">description: String</text><text fill="#000000" font-family="sans-serif" font-size="14" lengthAdjust="spacing" textLength="169.0938" x="655.77" y="607.3357">ingredient_limit: Integer</text><text fill="#000000" font-family="sans-serif" font-size="14" lengthAdjust="spacing" textLength="167.4121" x="655.77" y="623.6326">price_increase: Decimal</text></g><!--class Cart--><g id="elem_Cart"><rect codeLine="64" fill="#F1F1F1" height="96.8906" id="Cart" rx="2.5" ry="2.5" style="stroke:#181818;stroke-width:0.5;" width="157.0723" x="442.78" y="1012.2"/><ellipse cx="502.2663" cy="1028.2" fill="#ADD1B2" rx="11" ry="11" style="stroke:#181818;stroke-width:1.0;"/><path d="M506.3757,1034.2 L498.657,1034.2 L498.657,1021.8094 L506.3757,1021.8094 L506.3757,1023.9656 L501.1101,1023.9656 L501.1101,1026.6375 L505.8757,1026.6375 L505.8757,1028.7938 L501.1101,1028.7938 L501.1101,1032.0438 L506.3757,1032.0438 L506.3757,1034.2 Z " fill="#000000"/><text fill="#000000" font-family="sans-serif" font-size="14" lengthAdjust="spacing" textLength="29.5996" x="522.7663" y="1033.0467">Cart</text><line style="stroke:#181818;stroke-width:0.5;" x1="443.78" x2="598.8523" y1="1044.2" y2="1044.2"/><ellipse cx="453.78" cy="1057.8484" fill="#000000" rx="3" ry="3" style="stroke:#000000;stroke-width:1.0;"/><text fill="#000000" font-family="sans-serif" font-size="14" lengthAdjust="spacing" textLength="131.0723" x="462.78" y="1061.1951">cart_id: UUID &#171;PK&#187;</text><line style="stroke:#181818;stroke-width:1.0;" x1="443.78" x2="598.8523" y1="1068.4969" y2="1068.4969"/><text fill="#000000" font-family="sans-serif" font-size="14" lengthAdjust="spacing" textLength="141.6133" x="448.78" y="1085.492">client_id: UUID &#171;FK&#187;</text><text fill="#000000" font-family="sans-serif" font-size="14" lengthAdjust="spacing" textLength="140.1094" x="448.78" y="1101.7889">total_price: Decimal</text></g><!--class Order--><g id="elem_Order"><rect codeLine="71" fill="#F1F1F1" height="194.6719" id="Order" rx="2.5" ry="2.5" style="stroke:#181818;stroke-width:0.5;" width="186.3779" x="22.13" y="1234.98"/><ellipse cx="91.0533" cy="1250.98" fill="#ADD1B2" rx="11" ry="11" style="stroke:#181818;stroke-width:1.0;"/><path d="M95.1627,1256.98 L87.444,1256.98 L87.444,1244.5894 L95.1627,1244.5894 L95.1627,1246.7456 L89.8971,1246.7456 L89.8971,1249.4175 L94.6627,1249.4175 L94.6627,1251.5738 L89.8971,1251.5738 L89.8971,1254.8238 L95.1627,1254.8238 L95.1627,1256.98 Z " fill="#000000"/><text fill="#000000" font-family="sans-serif" font-size="14" lengthAdjust="spacing" textLength="40.0313" x="111.5533" y="1255.8267">Order</text><line style="stroke:#181818;stroke-width:0.5;" x1="23.13" x2="207.5079" y1="1266.98" y2="1266.98"/><ellipse cx="33.13" cy="1280.6284" fill="#000000" rx="3" ry="3" style="stroke:#000000;stroke-width:1.0;"/><text fill="#000000" font-family="sans-serif" font-size="14" lengthAdjust="spacing" textLength="141.1279" x="42.13" y="1283.9751">order_id: UUID &#171;PK&#187;</text><line style="stroke:#181818;stroke-width:1.0;" x1="23.13" x2="207.5079" y1="1291.2769" y2="1291.2769"/><text fill="#000000" font-family="sans-serif" font-size="14" lengthAdjust="spacing" textLength="141.6133" x="28.13" y="1308.272">client_id: UUID &#171;FK&#187;</text><text fill="#000000" font-family="sans-serif" font-size="14" lengthAdjust="spacing" textLength="130.6826" x="28.13" y="1324.5689">cart_id: UUID &#171;FK&#187;</text><text fill="#000000" font-family="sans-serif" font-size="14" lengthAdjust="spacing" textLength="93.9668" x="28.13" y="1340.8657">status: String</text><text fill="#000000" font-family="sans-serif" font-size="14" lengthAdjust="spacing" textLength="153.4668" x="28.13" y="1357.1626">order_date: DateTime</text><text fill="#000000" font-family="sans-serif" font-size="14" lengthAdjust="spacing" textLength="140.1094" x="28.13" y="1373.4595">total_price: Decimal</text><text fill="#000000" font-family="sans-serif" font-size="14" lengthAdjust="spacing" textLength="168.2324" x="28.13" y="1389.7564">delivery_method: String</text><text fill="#000000" font-family="sans-serif" font-size="14" lengthAdjust="spacing" textLength="172.1699" x="28.13" y="1406.0532">delivery_time: DateTime</text><text fill="#000000" font-family="sans-serif" font-size="14" lengthAdjust="spacing" textLength="174.3779" x="28.13" y="1422.3501">payment_method: String</text></g><!--class Transaction--><g id="elem_Transaction"><rect codeLine="84" fill="#F1F1F1" height="162.0781" id="Transaction" rx="2.5" ry="2.5" style="stroke:#181818;stroke-width:0.5;" width="208.6357" x="7" y="1506.65"/><ellipse cx="65.9941" cy="1522.65" fill="#ADD1B2" rx="11" ry="11" style="stroke:#181818;stroke-width:1.0;"/><path d="M70.1035,1528.65 L62.3848,1528.65 L62.3848,1516.2594 L70.1035,1516.2594 L70.1035,1518.4156 L64.8379,1518.4156 L64.8379,1521.0875 L69.6035,1521.0875 L69.6035,1523.2438 L64.8379,1523.2438 L64.8379,1526.4938 L70.1035,1526.4938 L70.1035,1528.65 Z " fill="#000000"/><text fill="#000000" font-family="sans-serif" font-size="14" lengthAdjust="spacing" textLength="82.1475" x="86.4941" y="1527.4967">Transaction</text><line style="stroke:#181818;stroke-width:0.5;" x1="8" x2="214.6357" y1="1538.65" y2="1538.65"/><ellipse cx="18" cy="1552.2984" fill="#000000" rx="3" ry="3" style="stroke:#000000;stroke-width:1.0;"/><text fill="#000000" font-family="sans-serif" font-size="14" lengthAdjust="spacing" textLength="182.6357" x="27" y="1555.6451">transaction_id: UUID &#171;PK&#187;</text><line style="stroke:#181818;stroke-width:1.0;" x1="8" x2="214.6357" y1="1562.9469" y2="1562.9469"/><text fill="#000000" font-family="sans-serif" font-size="14" lengthAdjust="spacing" textLength="140.7383" x="13" y="1579.942">order_id: UUID &#171;FK&#187;</text><text fill="#000000" font-family="sans-serif" font-size="14" lengthAdjust="spacing" textLength="85.3945" x="13" y="1596.2389">bank: String</text><text fill="#000000" font-family="sans-serif" font-size="14" lengthAdjust="spacing" textLength="93.9668" x="13" y="1612.5357">status: String</text><text fill="#000000" font-family="sans-serif" font-size="14" lengthAdjust="spacing" textLength="194.9746" x="13" y="1628.8326">transaction_date: DateTime</text><text fill="#000000" font-family="sans-serif" font-size="14" lengthAdjust="spacing" textLength="120.2715" x="13" y="1645.1295">amount: Decimal</text><text fill="#000000" font-family="sans-serif" font-size="14" lengthAdjust="spacing" textLength="99.8936" x="13" y="1661.4264">receipt: String</text></g><!--class Robot--><g id="elem_Robot"><rect codeLine="95" fill="#F1F1F1" height="113.1875" id="Robot" rx="2.5" ry="2.5" style="stroke:#181818;stroke-width:0.5;" width="169.0146" x="246.81" y="1275.72"/><ellipse cx="306.4501" cy="1291.72" fill="#ADD1B2" rx="11" ry="11" style="stroke:#181818;stroke-width:1.0;"/><path d="M310.5595,1297.72 L302.8408,1297.72 L302.8408,1285.3294 L310.5595,1285.3294 L310.5595,1287.4856 L305.2939,1287.4856 L305.2939,1290.1575 L310.0595,1290.1575 L310.0595,1292.3138 L305.2939,1292.3138 L305.2939,1295.5638 L310.5595,1295.5638 L310.5595,1297.72 Z " fill="#000000"/><text fill="#000000" font-family="sans-serif" font-size="14" lengthAdjust="spacing" textLength="41.2344" x="326.9501" y="1296.5667">Robot</text><line style="stroke:#181818;stroke-width:0.5;" x1="247.81" x2="414.8246" y1="1307.72" y2="1307.72"/><ellipse cx="257.81" cy="1321.3684" fill="#000000" rx="3" ry="3" style="stroke:#000000;stroke-width:1.0;"/><text fill="#000000" font-family="sans-serif" font-size="14" lengthAdjust="spacing" textLength="140.8135" x="266.81" y="1324.7151">robot_id: UUID &#171;PK&#187;</text><line style="stroke:#181818;stroke-width:1.0;" x1="247.81" x2="414.8246" y1="1332.0169" y2="1332.0169"/><text fill="#000000" font-family="sans-serif" font-size="14" lengthAdjust="spacing" textLength="93.9668" x="252.81" y="1349.012">status: String</text><text fill="#000000" font-family="sans-serif" font-size="14" lengthAdjust="spacing" textLength="106.4971" x="252.81" y="1365.3089">location: String</text><text fill="#000000" font-family="sans-serif" font-size="14" lengthAdjust="spacing" textLength="157.0146" x="252.81" y="1381.6057">technical_state: String</text></g><!--class Task--><g id="elem_Task"><rect codeLine="103" fill="#F1F1F1" height="145.7813" id="Task" rx="2.5" ry="2.5" style="stroke:#181818;stroke-width:0.5;" width="160.5586" x="251.04" y="1514.8"/><ellipse cx="310.8032" cy="1530.8" fill="#ADD1B2" rx="11" ry="11" style="stroke:#181818;stroke-width:1.0;"/><path d="M314.9126,1536.8 L307.1938,1536.8 L307.1938,1524.4094 L314.9126,1524.4094 L314.9126,1526.5656 L309.6469,1526.5656 L309.6469,1529.2375 L314.4126,1529.2375 L314.4126,1531.3938 L309.6469,1531.3938 L309.6469,1534.6438 L314.9126,1534.6438 L314.9126,1536.8 Z " fill="#000000"/><text fill="#000000" font-family="sans-serif" font-size="14" lengthAdjust="spacing" textLength="32.5322" x="331.3032" y="1535.6467">Task</text><line style="stroke:#181818;stroke-width:0.5;" x1="252.04" x2="410.5986" y1="1546.8" y2="1546.8"/><ellipse cx="262.04" cy="1560.4484" fill="#000000" rx="3" ry="3" style="stroke:#000000;stroke-width:1.0;"/><text fill="#000000" font-family="sans-serif" font-size="14" lengthAdjust="spacing" textLength="133.0205" x="271.04" y="1563.7951">task_id: UUID &#171;PK&#187;</text><line style="stroke:#181818;stroke-width:1.0;" x1="252.04" x2="410.5986" y1="1571.0969" y2="1571.0969"/><text fill="#000000" font-family="sans-serif" font-size="14" lengthAdjust="spacing" textLength="140.4238" x="257.04" y="1588.092">robot_id: UUID &#171;FK&#187;</text><text fill="#000000" font-family="sans-serif" font-size="14" lengthAdjust="spacing" textLength="128.7891" x="257.04" y="1604.3889">description: String</text><text fill="#000000" font-family="sans-serif" font-size="14" lengthAdjust="spacing" textLength="93.9668" x="257.04" y="1620.6857">status: String</text><text fill="#000000" font-family="sans-serif" font-size="14" lengthAdjust="spacing" textLength="148.5586" x="257.04" y="1636.9826">start_time: DateTime</text><text fill="#000000" font-family="sans-serif" font-size="14" lengthAdjust="spacing" textLength="142.3242" x="257.04" y="1653.2795">end_time: DateTime</text></g><!--class Recipe--><g id="elem_Recipe"><rect codeLine="113" fill="#F1F1F1" height="145.7813" id="Recipe" rx="2.5" ry="2.5" style="stroke:#181818;stroke-width:0.5;" width="173.0068" x="533.81" y="7"/><ellipse cx="592.3496" cy="23" fill="#ADD1B2" rx="11" ry="11" style="stroke:#181818;stroke-width:1.0;"/><path d="M596.4589,29 L588.7402,29 L588.7402,16.6094 L596.4589,16.6094 L596.4589,18.7656 L591.1933,18.7656 L591.1933,21.4375 L595.9589,21.4375 L595.9589,23.5938 L591.1933,23.5938 L591.1933,26.8438 L596.4589,26.8438 L596.4589,29 Z " fill="#000000"/><text fill="#000000" font-family="sans-serif" font-size="14" lengthAdjust="spacing" textLength="47.4277" x="612.8496" y="27.8467">Recipe</text><line style="stroke:#181818;stroke-width:0.5;" x1="534.81" x2="705.8168" y1="39" y2="39"/><ellipse cx="544.81" cy="52.6484" fill="#000000" rx="3" ry="3" style="stroke:#000000;stroke-width:1.0;"/><text fill="#000000" font-family="sans-serif" font-size="14" lengthAdjust="spacing" textLength="147.0068" x="553.81" y="55.9951">recipe_id: UUID &#171;PK&#187;</text><line style="stroke:#181818;stroke-width:1.0;" x1="534.81" x2="705.8168" y1="63.2969" y2="63.2969"/><text fill="#000000" font-family="sans-serif" font-size="14" lengthAdjust="spacing" textLength="132.1045" x="539.81" y="80.292">dish_id: UUID &#171;FK&#187;</text><text fill="#000000" font-family="sans-serif" font-size="14" lengthAdjust="spacing" textLength="90.6514" x="539.81" y="96.5889">name: String</text><text fill="#000000" font-family="sans-serif" font-size="14" lengthAdjust="spacing" textLength="128.7891" x="539.81" y="112.8857">description: String</text><text fill="#000000" font-family="sans-serif" font-size="14" lengthAdjust="spacing" textLength="88.5254" x="539.81" y="129.1826">steps: String</text><text fill="#000000" font-family="sans-serif" font-size="14" lengthAdjust="spacing" textLength="152.7422" x="539.81" y="145.4795">cooking_time: Integer</text></g><!--link Client to Cart--><g id="link_Client_Cart"><path codeLine="123" d="M341.7872,859.8504 C383.9872,906.8104 426.2994,953.901 466.3294,998.451 " fill="none" id="Client-Cart" style="stroke:#181818;stroke-width:1.0;"/><line style="stroke:#181818;stroke-width:1.0;" x1="336.1384" x2="342.0888" y1="859.5488" y2="854.2016"/><line style="stroke:#181818;stroke-width:1.0;" x1="338.1436" x2="344.094" y1="861.7802" y2="856.433"/><line style="stroke:#181818;stroke-width:1.0;" x1="341.7872" x2="336.44" y1="859.8504" y2="853.9"/><line style="stroke:#181818;stroke-width:1.0;" x1="473.0131" x2="482.823" y1="1005.8893" y2="1007.8298"/><line style="stroke:#181818;stroke-width:1.0;" x1="473.0131" x2="473.897" y1="1005.8893" y2="1015.8502"/><line style="stroke:#181818;stroke-width:1.0;" x1="473.0131" x2="478.36" y1="1005.8893" y2="1011.84"/><ellipse cx="469.0029" cy="1001.4263" fill="none" rx="4" ry="4" style="stroke:#181818;stroke-width:1.0;"/><text fill="#000000" font-family="sans-serif" font-size="13" lengthAdjust="spacing" textLength="22.9785" x="405.32" y="929.3769">has</text></g><!--link Client to Order--><g id="link_Client_Order"><path codeLine="124" d="M191.3474,858.8014 C155.2674,886.7714 123.84,919.22 104.32,963.31 C66.27,1049.22 72.1504,1140.1339 86.9404,1217.0339 " fill="none" id="Client-Order" style="stroke:#181818;stroke-width:1.0;"/><line style="stroke:#181818;stroke-width:1.0;" x1="192.058" x2="196.9594" y1="853.1894" y2="859.512"/><line style="stroke:#181818;stroke-width:1.0;" x1="189.687" x2="194.5884" y1="855.0274" y2="861.3501"/><line style="stroke:#181818;stroke-width:1.0;" x1="191.3474" x2="197.67" y1="858.8014" y2="853.9"/><line style="stroke:#181818;stroke-width:1.0;" x1="88.8291" x2="96.232" y1="1226.854" y2="1233.5768"/><line style="stroke:#181818;stroke-width:1.0;" x1="88.8291" x2="84.448" y1="1226.854" y2="1235.8432"/><line style="stroke:#181818;stroke-width:1.0;" x1="88.8291" x2="90.34" y1="1226.854" y2="1234.71"/><ellipse cx="87.6959" cy="1220.962" fill="none" rx="4" ry="4" style="stroke:#181818;stroke-width:1.0;"/><text fill="#000000" font-family="sans-serif" font-size="13" lengthAdjust="spacing" textLength="41.7485" x="105.32" y="1065.2069">places</text></g><!--link Cart to Order--><g id="link_Cart_Order"><path codeLine="125" d="M475.7245,1115.2637 C459.6645,1132.2537 445.65,1144.64 425.32,1157.98 C347.07,1209.33 309.69,1187.02 229.32,1234.98 C222.42,1239.1 230.2458,1233.2786 223.4458,1238.0586 " fill="none" id="Cart-Order" style="stroke:#181818;stroke-width:1.0;"/><line style="stroke:#181818;stroke-width:1.0;" x1="475.5654" x2="481.3791" y1="1109.6091" y2="1115.1046"/><line style="stroke:#181818;stroke-width:1.0;" x1="473.5046" x2="479.3183" y1="1111.7893" y2="1117.2848"/><line style="stroke:#181818;stroke-width:1.0;" x1="475.7245" x2="481.22" y1="1115.2637" y2="1109.45"/><line style="stroke:#181818;stroke-width:1.0;" x1="215.2648" x2="212.1705" y1="1243.8094" y2="1253.3186"/><line style="stroke:#181818;stroke-width:1.0;" x1="215.2648" x2="205.2695" y1="1243.8094" y2="1243.5014"/><line style="stroke:#181818;stroke-width:1.0;" x1="215.2648" x2="208.72" y1="1243.8094" y2="1248.41"/><ellipse cx="220.1734" cy="1240.3589" fill="none" rx="4" ry="4" style="stroke:#181818;stroke-width:1.0;"/><text fill="#000000" font-family="sans-serif" font-size="13" lengthAdjust="spacing" textLength="77.9683" x="365.32" y="1201.0469">is related to</text></g><!--link Dish to Cart--><g id="link_Dish_Cart"><path codeLine="126" d="M598.6286,893.9103 C579.0686,935.8503 567.4678,960.7068 551.1778,995.6368 " fill="none" id="Dish-Cart" style="stroke:#181818;stroke-width:1.0;"/><line style="stroke:#181818;stroke-width:1.0;" x1="596.6942" x2="603.9444" y1="888.5944" y2="891.9758"/><line style="stroke:#181818;stroke-width:1.0;" x1="595.4262" x2="602.6764" y1="891.3133" y2="894.6947"/><line style="stroke:#181818;stroke-width:1.0;" x1="598.6286" x2="602.01" y1="893.9103" y2="886.66"/><line style="stroke:#181818;stroke-width:1.0;" x1="546.9513" x2="549.0077" y1="1004.6997" y2="1014.4859"/><line style="stroke:#181818;stroke-width:1.0;" x1="546.9513" x2="538.1323" y1="1004.6997" y2="1009.4141"/><line style="stroke:#181818;stroke-width:1.0;" x1="546.9513" x2="543.57" y1="1004.6997" y2="1011.95"/><ellipse cx="549.4872" cy="999.262" fill="none" rx="4" ry="4" style="stroke:#181818;stroke-width:1.0;"/><text fill="#000000" font-family="sans-serif" font-size="13" lengthAdjust="spacing" textLength="55.0278" x="587.32" y="929.3769">contains</text></g><!--link ComboBurger to Dish--><g id="link_ComboBurger_Dish"><path codeLine="127" d="M710.0487,638.636 C700.0187,662.306 698.6037,665.6369 687.8137,691.0969 " fill="none" id="ComboBurger-Dish" style="stroke:#181818;stroke-width:1.0;"/><line style="stroke:#181818;stroke-width:1.0;" x1="707.9264" x2="715.2923" y1="633.3923" y2="636.5136"/><line style="stroke:#181818;stroke-width:1.0;" x1="706.7559" x2="714.1219" y1="636.1546" y2="639.2759"/><line style="stroke:#181818;stroke-width:1.0;" x1="710.0487" x2="713.17" y1="638.636" y2="631.27"/><polygon fill="none" points="680.79,707.67,693.3381,693.4381,682.2893,688.7557,680.79,707.67" style="stroke:#181818;stroke-width:1.0;"/><text fill="#000000" font-family="sans-serif" font-size="13" lengthAdjust="spacing" textLength="22.4834" x="701.32" y="673.9969">is a</text></g><!--link Dish to Menu--><g id="link_Dish_Menu"><path codeLine="128" d="M671.2824,894.3422 C682.5224,933.0222 688.1079,952.2448 697.9979,986.2848 " fill="none" id="Dish-Menu" style="stroke:#181818;stroke-width:1.0;"/><line style="stroke:#181818;stroke-width:1.0;" x1="666.3251" x2="674.0073" y1="891.6173" y2="889.3849"/><line style="stroke:#181818;stroke-width:1.0;" x1="667.1622" x2="674.8444" y1="894.4981" y2="892.2658"/><line style="stroke:#181818;stroke-width:1.0;" x1="671.2824" x2="669.05" y1="894.3422" y2="886.66"/><line style="stroke:#181818;stroke-width:1.0;" x1="700.788" x2="708.7817" y1="995.8877" y2="1001.896"/><line style="stroke:#181818;stroke-width:1.0;" x1="700.788" x2="697.2583" y1="995.8877" y2="1005.244"/><line style="stroke:#181818;stroke-width:1.0;" x1="700.788" x2="703.02" y1="995.8877" y2="1003.57"/><ellipse cx="699.114" cy="990.1259" fill="none" rx="4" ry="4" style="stroke:#181818;stroke-width:1.0;"/><text fill="#000000" font-family="sans-serif" font-size="13" lengthAdjust="spacing" textLength="57.8398" x="682.32" y="929.3769">is part of</text></g><!--link Ingredient to ComboBurger--><g id="link_Ingredient_ComboBurger"><path codeLine="129" d="M743.1091,432.8782 C742.5591,458.6182 742.5354,459.7739 742.0454,483.2639 " fill="none" id="Ingredient-ComboBurger" style="stroke:#181818;stroke-width:1.0;"/><line style="stroke:#181818;stroke-width:1.0;" x1="739.1955" x2="747.1936" y1="428.7936" y2="428.9645"/><line style="stroke:#181818;stroke-width:1.0;" x1="739.1314" x2="747.1295" y1="431.793" y2="431.9639"/><line style="stroke:#181818;stroke-width:1.0;" x1="743.1091" x2="743.28" y1="432.8782" y2="424.88"/><line style="stroke:#181818;stroke-width:1.0;" x1="741.8368" x2="747.6687" y1="493.2617" y2="501.3851"/><line style="stroke:#181818;stroke-width:1.0;" x1="741.8368" x2="735.6713" y1="493.2617" y2="501.1349"/><line style="stroke:#181818;stroke-width:1.0;" x1="741.8368" x2="741.67" y1="493.2617" y2="501.26"/><ellipse cx="741.962" cy="487.263" fill="none" rx="4" ry="4" style="stroke:#181818;stroke-width:1.0;"/><text fill="#000000" font-family="sans-serif" font-size="13" lengthAdjust="spacing" textLength="47.2456" x="743.32" y="467.5169">used in</text></g><!--link Dish to Dish--><g id="link_Dish_Dish"><path codeLine="130" d="M730.8425,774.1724 C750.7025,775.8224 757.56,783.03 757.56,797.12 C757.56,811.21 760.6682,817.5897 740.8082,819.2397 " fill="none" id="Dish-Dish" style="stroke:#181818;stroke-width:1.0;"/><line style="stroke:#181818;stroke-width:1.0;" x1="726.5251" x2="727.1875" y1="777.8275" y2="769.8549"/><line style="stroke:#181818;stroke-width:1.0;" x1="729.5148" x2="730.1772" y1="778.0758" y2="770.1033"/><line style="stroke:#181818;stroke-width:1.0;" x1="730.8425" x2="722.87" y1="774.1724" y2="773.51"/><line style="stroke:#181818;stroke-width:1.0;" x1="730.8425" x2="723.3668" y1="820.0676" y2="826.7094"/><line style="stroke:#181818;stroke-width:1.0;" x1="730.8425" x2="722.3732" y1="820.0676" y2="814.7506"/><line style="stroke:#181818;stroke-width:1.0;" x1="730.8425" x2="722.87" y1="820.0676" y2="820.73"/><ellipse cx="736.8219" cy="819.5709" fill="none" rx="4" ry="4" style="stroke:#181818;stroke-width:1.0;"/><text fill="#000000" font-family="sans-serif" font-size="13" lengthAdjust="spacing" textLength="92.0474" x="763.56" y="801.6869">related dishes</text></g><!--link Order to Transaction--><g id="link_Order_Transaction"><path codeLine="131" d="M113.6636,1437.829 C113.2636,1463.139 113.2581,1464.1623 112.8681,1488.5223 " fill="none" id="Order-Transaction" style="stroke:#181818;stroke-width:1.0;"/><line style="stroke:#181818;stroke-width:1.0;" x1="109.7273" x2="117.7263" y1="1433.7663" y2="1433.8927"/><line style="stroke:#181818;stroke-width:1.0;" x1="109.6799" x2="117.6789" y1="1436.7659" y2="1436.8923"/><line style="stroke:#181818;stroke-width:1.0;" x1="113.6636" x2="113.79" y1="1437.829" y2="1429.83"/><line style="stroke:#181818;stroke-width:1.0;" x1="112.7081" x2="118.5792" y1="1498.521" y2="1506.616"/><line style="stroke:#181818;stroke-width:1.0;" x1="112.7081" x2="106.5808" y1="1498.521" y2="1506.424"/><line style="stroke:#181818;stroke-width:1.0;" x1="112.7081" x2="112.58" y1="1498.521" y2="1506.52"/><ellipse cx="112.8041" cy="1492.5218" fill="none" rx="4" ry="4" style="stroke:#181818;stroke-width:1.0;"/><text fill="#000000" font-family="sans-serif" font-size="13" lengthAdjust="spacing" textLength="53.5742" x="114.32" y="1472.7169">involves</text></g><!--link Client to LoyaltyProgram--><g id="link_Client_LoyaltyProgram"><path codeLine="132" d="M286.32,861.9 C286.32,893.63 286.32,908.25 286.32,945.01 " fill="none" id="Client-LoyaltyProgram" style="stroke:#181818;stroke-width:1.0;"/><line style="stroke:#181818;stroke-width:1.0;" x1="282.32" x2="290.32" y1="857.9" y2="857.9"/><line style="stroke:#181818;stroke-width:1.0;" x1="282.32" x2="290.32" y1="860.9" y2="860.9"/><line style="stroke:#181818;stroke-width:1.0;" x1="286.32" x2="286.32" y1="861.9" y2="853.9"/><line style="stroke:#181818;stroke-width:1.0;" x1="286.32" x2="292.32" y1="955.01" y2="963.01"/><line style="stroke:#181818;stroke-width:1.0;" x1="286.32" x2="280.32" y1="955.01" y2="963.01"/><line style="stroke:#181818;stroke-width:1.0;" x1="286.32" x2="286.32" y1="955.01" y2="963.01"/><ellipse cx="286.32" cy="949.01" fill="none" rx="4" ry="4" style="stroke:#181818;stroke-width:1.0;"/><text fill="#000000" font-family="sans-serif" font-size="13" lengthAdjust="spacing" textLength="68.9927" x="287.32" y="929.3769">enrolled in</text></g><!--link Robot to Task--><g id="link_Robot_Task"><path codeLine="133" d="M331.32,1397.23 C331.32,1434.1 331.32,1456.75 331.32,1496.53 " fill="none" id="Robot-Task" style="stroke:#181818;stroke-width:1.0;"/><line style="stroke:#181818;stroke-width:1.0;" x1="327.32" x2="335.32" y1="1393.23" y2="1393.23"/><line style="stroke:#181818;stroke-width:1.0;" x1="327.32" x2="335.32" y1="1396.23" y2="1396.23"/><line style="stroke:#181818;stroke-width:1.0;" x1="331.32" x2="331.32" y1="1397.23" y2="1389.23"/><line style="stroke:#181818;stroke-width:1.0;" x1="331.32" x2="337.32" y1="1506.53" y2="1514.53"/><line style="stroke:#181818;stroke-width:1.0;" x1="331.32" x2="325.32" y1="1506.53" y2="1514.53"/><line style="stroke:#181818;stroke-width:1.0;" x1="331.32" x2="331.32" y1="1506.53" y2="1514.53"/><ellipse cx="331.32" cy="1500.53" fill="none" rx="4" ry="4" style="stroke:#181818;stroke-width:1.0;"/><text fill="#000000" font-family="sans-serif" font-size="13" lengthAdjust="spacing" textLength="58.9063" x="332.32" y="1472.7169">performs</text></g><!--link Order to Task--><g id="link_Order_Task"><path codeLine="134" d="M202.7808,1435.9173 C226.7508,1464.0273 235.6439,1474.4508 258.0939,1500.7908 " fill="none" id="Order-Task" style="stroke:#181818;stroke-width:1.0;"/><line style="stroke:#181818;stroke-width:1.0;" x1="197.1417" x2="203.2291" y1="1435.4691" y2="1430.2783"/><line style="stroke:#181818;stroke-width:1.0;" x1="199.0883" x2="205.1756" y1="1437.7518" y2="1432.561"/><line style="stroke:#181818;stroke-width:1.0;" x1="202.7808" x2="197.59" y1="1435.9173" y2="1429.83"/><line style="stroke:#181818;stroke-width:1.0;" x1="264.5806" x2="274.3364" y1="1508.4014" y2="1510.598"/><line style="stroke:#181818;stroke-width:1.0;" x1="264.5806" x2="265.2036" y1="1508.4014" y2="1518.382"/><line style="stroke:#181818;stroke-width:1.0;" x1="264.5806" x2="269.77" y1="1508.4014" y2="1514.49"/><ellipse cx="260.6886" cy="1503.835" fill="none" rx="4" ry="4" style="stroke:#181818;stroke-width:1.0;"/><text fill="#000000" font-family="sans-serif" font-size="13" lengthAdjust="spacing" textLength="63.4512" x="237.32" y="1472.7169">related to</text></g><!--link Recipe to Dish--><g id="link_Recipe_Dish"><path codeLine="135" d="M620.883,160.9997 C621.843,266.1397 624.54,459.66 632.32,630.93 C633.45,655.91 633.8912,665.03 635.5512,689.9 " fill="none" id="Recipe-Dish" style="stroke:#181818;stroke-width:1.0;"/><line style="stroke:#181818;stroke-width:1.0;" x1="616.8467" x2="624.8464" y1="157.0364" y2="156.9633"/><line style="stroke:#181818;stroke-width:1.0;" x1="616.8741" x2="624.8737" y1="160.0362" y2="159.9632"/><line style="stroke:#181818;stroke-width:1.0;" x1="620.883" x2="620.81" y1="160.9997" y2="153"/><line style="stroke:#181818;stroke-width:1.0;" x1="636.2172" x2="642.7367" y1="699.8778" y2="707.4604"/><line style="stroke:#181818;stroke-width:1.0;" x1="636.2172" x2="630.7633" y1="699.8778" y2="708.2596"/><line style="stroke:#181818;stroke-width:1.0;" x1="636.2172" x2="636.75" y1="699.8778" y2="707.86"/><ellipse cx="635.8176" cy="693.8911" fill="none" rx="4" ry="4" style="stroke:#181818;stroke-width:1.0;"/><text fill="#000000" font-family="sans-serif" font-size="13" lengthAdjust="spacing" textLength="47.4487" x="628.32" y="467.5169">defines</text></g><!--link Recipe to Ingredient--><g id="link_Recipe_Ingredient"><path codeLine="136" d="M660.7837,160.2671 C672.9537,184.1371 674.8867,187.9326 687.8367,213.3426 " fill="none" id="Recipe-Ingredient" style="stroke:#181818;stroke-width:1.0;"/><line style="stroke:#181818;stroke-width:1.0;" x1="655.4033" x2="662.5304" y1="158.5204" y2="154.8867"/><line style="stroke:#181818;stroke-width:1.0;" x1="656.766" x2="663.8931" y1="161.1931" y2="157.5594"/><line style="stroke:#181818;stroke-width:1.0;" x1="660.7837" x2="657.15" y1="160.2671" y2="153.14"/><line style="stroke:#181818;stroke-width:1.0;" x1="692.3774" x2="701.3558" y1="222.2523" y2="226.6556"/><line style="stroke:#181818;stroke-width:1.0;" x1="692.3774" x2="690.6642" y1="222.2523" y2="232.1044"/><line style="stroke:#181818;stroke-width:1.0;" x1="692.3774" x2="696.01" y1="222.2523" y2="229.38"/><ellipse cx="689.653" cy="216.9065" fill="none" rx="4" ry="4" style="stroke:#181818;stroke-width:1.0;"/><text fill="#000000" font-family="sans-serif" font-size="13" lengthAdjust="spacing" textLength="29.7832" x="679.32" y="195.8469">uses</text></g><!--SRC=[bLNRRjim37ttLnXv790V28e-jC60OYjMREspGLjCebOIFKaEQhJxzqdoHR9Y8EYJRjJXEHH9eRBSzkMzuAXi-L5yQyAiucnNlhmyxCkRcwSVjxV5Tbkq9rAuA_zOpTMn4DI3i7qbKTQeT-KTaK1GXK5ZEAdPxbzHuE3Zvt3ZITDHW_I-9enss5fpUaddkp-fINMcQeahQtRbWx9uH5qSEY4g1JAoN7962LpCgvfhUsBGxyezM9my2JnZj7br7f1LO4UZgEOHLUSrI3Uk4L_GE8FWhEhSJJ42sRx5bHZjkJbvLER6gwWB38QcqRorQUnRpHjdiSU6In0-69RcGs2LnNSxhtCX8SwHsOCwQcHJbl1vTPLb_ThDymO4QOx9aoqvPOJXxDuBQe4nlIIyLtyx29mYYWJ5m9Bkes5aVa-ofhjEEyEGu7vvbVLQE1FHWajk4nMUTyLLen5C8Y0X0NeeBpT-8SyjMH1L5fQ8-akpGHJvoHTmSnfXqrYmdPdb3fWkhZZax3ENk4w8eU1drBuPs1En98ZZlkKo1McXbvvLPXvrFMjG1XeVVQ_EnkMQnWlnGui0zJP3Pz9Im4mWI79r6hLfRD3bmGh9trHJU5Fj9sl4Cg-26bWabCNcfBWhYifRhlM3Pp1l8G9kNFDmuJf8NqlUZ8jRkWp8tWKLoxSIkIuWBGQzORP69szRWStLkZ8MsyYi8NfpuqXagZ37O_oZFZ-tM_e81RKhDoSmc-ma58KxQWKqw4zzwMLdt9GQXHF9IakR8hJT9N13oW9N_dxIFxpDvsreqmCAB2_xNs4uQBrNEcoAf75E7YAWi-sC8y7L4cTqC77qSVLIXdeVRP8YyIxLcSGPBwAn_7MT8IfDGem-XnoU05sI-RYXFf2M5-vyAYQSVDp6d5YIPdXmdwR9JsCS1j5cyny0]--></g></svg>