<svg xmlns="http://www.w3.org/2000/svg" xmlns:xlink="http://www.w3.org/1999/xlink" contentStyleType="text/css" height="1496px" preserveAspectRatio="none" style="width:952px;height:1496px;background:#FFFFFF;" version="1.1" viewBox="0 0 952 1496" width="952px" zoomAndPan="magnify"><defs/><g><!--class ??????--><g id="elem_&#1050;&#1083;&#1080;&#1077;&#1085;&#1090;"><rect codeLine="1" fill="#F1F1F1" height="96.8906" id="&#1050;&#1083;&#1080;&#1077;&#1085;&#1090;" rx="2.5" ry="2.5" style="stroke:#181818;stroke-width:0.5;" width="241.5986" x="154.14" y="683.79"/><ellipse cx="243.7352" cy="699.79" fill="#ADD1B2" rx="11" ry="11" style="stroke:#181818;stroke-width:1.0;"/><path d="M247.8446,705.79 L240.1258,705.79 L240.1258,693.3994 L247.8446,693.3994 L247.8446,695.5556 L242.579,695.5556 L242.579,698.2275 L247.3446,698.2275 L247.3446,700.3838 L242.579,700.3838 L242.579,703.6338 L247.8446,703.6338 L247.8446,705.79 Z " fill="#000000"/><text fill="#000000" font-family="sans-serif" font-size="14" lengthAdjust="spacing" textLength="53.9082" x="264.2352" y="704.6367">&#1050;&#1083;&#1080;&#1077;&#1085;&#1090;</text><line style="stroke:#181818;stroke-width:0.5;" x1="155.14" x2="394.7386" y1="715.79" y2="715.79"/><text fill="#000000" font-family="sans-serif" font-size="14" lengthAdjust="spacing" textLength="64.415" x="160.14" y="732.7851">&#1058;&#1077;&#1083;&#1077;&#1092;&#1086;&#1085;</text><text fill="#000000" font-family="sans-serif" font-size="14" lengthAdjust="spacing" textLength="229.5986" x="160.14" y="749.082">&#1059;&#1095;&#1072;&#1089;&#1090;&#1085;&#1080;&#1082; &#1073;&#1086;&#1085;&#1091;&#1089;&#1085;&#1086;&#1081; &#1087;&#1088;&#1086;&#1075;&#1088;&#1072;&#1084;&#1084;&#1099;</text><text fill="#000000" font-family="sans-serif" font-size="14" lengthAdjust="spacing" textLength="51.3037" x="160.14" y="765.3789">&#1057;&#1077;&#1089;&#1089;&#1080;&#1103;</text><line style="stroke:#181818;stroke-width:0.5;" x1="155.14" x2="394.7386" y1="772.6806" y2="772.6806"/></g><!--class ???????????????????--><g id="elem_&#1055;&#1088;&#1086;&#1075;&#1088;&#1072;&#1084;&#1084;&#1072;&#1051;&#1086;&#1103;&#1083;&#1100;&#1085;&#1086;&#1089;&#1090;&#1080;"><rect codeLine="7" fill="#F1F1F1" height="162.0781" id="&#1055;&#1088;&#1086;&#1075;&#1088;&#1072;&#1084;&#1084;&#1072;&#1051;&#1086;&#1103;&#1083;&#1100;&#1085;&#1086;&#1089;&#1090;&#1080;" rx="2.5" ry="2.5" style="stroke:#181818;stroke-width:0.5;" width="201.8867" x="7" y="882.13"/><ellipse cx="22" cy="898.13" fill="#ADD1B2" rx="11" ry="11" style="stroke:#181818;stroke-width:1.0;"/><path d="M26.1094,904.13 L18.3906,904.13 L18.3906,891.7394 L26.1094,891.7394 L26.1094,893.8956 L20.8438,893.8956 L20.8438,896.5675 L25.6094,896.5675 L25.6094,898.7238 L20.8438,898.7238 L20.8438,901.9738 L26.1094,901.9738 L26.1094,904.13 Z " fill="#000000"/><text fill="#000000" font-family="sans-serif" font-size="14" lengthAdjust="spacing" textLength="169.8867" x="36" y="902.9767">&#1055;&#1088;&#1086;&#1075;&#1088;&#1072;&#1084;&#1084;&#1072;&#1051;&#1086;&#1103;&#1083;&#1100;&#1085;&#1086;&#1089;&#1090;&#1080;</text><line style="stroke:#181818;stroke-width:0.5;" x1="8" x2="207.8867" y1="914.13" y2="914.13"/><text fill="#000000" font-family="sans-serif" font-size="14" lengthAdjust="spacing" textLength="149.707" x="13" y="931.1251">&#1050;&#1086;&#1083;&#1080;&#1095;&#1077;&#1089;&#1090;&#1074;&#1086; &#1073;&#1086;&#1085;&#1091;&#1089;&#1086;&#1074;</text><text fill="#000000" font-family="sans-serif" font-size="14" lengthAdjust="spacing" textLength="33.5439" x="13" y="947.422">&#1060;&#1048;&#1054;</text><text fill="#000000" font-family="sans-serif" font-size="14" lengthAdjust="spacing" textLength="64.415" x="13" y="963.7189">&#1058;&#1077;&#1083;&#1077;&#1092;&#1086;&#1085;</text><text fill="#000000" font-family="sans-serif" font-size="14" lengthAdjust="spacing" textLength="44.0986" x="13" y="980.0157">&#1055;&#1086;&#1095;&#1090;&#1072;</text><text fill="#000000" font-family="sans-serif" font-size="14" lengthAdjust="spacing" textLength="116.4365" x="13" y="996.3126">&#1044;&#1077;&#1085;&#1100; &#1088;&#1086;&#1078;&#1076;&#1077;&#1085;&#1080;&#1103;</text><text fill="#000000" font-family="sans-serif" font-size="14" lengthAdjust="spacing" textLength="125.7061" x="13" y="1012.6095">&#1059;&#1088;&#1086;&#1074;&#1077;&#1085;&#1100; &#1082;&#1083;&#1080;&#1077;&#1085;&#1090;&#1072;</text><text fill="#000000" font-family="sans-serif" font-size="14" lengthAdjust="spacing" textLength="155.9346" x="13" y="1028.9064">&#1044;&#1072;&#1090;&#1072; &#1087;&#1088;&#1080;&#1089;&#1086;&#1077;&#1076;&#1080;&#1085;&#1077;&#1085;&#1080;&#1103;</text><line style="stroke:#181818;stroke-width:0.5;" x1="8" x2="207.8867" y1="1036.2081" y2="1036.2081"/></g><!--class ????--><g id="elem_&#1052;&#1077;&#1085;&#1102;"><rect codeLine="17" fill="#F1F1F1" height="96.8906" id="&#1052;&#1077;&#1085;&#1102;" rx="2.5" ry="2.5" style="stroke:#181818;stroke-width:0.5;" width="121.1494" x="616.37" y="914.72"/><ellipse cx="652.7533" cy="930.72" fill="#ADD1B2" rx="11" ry="11" style="stroke:#181818;stroke-width:1.0;"/><path d="M656.8627,936.72 L649.144,936.72 L649.144,924.3294 L656.8627,924.3294 L656.8627,926.4856 L651.5971,926.4856 L651.5971,929.1575 L656.3627,929.1575 L656.3627,931.3138 L651.5971,931.3138 L651.5971,934.5638 L656.8627,934.5638 L656.8627,936.72 Z " fill="#000000"/><text fill="#000000" font-family="sans-serif" font-size="14" lengthAdjust="spacing" textLength="41.6309" x="671.5052" y="935.5667">&#1052;&#1077;&#1085;&#1102;</text><line style="stroke:#181818;stroke-width:0.5;" x1="617.37" x2="736.5194" y1="946.72" y2="946.72"/><text fill="#000000" font-family="sans-serif" font-size="14" lengthAdjust="spacing" textLength="70.2461" x="622.37" y="963.7151">&#1053;&#1072;&#1079;&#1074;&#1072;&#1085;&#1080;&#1077;</text><text fill="#000000" font-family="sans-serif" font-size="14" lengthAdjust="spacing" textLength="109.1494" x="622.37" y="980.012">&#1057;&#1088;&#1086;&#1082; &#1076;&#1077;&#1081;&#1089;&#1090;&#1074;&#1080;&#1103;</text><text fill="#000000" font-family="sans-serif" font-size="14" lengthAdjust="spacing" textLength="26.8037" x="622.37" y="996.3089">&#1058;&#1080;&#1087;</text><line style="stroke:#181818;stroke-width:0.5;" x1="617.37" x2="736.5194" y1="1003.6106" y2="1003.6106"/></g><!--class ?????--><g id="elem_&#1041;&#1083;&#1102;&#1076;&#1086;"><rect codeLine="23" fill="#F1F1F1" height="145.7813" id="&#1041;&#1083;&#1102;&#1076;&#1086;" rx="2.5" ry="2.5" style="stroke:#181818;stroke-width:0.5;" width="140.4336" x="430.73" y="659.35"/><ellipse cx="472.6628" cy="675.35" fill="#ADD1B2" rx="11" ry="11" style="stroke:#181818;stroke-width:1.0;"/><path d="M476.7721,681.35 L469.0534,681.35 L469.0534,668.9594 L476.7721,668.9594 L476.7721,671.1156 L471.5065,671.1156 L471.5065,673.7875 L476.2721,673.7875 L476.2721,675.9438 L471.5065,675.9438 L471.5065,679.1938 L476.7721,679.1938 L476.7721,681.35 Z " fill="#000000"/><text fill="#000000" font-family="sans-serif" font-size="14" lengthAdjust="spacing" textLength="48.583" x="492.6478" y="680.1967">&#1041;&#1083;&#1102;&#1076;&#1086;</text><line style="stroke:#181818;stroke-width:0.5;" x1="431.73" x2="570.1636" y1="691.35" y2="691.35"/><text fill="#000000" font-family="sans-serif" font-size="14" lengthAdjust="spacing" textLength="70.2461" x="436.73" y="708.3451">&#1053;&#1072;&#1079;&#1074;&#1072;&#1085;&#1080;&#1077;</text><text fill="#000000" font-family="sans-serif" font-size="14" lengthAdjust="spacing" textLength="26.8037" x="436.73" y="724.642">&#1058;&#1080;&#1087;</text><text fill="#000000" font-family="sans-serif" font-size="14" lengthAdjust="spacing" textLength="72.4131" x="436.73" y="740.9389">&#1054;&#1087;&#1080;&#1089;&#1072;&#1085;&#1080;&#1077;</text><text fill="#000000" font-family="sans-serif" font-size="14" lengthAdjust="spacing" textLength="37.2148" x="436.73" y="757.2357">&#1062;&#1077;&#1085;&#1072;</text><text fill="#000000" font-family="sans-serif" font-size="14" lengthAdjust="spacing" textLength="91.6494" x="436.73" y="773.5326">&#1060;&#1086;&#1090;&#1086;&#1075;&#1088;&#1072;&#1092;&#1080;&#1103;</text><text fill="#000000" font-family="sans-serif" font-size="14" lengthAdjust="spacing" textLength="128.4336" x="436.73" y="789.8295">&#1056;&#1077;&#1082;&#1083;&#1072;&#1084;&#1085;&#1099;&#1081; &#1090;&#1077;&#1082;&#1089;&#1090;</text><line style="stroke:#181818;stroke-width:0.5;" x1="431.73" x2="570.1636" y1="797.1313" y2="797.1313"/></g><!--class ??????????--><g id="elem_&#1048;&#1085;&#1075;&#1088;&#1077;&#1076;&#1080;&#1077;&#1085;&#1090;"><rect codeLine="32" fill="#F1F1F1" height="178.375" id="&#1048;&#1085;&#1075;&#1088;&#1077;&#1076;&#1080;&#1077;&#1085;&#1090;" rx="2.5" ry="2.5" style="stroke:#181818;stroke-width:0.5;" width="209.6543" x="507.12" y="213.49"/><ellipse cx="563.1063" cy="229.49" fill="#ADD1B2" rx="11" ry="11" style="stroke:#181818;stroke-width:1.0;"/><path d="M567.2157,235.49 L559.497,235.49 L559.497,223.0994 L567.2157,223.0994 L567.2157,225.2556 L561.9501,225.2556 L561.9501,227.9275 L566.7157,227.9275 L566.7157,230.0838 L561.9501,230.0838 L561.9501,233.3338 L567.2157,233.3338 L567.2157,235.49 Z " fill="#000000"/><text fill="#000000" font-family="sans-serif" font-size="14" lengthAdjust="spacing" textLength="89.1816" x="583.6063" y="234.3367">&#1048;&#1085;&#1075;&#1088;&#1077;&#1076;&#1080;&#1077;&#1085;&#1090;</text><line style="stroke:#181818;stroke-width:0.5;" x1="508.12" x2="715.7743" y1="245.49" y2="245.49"/><text fill="#000000" font-family="sans-serif" font-size="14" lengthAdjust="spacing" textLength="70.2461" x="513.12" y="262.4851">&#1053;&#1072;&#1079;&#1074;&#1072;&#1085;&#1080;&#1077;</text><text fill="#000000" font-family="sans-serif" font-size="14" lengthAdjust="spacing" textLength="33.2158" x="513.12" y="278.782">&#1041;&#1046;&#1059;</text><text fill="#000000" font-family="sans-serif" font-size="14" lengthAdjust="spacing" textLength="104.9385" x="513.12" y="295.0789">&#1050;&#1072;&#1083;&#1086;&#1088;&#1080;&#1081;&#1085;&#1086;&#1089;&#1090;&#1100;</text><text fill="#000000" font-family="sans-serif" font-size="14" lengthAdjust="spacing" textLength="91.6494" x="513.12" y="311.3757">&#1060;&#1086;&#1090;&#1086;&#1075;&#1088;&#1072;&#1092;&#1080;&#1103;</text><text fill="#000000" font-family="sans-serif" font-size="14" lengthAdjust="spacing" textLength="37.2148" x="513.12" y="327.6726">&#1062;&#1077;&#1085;&#1072;</text><text fill="#000000" font-family="sans-serif" font-size="14" lengthAdjust="spacing" textLength="94.6162" x="513.12" y="343.9695">&#1044;&#1086;&#1089;&#1090;&#1091;&#1087;&#1085;&#1086;&#1089;&#1090;&#1100;</text><text fill="#000000" font-family="sans-serif" font-size="14" lengthAdjust="spacing" textLength="197.6543" x="513.12" y="360.2664">&#1052;&#1072;&#1082;&#1089;&#1080;&#1084;&#1072;&#1083;&#1100;&#1085;&#1086;&#1077; &#1082;&#1086;&#1083;&#1080;&#1095;&#1077;&#1089;&#1090;&#1074;&#1086;</text><text fill="#000000" font-family="sans-serif" font-size="14" lengthAdjust="spacing" textLength="119.8887" x="513.12" y="376.5632">&#1054;&#1073;&#1103;&#1079;&#1072;&#1090;&#1077;&#1083;&#1100;&#1085;&#1086;&#1089;&#1090;&#1100;</text><line style="stroke:#181818;stroke-width:0.5;" x1="508.12" x2="715.7743" y1="383.865" y2="383.865"/></g><!--class ???????????--><g id="elem_&#1050;&#1086;&#1084;&#1073;&#1086;&#1073;&#1091;&#1088;&#1075;&#1077;&#1088;"><rect codeLine="43" fill="#F1F1F1" height="129.4844" id="&#1050;&#1086;&#1084;&#1073;&#1086;&#1073;&#1091;&#1088;&#1075;&#1077;&#1088;" rx="2.5" ry="2.5" style="stroke:#181818;stroke-width:0.5;" width="235.3369" x="501.27" y="468.86"/><ellipse cx="566.2251" cy="484.86" fill="#ADD1B2" rx="11" ry="11" style="stroke:#181818;stroke-width:1.0;"/><path d="M570.3345,490.86 L562.6157,490.86 L562.6157,478.4694 L570.3345,478.4694 L570.3345,480.6256 L565.0688,480.6256 L565.0688,483.2975 L569.8345,483.2975 L569.8345,485.4538 L565.0688,485.4538 L565.0688,488.7038 L570.3345,488.7038 L570.3345,490.86 Z " fill="#000000"/><text fill="#000000" font-family="sans-serif" font-size="14" lengthAdjust="spacing" textLength="96.9268" x="586.7251" y="489.7067">&#1050;&#1086;&#1084;&#1073;&#1086;&#1073;&#1091;&#1088;&#1075;&#1077;&#1088;</text><line style="stroke:#181818;stroke-width:0.5;" x1="502.27" x2="735.6069" y1="500.86" y2="500.86"/><text fill="#000000" font-family="sans-serif" font-size="14" lengthAdjust="spacing" textLength="70.2461" x="507.27" y="517.8551">&#1053;&#1072;&#1079;&#1074;&#1072;&#1085;&#1080;&#1077;</text><text fill="#000000" font-family="sans-serif" font-size="14" lengthAdjust="spacing" textLength="72.4131" x="507.27" y="534.152">&#1054;&#1087;&#1080;&#1089;&#1072;&#1085;&#1080;&#1077;</text><text fill="#000000" font-family="sans-serif" font-size="14" lengthAdjust="spacing" textLength="51.0234" x="507.27" y="550.4489">&#1057;&#1086;&#1089;&#1090;&#1072;&#1074;</text><text fill="#000000" font-family="sans-serif" font-size="14" lengthAdjust="spacing" textLength="223.3369" x="507.27" y="566.7457">&#1054;&#1075;&#1088;&#1072;&#1085;&#1080;&#1095;&#1077;&#1085;&#1080;&#1077; &#1085;&#1072; &#1080;&#1085;&#1075;&#1088;&#1077;&#1076;&#1080;&#1077;&#1085;&#1090;&#1099;</text><text fill="#000000" font-family="sans-serif" font-size="14" lengthAdjust="spacing" textLength="63.4375" x="507.27" y="583.0426">&#1053;&#1072;&#1094;&#1077;&#1085;&#1082;&#1072;</text><line style="stroke:#181818;stroke-width:0.5;" x1="502.27" x2="735.6069" y1="590.3444" y2="590.3444"/></g><!--class ???????--><g id="elem_&#1050;&#1086;&#1088;&#1079;&#1080;&#1085;&#1072;"><rect codeLine="51" fill="#F1F1F1" height="80.5938" id="&#1050;&#1086;&#1088;&#1079;&#1080;&#1085;&#1072;" rx="2.5" ry="2.5" style="stroke:#181818;stroke-width:0.5;" width="215.6836" x="366.1" y="922.87"/><ellipse cx="438.8583" cy="938.87" fill="#ADD1B2" rx="11" ry="11" style="stroke:#181818;stroke-width:1.0;"/><path d="M442.9677,944.87 L435.2489,944.87 L435.2489,932.4794 L442.9677,932.4794 L442.9677,934.6356 L437.7021,934.6356 L437.7021,937.3075 L442.4677,937.3075 L442.4677,939.4638 L437.7021,939.4638 L437.7021,942.7138 L442.9677,942.7138 L442.9677,944.87 Z " fill="#000000"/><text fill="#000000" font-family="sans-serif" font-size="14" lengthAdjust="spacing" textLength="61.667" x="459.3583" y="943.7167">&#1050;&#1086;&#1088;&#1079;&#1080;&#1085;&#1072;</text><line style="stroke:#181818;stroke-width:0.5;" x1="367.1" x2="580.7836" y1="954.87" y2="954.87"/><text fill="#000000" font-family="sans-serif" font-size="14" lengthAdjust="spacing" textLength="78.8252" x="372.1" y="971.8651">&#1057;&#1090;&#1086;&#1080;&#1084;&#1086;&#1089;&#1090;&#1100;</text><line style="stroke:#181818;stroke-width:0.5;" x1="367.1" x2="580.7836" y1="979.1669" y2="979.1669"/><text fill="#000000" font-family="sans-serif" font-size="14" lengthAdjust="spacing" textLength="203.6836" x="372.1" y="996.162">&#1057;&#1086;&#1089;&#1090;&#1072;&#1074; (&#1073;&#1083;&#1102;&#1076;&#1086;-&#1082;&#1086;&#1083;&#1080;&#1095;&#1077;&#1089;&#1090;&#1074;&#1086;)</text></g><!--class ?????--><g id="elem_&#1047;&#1072;&#1082;&#1072;&#1079;"><rect codeLine="56" fill="#F1F1F1" height="162.0781" id="&#1047;&#1072;&#1082;&#1072;&#1079;" rx="2.5" ry="2.5" style="stroke:#181818;stroke-width:0.5;" width="147.3516" x="400.27" y="1121.21"/><ellipse cx="448.6787" cy="1137.21" fill="#ADD1B2" rx="11" ry="11" style="stroke:#181818;stroke-width:1.0;"/><path d="M452.7881,1143.21 L445.0693,1143.21 L445.0693,1130.8194 L452.7881,1130.8194 L452.7881,1132.9756 L447.5224,1132.9756 L447.5224,1135.6475 L452.2881,1135.6475 L452.2881,1137.8038 L447.5224,1137.8038 L447.5224,1141.0538 L452.7881,1141.0538 L452.7881,1143.21 Z " fill="#000000"/><text fill="#000000" font-family="sans-serif" font-size="14" lengthAdjust="spacing" textLength="42.0342" x="469.1787" y="1142.0567">&#1047;&#1072;&#1082;&#1072;&#1079;</text><line style="stroke:#181818;stroke-width:0.5;" x1="401.27" x2="546.6216" y1="1153.21" y2="1153.21"/><text fill="#000000" font-family="sans-serif" font-size="14" lengthAdjust="spacing" textLength="47.1543" x="406.27" y="1170.2051">&#1053;&#1086;&#1084;&#1077;&#1088;</text><text fill="#000000" font-family="sans-serif" font-size="14" lengthAdjust="spacing" textLength="50.6475" x="406.27" y="1186.502">&#1057;&#1090;&#1072;&#1090;&#1091;&#1089;</text><text fill="#000000" font-family="sans-serif" font-size="14" lengthAdjust="spacing" textLength="36.251" x="406.27" y="1202.7989">&#1044;&#1072;&#1090;&#1072;</text><text fill="#000000" font-family="sans-serif" font-size="14" lengthAdjust="spacing" textLength="78.8252" x="406.27" y="1219.0957">&#1057;&#1090;&#1086;&#1080;&#1084;&#1086;&#1089;&#1090;&#1100;</text><text fill="#000000" font-family="sans-serif" font-size="14" lengthAdjust="spacing" textLength="135.3516" x="406.27" y="1235.3926">&#1057;&#1087;&#1086;&#1089;&#1086;&#1073; &#1087;&#1086;&#1083;&#1091;&#1095;&#1077;&#1085;&#1080;&#1103;</text><text fill="#000000" font-family="sans-serif" font-size="14" lengthAdjust="spacing" textLength="129.0488" x="406.27" y="1251.6895">&#1042;&#1088;&#1077;&#1084;&#1103; &#1087;&#1086;&#1083;&#1091;&#1095;&#1077;&#1085;&#1080;&#1103;</text><text fill="#000000" font-family="sans-serif" font-size="14" lengthAdjust="spacing" textLength="111.2959" x="406.27" y="1267.9864">&#1057;&#1087;&#1086;&#1089;&#1086;&#1073; &#1086;&#1087;&#1083;&#1072;&#1090;&#1099;</text><line style="stroke:#181818;stroke-width:0.5;" x1="401.27" x2="546.6216" y1="1275.2881" y2="1275.2881"/></g><!--class ??????????--><g id="elem_&#1057;&#1087;&#1088;&#1072;&#1074;&#1086;&#1095;&#1085;&#1080;&#1082;"><rect codeLine="66" fill="#F1F1F1" height="80.5938" id="&#1057;&#1087;&#1088;&#1072;&#1074;&#1086;&#1095;&#1085;&#1080;&#1082;" rx="2.5" ry="2.5" style="stroke:#181818;stroke-width:0.5;" width="147.3516" x="316.27" y="1384.73"/><ellipse cx="343.4925" cy="1400.73" fill="#ADD1B2" rx="11" ry="11" style="stroke:#181818;stroke-width:1.0;"/><path d="M347.6019,1406.73 L339.8831,1406.73 L339.8831,1394.3394 L347.6019,1394.3394 L347.6019,1396.4956 L342.3363,1396.4956 L342.3363,1399.1675 L347.1019,1399.1675 L347.1019,1401.3238 L342.3363,1401.3238 L342.3363,1404.5738 L347.6019,1404.5738 L347.6019,1406.73 Z " fill="#000000"/><text fill="#000000" font-family="sans-serif" font-size="14" lengthAdjust="spacing" textLength="88.1904" x="360.2086" y="1405.5767">&#1057;&#1087;&#1088;&#1072;&#1074;&#1086;&#1095;&#1085;&#1080;&#1082;</text><line style="stroke:#181818;stroke-width:0.5;" x1="317.27" x2="462.6216" y1="1416.73" y2="1416.73"/><text fill="#000000" font-family="sans-serif" font-size="14" lengthAdjust="spacing" textLength="135.3516" x="322.27" y="1433.7251">&#1057;&#1087;&#1086;&#1089;&#1086;&#1073; &#1087;&#1086;&#1083;&#1091;&#1095;&#1077;&#1085;&#1080;&#1103;</text><text fill="#000000" font-family="sans-serif" font-size="14" lengthAdjust="spacing" textLength="111.2959" x="322.27" y="1450.022">&#1057;&#1087;&#1086;&#1089;&#1086;&#1073; &#1086;&#1087;&#1083;&#1072;&#1090;&#1099;</text><line style="stroke:#181818;stroke-width:0.5;" x1="317.27" x2="462.6216" y1="1457.3238" y2="1457.3238"/></g><!--class ??????????--><g id="elem_&#1058;&#1088;&#1072;&#1085;&#1079;&#1072;&#1082;&#1094;&#1080;&#1103;"><rect codeLine="71" fill="#F1F1F1" height="129.4844" id="&#1058;&#1088;&#1072;&#1085;&#1079;&#1072;&#1082;&#1094;&#1080;&#1103;" rx="2.5" ry="2.5" style="stroke:#181818;stroke-width:0.5;" width="118.7002" x="498.59" y="1360.29"/><ellipse cx="513.59" cy="1376.29" fill="#ADD1B2" rx="11" ry="11" style="stroke:#181818;stroke-width:1.0;"/><path d="M517.6994,1382.29 L509.9806,1382.29 L509.9806,1369.8994 L517.6994,1369.8994 L517.6994,1372.0556 L512.4337,1372.0556 L512.4337,1374.7275 L517.1994,1374.7275 L517.1994,1376.8838 L512.4337,1376.8838 L512.4337,1380.1338 L517.6994,1380.1338 L517.6994,1382.29 Z " fill="#000000"/><text fill="#000000" font-family="sans-serif" font-size="14" lengthAdjust="spacing" textLength="86.7002" x="527.59" y="1381.1367">&#1058;&#1088;&#1072;&#1085;&#1079;&#1072;&#1082;&#1094;&#1080;&#1103;</text><line style="stroke:#181818;stroke-width:0.5;" x1="499.59" x2="616.2902" y1="1392.29" y2="1392.29"/><text fill="#000000" font-family="sans-serif" font-size="14" lengthAdjust="spacing" textLength="35.793" x="504.59" y="1409.2851">&#1041;&#1072;&#1085;&#1082;</text><text fill="#000000" font-family="sans-serif" font-size="14" lengthAdjust="spacing" textLength="50.6475" x="504.59" y="1425.582">&#1057;&#1090;&#1072;&#1090;&#1091;&#1089;</text><text fill="#000000" font-family="sans-serif" font-size="14" lengthAdjust="spacing" textLength="82.3389" x="504.59" y="1441.8789">&#1044;&#1072;&#1090;&#1072;&#1042;&#1088;&#1077;&#1084;&#1103;</text><text fill="#000000" font-family="sans-serif" font-size="14" lengthAdjust="spacing" textLength="47.7627" x="504.59" y="1458.1757">&#1057;&#1091;&#1084;&#1084;&#1072;</text><text fill="#000000" font-family="sans-serif" font-size="14" lengthAdjust="spacing" textLength="26.667" x="504.59" y="1474.4726">&#1063;&#1077;&#1082;</text><line style="stroke:#181818;stroke-width:0.5;" x1="499.59" x2="616.2902" y1="1481.7744" y2="1481.7744"/></g><!--class ?????--><g id="elem_&#1056;&#1086;&#1073;&#1086;&#1090;"><rect codeLine="79" fill="#F1F1F1" height="113.1875" id="&#1056;&#1086;&#1073;&#1086;&#1090;" rx="2.5" ry="2.5" style="stroke:#181818;stroke-width:0.5;" width="186.3369" x="758.77" y="675.64"/><ellipse cx="826.5073" cy="691.64" fill="#ADD1B2" rx="11" ry="11" style="stroke:#181818;stroke-width:1.0;"/><path d="M830.6167,697.64 L822.8979,697.64 L822.8979,685.2494 L830.6167,685.2494 L830.6167,687.4056 L825.3511,687.4056 L825.3511,690.0775 L830.1167,690.0775 L830.1167,692.2338 L825.3511,692.2338 L825.3511,695.4838 L830.6167,695.4838 L830.6167,697.64 Z " fill="#000000"/><text fill="#000000" font-family="sans-serif" font-size="14" lengthAdjust="spacing" textLength="42.3623" x="847.0073" y="696.4867">&#1056;&#1086;&#1073;&#1086;&#1090;</text><line style="stroke:#181818;stroke-width:0.5;" x1="759.77" x2="944.1069" y1="707.64" y2="707.64"/><text fill="#000000" font-family="sans-serif" font-size="14" lengthAdjust="spacing" textLength="118.8838" x="764.77" y="724.6351">&#1048;&#1076;&#1077;&#1085;&#1090;&#1080;&#1092;&#1080;&#1082;&#1072;&#1090;&#1086;&#1088;</text><text fill="#000000" font-family="sans-serif" font-size="14" lengthAdjust="spacing" textLength="50.6475" x="764.77" y="740.932">&#1057;&#1090;&#1072;&#1090;&#1091;&#1089;</text><text fill="#000000" font-family="sans-serif" font-size="14" lengthAdjust="spacing" textLength="128.4336" x="764.77" y="757.2289">&#1052;&#1077;&#1089;&#1090;&#1086;&#1087;&#1086;&#1083;&#1086;&#1078;&#1077;&#1085;&#1080;&#1077;</text><text fill="#000000" font-family="sans-serif" font-size="14" lengthAdjust="spacing" textLength="174.3369" x="764.77" y="773.5257">&#1058;&#1077;&#1093;&#1085;&#1080;&#1095;&#1077;&#1089;&#1082;&#1086;&#1077; &#1089;&#1086;&#1089;&#1090;&#1086;&#1103;&#1085;&#1080;&#1077;</text><line style="stroke:#181818;stroke-width:0.5;" x1="759.77" x2="944.1069" y1="780.8275" y2="780.8275"/></g><!--class ???????--><g id="elem_&#1047;&#1072;&#1076;&#1072;&#1085;&#1080;&#1077;"><rect codeLine="86" fill="#F1F1F1" height="129.4844" id="&#1047;&#1072;&#1076;&#1072;&#1085;&#1080;&#1077;" rx="2.5" ry="2.5" style="stroke:#181818;stroke-width:0.5;" width="140.8027" x="778.54" y="898.43"/><ellipse cx="814.2958" cy="914.43" fill="#ADD1B2" rx="11" ry="11" style="stroke:#181818;stroke-width:1.0;"/><path d="M818.4052,920.43 L810.6864,920.43 L810.6864,908.0394 L818.4052,908.0394 L818.4052,910.1956 L813.1396,910.1956 L813.1396,912.8675 L817.9052,912.8675 L817.9052,915.0238 L813.1396,915.0238 L813.1396,918.2738 L818.4052,918.2738 L818.4052,920.43 Z " fill="#000000"/><text fill="#000000" font-family="sans-serif" font-size="14" lengthAdjust="spacing" textLength="62.6787" x="832.9082" y="919.2767">&#1047;&#1072;&#1076;&#1072;&#1085;&#1080;&#1077;</text><line style="stroke:#181818;stroke-width:0.5;" x1="779.54" x2="918.3427" y1="930.43" y2="930.43"/><text fill="#000000" font-family="sans-serif" font-size="14" lengthAdjust="spacing" textLength="118.8838" x="784.54" y="947.4251">&#1048;&#1076;&#1077;&#1085;&#1090;&#1080;&#1092;&#1080;&#1082;&#1072;&#1090;&#1086;&#1088;</text><text fill="#000000" font-family="sans-serif" font-size="14" lengthAdjust="spacing" textLength="72.4131" x="784.54" y="963.722">&#1054;&#1087;&#1080;&#1089;&#1072;&#1085;&#1080;&#1077;</text><text fill="#000000" font-family="sans-serif" font-size="14" lengthAdjust="spacing" textLength="50.6475" x="784.54" y="980.0189">&#1057;&#1090;&#1072;&#1090;&#1091;&#1089;</text><text fill="#000000" font-family="sans-serif" font-size="14" lengthAdjust="spacing" textLength="102.6484" x="784.54" y="996.3157">&#1042;&#1088;&#1077;&#1084;&#1103; &#1085;&#1072;&#1095;&#1072;&#1083;&#1072;</text><text fill="#000000" font-family="sans-serif" font-size="14" lengthAdjust="spacing" textLength="128.8027" x="784.54" y="1012.6126">&#1042;&#1088;&#1077;&#1084;&#1103; &#1086;&#1082;&#1086;&#1085;&#1095;&#1072;&#1085;&#1080;&#1103;</text><line style="stroke:#181818;stroke-width:0.5;" x1="779.54" x2="918.3427" y1="1019.9144" y2="1019.9144"/></g><!--class ????????????????????--><g id="elem_&#1058;&#1077;&#1093;&#1085;&#1086;&#1083;&#1086;&#1075;&#1080;&#1095;&#1077;&#1089;&#1082;&#1072;&#1103;&#1050;&#1072;&#1088;&#1090;&#1072;"><rect codeLine="94" fill="#F1F1F1" height="129.4844" id="&#1058;&#1077;&#1093;&#1085;&#1086;&#1083;&#1086;&#1075;&#1080;&#1095;&#1077;&#1089;&#1082;&#1072;&#1103;&#1050;&#1072;&#1088;&#1090;&#1072;" rx="2.5" ry="2.5" style="stroke:#181818;stroke-width:0.5;" width="203.3154" x="375.29" y="7"/><ellipse cx="390.29" cy="23" fill="#ADD1B2" rx="11" ry="11" style="stroke:#181818;stroke-width:1.0;"/><path d="M394.3994,29 L386.6806,29 L386.6806,16.6094 L394.3994,16.6094 L394.3994,18.7656 L389.1338,18.7656 L389.1338,21.4375 L393.8994,21.4375 L393.8994,23.5938 L389.1338,23.5938 L389.1338,26.8438 L394.3994,26.8438 L394.3994,29 Z " fill="#000000"/><text fill="#000000" font-family="sans-serif" font-size="14" lengthAdjust="spacing" textLength="171.3154" x="404.29" y="27.8467">&#1058;&#1077;&#1093;&#1085;&#1086;&#1083;&#1086;&#1075;&#1080;&#1095;&#1077;&#1089;&#1082;&#1072;&#1103;&#1050;&#1072;&#1088;&#1090;&#1072;</text><line style="stroke:#181818;stroke-width:0.5;" x1="376.29" x2="577.6054" y1="39" y2="39"/><text fill="#000000" font-family="sans-serif" font-size="14" lengthAdjust="spacing" textLength="70.2461" x="381.29" y="55.9951">&#1053;&#1072;&#1079;&#1074;&#1072;&#1085;&#1080;&#1077;</text><text fill="#000000" font-family="sans-serif" font-size="14" lengthAdjust="spacing" textLength="72.4131" x="381.29" y="72.292">&#1054;&#1087;&#1080;&#1089;&#1072;&#1085;&#1080;&#1077;</text><text fill="#000000" font-family="sans-serif" font-size="14" lengthAdjust="spacing" textLength="100.2354" x="381.29" y="88.5889">&#1048;&#1085;&#1075;&#1088;&#1077;&#1076;&#1080;&#1077;&#1085;&#1090;&#1099;</text><text fill="#000000" font-family="sans-serif" font-size="14" lengthAdjust="spacing" textLength="137.2451" x="381.29" y="104.8857">&#1055;&#1086;&#1088;&#1103;&#1076;&#1086;&#1082; &#1076;&#1077;&#1081;&#1089;&#1090;&#1074;&#1080;&#1081;</text><text fill="#000000" font-family="sans-serif" font-size="14" lengthAdjust="spacing" textLength="162.8047" x="381.29" y="121.1826">&#1042;&#1088;&#1077;&#1084;&#1103; &#1087;&#1088;&#1080;&#1075;&#1086;&#1090;&#1086;&#1074;&#1083;&#1077;&#1085;&#1080;&#1103;</text><line style="stroke:#181818;stroke-width:0.5;" x1="376.29" x2="577.6054" y1="128.4844" y2="128.4844"/></g><!--link ?????? to ???????--><g id="link_&#1050;&#1083;&#1080;&#1077;&#1085;&#1090;_&#1050;&#1086;&#1088;&#1079;&#1080;&#1085;&#1072;"><path codeLine="102" d="M316.42,780.95 C352.87,822.88 401.3536,878.6618 435.5436,917.9918 " fill="none" id="&#1050;&#1083;&#1080;&#1077;&#1085;&#1090;-to-&#1050;&#1086;&#1088;&#1079;&#1080;&#1085;&#1072;" style="stroke:#181818;stroke-width:1.0;"/><polygon fill="#181818" points="439.48,922.52,436.5942,913.1034,436.1997,918.7465,430.5566,918.352,439.48,922.52" style="stroke:#181818;stroke-width:1.0;"/><text fill="#000000" font-family="sans-serif" font-size="13" lengthAdjust="spacing" textLength="77.1685" x="375.94" y="848.1969">&#1060;&#1086;&#1088;&#1084;&#1080;&#1088;&#1091;&#1077;&#1090;</text><text fill="#000000" font-family="sans-serif" font-size="13" lengthAdjust="spacing" textLength="8.271" x="313.4747" y="800.5797">1</text><text fill="#000000" font-family="sans-serif" font-size="13" lengthAdjust="spacing" textLength="24.8066" x="408.1394" y="911.9241">0..1</text></g><!--link ?????? to ?????--><g id="link_&#1050;&#1083;&#1080;&#1077;&#1085;&#1090;_&#1047;&#1072;&#1082;&#1072;&#1079;"><path codeLine="103" d="M267.61,781.14 C260.18,844.8 255.02,959.13 296.94,1044.21 C319.64,1090.27 357.51,1125.2714 395.3,1152.6314 " fill="none" id="&#1050;&#1083;&#1080;&#1077;&#1085;&#1090;-to-&#1047;&#1072;&#1082;&#1072;&#1079;" style="stroke:#181818;stroke-width:1.0;"/><polygon fill="#181818" points="400.16,1156.15,395.2158,1147.6321,396.11,1153.2178,390.5243,1154.112,400.16,1156.15" style="stroke:#181818;stroke-width:1.0;"/><text fill="#000000" font-family="sans-serif" font-size="13" lengthAdjust="spacing" textLength="50.0005" x="297.94" y="967.7369">&#1044;&#1077;&#1083;&#1072;&#1077;&#1090;</text><text fill="#000000" font-family="sans-serif" font-size="13" lengthAdjust="spacing" textLength="8.271" x="258.1058" y="800.7952">1</text><text fill="#000000" font-family="sans-serif" font-size="13" lengthAdjust="spacing" textLength="23.0356" x="369.2994" y="1148.2819">0..*</text></g><!--reverse link ??????? to ?????--><g id="link_&#1050;&#1086;&#1088;&#1079;&#1080;&#1085;&#1072;_&#1047;&#1072;&#1082;&#1072;&#1079;"><path codeLine="104" d="M473.94,1021.85 C473.94,1053.75 473.94,1081.59 473.94,1121.07 " fill="none" id="&#1050;&#1086;&#1088;&#1079;&#1080;&#1085;&#1072;-backto-&#1047;&#1072;&#1082;&#1072;&#1079;" style="stroke:#181818;stroke-width:1.0;"/><polygon fill="none" points="473.94,1003.85,467.94,1021.85,479.94,1021.85,473.94,1003.85" style="stroke:#181818;stroke-width:1.0;"/></g><!--link ????? to ???????--><g id="link_&#1041;&#1083;&#1102;&#1076;&#1086;_&#1050;&#1086;&#1088;&#1079;&#1080;&#1085;&#1072;"><path codeLine="105" d="M492.44,805.36 C487.88,844.02 483.8332,878.2723 480.0432,910.4623 " fill="none" id="&#1041;&#1083;&#1102;&#1076;&#1086;-to-&#1050;&#1086;&#1088;&#1079;&#1080;&#1085;&#1072;" style="stroke:#181818;stroke-width:1.0;"/><polygon fill="none" points="478.64,922.38,483.3141,916.8889,480.0432,910.4623,475.369,915.9534,478.64,922.38" style="stroke:#181818;stroke-width:1.0;"/><text fill="#000000" font-family="sans-serif" font-size="13" lengthAdjust="spacing" textLength="16.5356" x="474.8922" y="825.1173">1..</text><text fill="#000000" font-family="sans-serif" font-size="13" lengthAdjust="spacing" textLength="23.0356" x="454.5588" y="911.7618">0..*</text></g><!--link ??????????? to ?????--><g id="link_&#1050;&#1086;&#1084;&#1073;&#1086;&#1073;&#1091;&#1088;&#1075;&#1077;&#1088;_&#1041;&#1083;&#1102;&#1076;&#1086;"><path codeLine="106" d="M580.47,598.72 C568.9,618 565.3932,623.8465 553.5332,643.6065 " fill="none" id="&#1050;&#1086;&#1084;&#1073;&#1086;&#1073;&#1091;&#1088;&#1075;&#1077;&#1088;-to-&#1041;&#1083;&#1102;&#1076;&#1086;" style="stroke:#181818;stroke-width:1.0;"/><polygon fill="none" points="544.27,659.04,558.6777,646.6942,548.3887,640.5188,544.27,659.04" style="stroke:#181818;stroke-width:1.0;"/></g><!--link ????? to ????--><g id="link_&#1041;&#1083;&#1102;&#1076;&#1086;_&#1052;&#1077;&#1085;&#1102;"><path codeLine="107" d="M556.39,805.36 C583.7,840.88 608.5561,873.2165 632.7961,904.7465 " fill="none" id="&#1041;&#1083;&#1102;&#1076;&#1086;-to-&#1052;&#1077;&#1085;&#1102;" style="stroke:#181818;stroke-width:1.0;"/><polygon fill="none" points="640.11,914.26,639.6242,907.0653,632.7961,904.7465,633.2819,911.9412,640.11,914.26" style="stroke:#181818;stroke-width:1.0;"/><text fill="#000000" font-family="sans-serif" font-size="13" lengthAdjust="spacing" textLength="16.5356" x="544.9375" y="825.1173">1..</text><text fill="#000000" font-family="sans-serif" font-size="13" lengthAdjust="spacing" textLength="16.5356" x="618.1213" y="903.7564">1..</text></g><!--link ?????????? to ???????????--><g id="link_&#1048;&#1085;&#1075;&#1088;&#1077;&#1076;&#1080;&#1077;&#1085;&#1090;_&#1050;&#1086;&#1084;&#1073;&#1086;&#1073;&#1091;&#1088;&#1075;&#1077;&#1088;"><path codeLine="108" d="M614.65,392.19 C615.43,417.6 615.8947,432.8256 616.6147,456.4656 " fill="none" id="&#1048;&#1085;&#1075;&#1088;&#1077;&#1076;&#1080;&#1077;&#1085;&#1090;-to-&#1050;&#1086;&#1084;&#1073;&#1086;&#1073;&#1091;&#1088;&#1075;&#1077;&#1088;" style="stroke:#181818;stroke-width:1.0;"/><polygon fill="none" points="616.98,468.46,620.7955,462.341,616.6147,456.4656,612.7992,462.5846,616.98,468.46" style="stroke:#181818;stroke-width:1.0;"/><text fill="#000000" font-family="sans-serif" font-size="13" lengthAdjust="spacing" textLength="33.0776" x="580.5536" y="411.9929">2..10</text><text fill="#000000" font-family="sans-serif" font-size="13" lengthAdjust="spacing" textLength="23.0356" x="592.5099" y="457.5889">0..*</text></g><!--link ?????????? to ??????????--><g id="link_&#1048;&#1085;&#1075;&#1088;&#1077;&#1076;&#1080;&#1077;&#1085;&#1090;_&#1048;&#1085;&#1075;&#1088;&#1077;&#1076;&#1080;&#1077;&#1085;&#1090;"><path codeLine="109" d="M717.13,279.84 C737.4,282.53 751.77,290.14 751.77,302.68 C751.77,315.21 737.4,322.82 717.13,325.51 " fill="none" id="&#1048;&#1085;&#1075;&#1088;&#1077;&#1076;&#1080;&#1077;&#1085;&#1090;-&#1048;&#1085;&#1075;&#1088;&#1077;&#1076;&#1080;&#1077;&#1085;&#1090;" style="stroke:#181818;stroke-width:1.0;"/><text fill="#000000" font-family="sans-serif" font-size="13" lengthAdjust="spacing" textLength="95.894" x="757.77" y="307.2469">&#1052;&#1086;&#1078;&#1077;&#1090; &#1073;&#1099;&#1090;&#1100; &#1074;</text></g><!--link ????? to ?????--><g id="link_&#1041;&#1083;&#1102;&#1076;&#1086;_&#1041;&#1083;&#1102;&#1076;&#1086;"><path codeLine="110" d="M571.26,712.95 C591,713.79 606.16,720.22 606.16,732.24 C606.16,744.25 602.9889,750.1638 583.2489,751.0138 " fill="none" id="&#1041;&#1083;&#1102;&#1076;&#1086;-to-&#1041;&#1083;&#1102;&#1076;&#1086;" style="stroke:#181818;stroke-width:1.0;"/><polygon fill="none" points="571.26,751.53,577.4265,755.2682,583.2489,751.0138,577.0824,747.2756,571.26,751.53" style="stroke:#181818;stroke-width:1.0;"/><text fill="#000000" font-family="sans-serif" font-size="13" lengthAdjust="spacing" textLength="123.0557" x="612.16" y="736.8069">&#1057;&#1074;&#1103;&#1079;&#1072;&#1085;&#1085;&#1099;&#1077; &#1073;&#1083;&#1102;&#1076;&#1072;</text></g><!--link ????? to ??????????--><g id="link_&#1047;&#1072;&#1082;&#1072;&#1079;_&#1058;&#1088;&#1072;&#1085;&#1079;&#1072;&#1082;&#1094;&#1080;&#1103;"><path codeLine="111" d="M504.51,1283.58 C514.08,1308.73 520.2294,1324.9256 529.3194,1348.7956 " fill="none" id="&#1047;&#1072;&#1082;&#1072;&#1079;-to-&#1058;&#1088;&#1072;&#1085;&#1079;&#1072;&#1082;&#1094;&#1080;&#1103;" style="stroke:#181818;stroke-width:1.0;"/><polygon fill="none" points="533.59,1360.01,535.1928,1352.9793,529.3194,1348.7956,527.7166,1355.8263,533.59,1360.01" style="stroke:#181818;stroke-width:1.0;"/><text fill="#000000" font-family="sans-serif" font-size="13" lengthAdjust="spacing" textLength="70.002" x="521.94" y="1326.3569">&#1057;&#1086;&#1076;&#1077;&#1088;&#1078;&#1080;&#1090;</text><text fill="#000000" font-family="sans-serif" font-size="13" lengthAdjust="spacing" textLength="8.271" x="498.8045" y="1303.2865">1</text><text fill="#000000" font-family="sans-serif" font-size="13" lengthAdjust="spacing" textLength="23.0356" x="506.6708" y="1349.152">0..*</text></g><!--link ????? to ??????????--><g id="link_&#1047;&#1072;&#1082;&#1072;&#1079;_&#1057;&#1087;&#1088;&#1072;&#1074;&#1086;&#1095;&#1085;&#1080;&#1082;"><path codeLine="112" d="M438.66,1283.77 C434.59,1293.66 430.6,1303.67 426.94,1313.29 C418.09,1336.59 411.0408,1357.3593 404.2008,1378.5793 " fill="none" id="&#1047;&#1072;&#1082;&#1072;&#1079;-to-&#1057;&#1087;&#1088;&#1072;&#1074;&#1086;&#1095;&#1085;&#1080;&#1082;" style="stroke:#181818;stroke-width:1.0;"/><polygon fill="#181818" points="402.36,1384.29,408.9282,1376.9512,403.894,1379.5311,401.314,1374.4968,402.36,1384.29" style="stroke:#181818;stroke-width:1.0;"/><text fill="#000000" font-family="sans-serif" font-size="13" lengthAdjust="spacing" textLength="79.4727" x="427.94" y="1326.3569">&#1048;&#1089;&#1087;&#1086;&#1083;&#1100;&#1079;&#1091;&#1077;&#1090;</text></g><!--link ?????? to ???????????????????--><g id="link_&#1050;&#1083;&#1080;&#1077;&#1085;&#1090;_&#1055;&#1088;&#1086;&#1075;&#1088;&#1072;&#1084;&#1084;&#1072;&#1051;&#1086;&#1103;&#1083;&#1100;&#1085;&#1086;&#1089;&#1090;&#1080;"><path codeLine="113" d="M218.58,781.04 C201.65,797.13 183.88,815.9 169.94,835.13 C159.57,849.44 155.5922,855.0552 147.3822,871.1152 " fill="none" id="&#1050;&#1083;&#1080;&#1077;&#1085;&#1090;-to-&#1055;&#1088;&#1086;&#1075;&#1088;&#1072;&#1084;&#1084;&#1072;&#1051;&#1086;&#1103;&#1083;&#1100;&#1085;&#1086;&#1089;&#1090;&#1080;" style="stroke:#181818;stroke-width:1.0;"/><polygon fill="none" points="141.92,881.8,148.2127,878.2783,147.3822,871.1152,141.0895,874.6369,141.92,881.8" style="stroke:#181818;stroke-width:1.0;"/><text fill="#000000" font-family="sans-serif" font-size="13" lengthAdjust="spacing" textLength="81.0088" x="170.94" y="848.1969">&#1059;&#1095;&#1072;&#1089;&#1090;&#1074;&#1091;&#1077;&#1090; &#1074;</text><text fill="#000000" font-family="sans-serif" font-size="13" lengthAdjust="spacing" textLength="8.271" x="202.4874" y="800.6818">1</text><text fill="#000000" font-family="sans-serif" font-size="13" lengthAdjust="spacing" textLength="24.8066" x="119.9132" y="870.9579">0..1</text></g><!--link ????? to ???????--><g id="link_&#1056;&#1086;&#1073;&#1086;&#1090;_&#1047;&#1072;&#1076;&#1072;&#1085;&#1080;&#1077;"><path codeLine="115" d="M851.21,789.24 C850.78,822.2 850.23,864 849.78,898.25 " fill="none" id="&#1056;&#1086;&#1073;&#1086;&#1090;-&#1047;&#1072;&#1076;&#1072;&#1085;&#1080;&#1077;" style="stroke:#181818;stroke-width:1.0;"/><text fill="#000000" font-family="sans-serif" font-size="13" lengthAdjust="spacing" textLength="75.8354" x="850.94" y="848.1969">&#1042;&#1099;&#1087;&#1086;&#1083;&#1085;&#1103;&#1077;&#1090;</text><text fill="#000000" font-family="sans-serif" font-size="13" lengthAdjust="spacing" textLength="23.0356" x="826.7981" y="808.7731">1..*</text><text fill="#000000" font-family="sans-serif" font-size="13" lengthAdjust="spacing" textLength="23.0356" x="825.6159" y="887.403">0..*</text></g><!--link ??????? to ?????--><g id="link_&#1047;&#1072;&#1076;&#1072;&#1085;&#1080;&#1077;_&#1047;&#1072;&#1082;&#1072;&#1079;"><path codeLine="116" d="M778.25,1026.85 C770.55,1032.93 762.69,1038.82 754.94,1044.21 C687.95,1090.78 605.97,1135.31 547.89,1164.98 " fill="none" id="&#1047;&#1072;&#1076;&#1072;&#1085;&#1080;&#1077;-&#1047;&#1072;&#1082;&#1072;&#1079;" style="stroke:#181818;stroke-width:1.0;"/><text fill="#000000" font-family="sans-serif" font-size="13" lengthAdjust="spacing" textLength="67.1709" x="703.94" y="1087.2769">&#1057;&#1074;&#1103;&#1079;&#1072;&#1085;&#1086; &#1089;</text></g><!--link ???????????????????? to ?????--><g id="link_&#1058;&#1077;&#1093;&#1085;&#1086;&#1083;&#1086;&#1075;&#1080;&#1095;&#1077;&#1089;&#1082;&#1072;&#1103;&#1050;&#1072;&#1088;&#1090;&#1072;_&#1041;&#1083;&#1102;&#1076;&#1086;"><path codeLine="117" d="M475.45,136.76 C473.67,235.83 472.25,432.21 483.94,598.35 C485.33,618.07 487.67,639.35 490.18,658.97 " fill="none" id="&#1058;&#1077;&#1093;&#1085;&#1086;&#1083;&#1086;&#1075;&#1080;&#1095;&#1077;&#1089;&#1082;&#1072;&#1103;&#1050;&#1072;&#1088;&#1090;&#1072;-&#1041;&#1083;&#1102;&#1076;&#1086;" style="stroke:#181818;stroke-width:1.0;"/><text fill="#000000" font-family="sans-serif" font-size="13" lengthAdjust="spacing" textLength="83.6685" x="477.94" y="434.9269">&#1054;&#1087;&#1088;&#1077;&#1076;&#1077;&#1083;&#1103;&#1077;&#1090;</text></g><!--link ???????????????????? to ??????????--><g id="link_&#1058;&#1077;&#1093;&#1085;&#1086;&#1083;&#1086;&#1075;&#1080;&#1095;&#1077;&#1089;&#1082;&#1072;&#1103;&#1050;&#1072;&#1088;&#1090;&#1072;_&#1048;&#1085;&#1075;&#1088;&#1077;&#1076;&#1080;&#1077;&#1085;&#1090;"><path codeLine="118" d="M514.73,136.82 C528.69,160.5 544.77,187.77 559.79,213.23 " fill="none" id="&#1058;&#1077;&#1093;&#1085;&#1086;&#1083;&#1086;&#1075;&#1080;&#1095;&#1077;&#1089;&#1082;&#1072;&#1103;&#1050;&#1072;&#1088;&#1090;&#1072;-&#1048;&#1085;&#1075;&#1088;&#1077;&#1076;&#1080;&#1077;&#1085;&#1090;" style="stroke:#181818;stroke-width:1.0;"/><text fill="#000000" font-family="sans-serif" font-size="13" lengthAdjust="spacing" textLength="79.4727" x="540.94" y="179.5569">&#1048;&#1089;&#1087;&#1086;&#1083;&#1100;&#1079;&#1091;&#1077;&#1090;</text></g><!--SRC=[bLRBJXj14BplLupsb23PWXmvvCPlv9vBk729K2HZ9t2m1GAXn284C4J9TR5P_5x_GiyVfQfd7xFiMZWNQtTskhghkgR7UvyEFXvyDd8bSvb8B4lRDeU1tEDnBh7zAeai0tcm9nBP8zkM9NRDZ3notNRi4HOIcHfPsHOUHlYDP24BsmraWFWZx9ZOi-1B4EobcMxBE_7xKn9x9dFR8vXccR26Asn3KKWTw-9G4Zzn8iD0VajVRYhbtWBc115H89VAgMSqwRCyyLKh0YSk3TFlCYi4S74H7nonYQQB4Jr1T8RWSRhMm5DM_Gk4ne2DLAeOCcWUQCRSqvI9Ld2F3IiVvXmYd69VKWlajikDhBIWVFsFLXHHZ0JWgRRGGfFSuIkvKUobxQ9Ns8Cb5kBdxWE3WOvbReHA5UVoNHxOd0YW2SMHQTOtsrjJH5xYPRgn0n9Uq3NGPhIA-Y5rWiJiIiK3LE0HVXbhXsBVDu3o6D4_2pNC8mpJaX4mMhMSAf8EKXz6zDXDQjQbgyFjCUHZr0ylLAFraS4UwzOPM9ThmkwnnaMiPQ1YaNSkXfVSl47zgISQTMAyzS5_K4LoSoJ97enTZeYYswFSs6ioh_X2nGmVaRgJKMORBvJfmfxLVYr59tYPQzQkN-90prF4qX7gXidXwuatWRvFcpHMBnqpaD3dkZYhLw5WnEyTDuy2-Si3ucFVCJEDJSI-co8SK_Gt9QUK5QMlqpObZf7EdxWupB7zbbaAp6RgTr9qCJ2us_cYlq-PIL-ff6fflpIlaV0XXpiLBQqdMj9IlrNcNLQzepNoM4Ge7BF1jdHwRdJO-lLdY4Ey1RIdckafqx8PTGoDqiapv5LGr5owsiATq3GQxqsutMpYiNmUTurEhnPCC47g3YYrruTlXTw9G-Ybta5H5kIVym-DXhStyEPykDDi4d8_Xon51ck6MAFnmRijge0EKH-pkwbMPnE-WmxRMK1HGZLdVJo9rQtlCgyQ7Y-0wNB064xJebIcz5vtEHs6Rh03aNTLRFBn1ocAyURQK1HST_HtJSX9Ij_WwpFMsg6FmJRMZYC6zk5FDuPwCdP62EkSi9yRQRD_DSGk_aiD7J9a2OF0cp5it1RXIpuhJZvHBY2F6ojBP8bpSiMkakTIEGfv4yoQCDZu81FCRrN8Ovpsd5TmLiB_uDNxfbxyVm00]--></g></svg>