<svg xmlns="http://www.w3.org/2000/svg" xmlns:xlink="http://www.w3.org/1999/xlink" contentStyleType="text/css" height="1035px" preserveAspectRatio="none" style="width:958px;height:1035px;background:#FFFFFF;" version="1.1" viewBox="0 0 958 1035" width="958px" zoomAndPan="magnify"><defs/><g><ellipse cx="653.4" cy="16" fill="#222222" rx="10" ry="10" style="stroke:#222222;stroke-width:1.0;"/><g id="&#1042;&#1088;&#1077;&#1084;&#1077;&#1085;&#1085;&#1099;&#1081;&#1047;&#1072;&#1082;&#1072;&#1079;"><rect fill="#F1F1F1" height="50" rx="12.5" ry="12.5" style="stroke:#181818;stroke-width:0.5;" width="146.7725" x="431.01" y="103"/><line style="stroke:#181818;stroke-width:0.5;" x1="431.01" x2="577.7825" y1="129.2969" y2="129.2969"/><text fill="#000000" font-family="sans-serif" font-size="14" lengthAdjust="spacing" textLength="126.7725" x="441.01" y="120.9951">&#1042;&#1088;&#1077;&#1084;&#1077;&#1085;&#1085;&#1099;&#1081;&#1047;&#1072;&#1082;&#1072;&#1079;</text></g><g id="&#1057;&#1086;&#1079;&#1076;&#1072;&#1085;"><rect fill="#F1F1F1" height="50" rx="12.5" ry="12.5" style="stroke:#181818;stroke-width:0.5;" width="73.1973" x="380.8" y="245"/><line style="stroke:#181818;stroke-width:0.5;" x1="380.8" x2="453.9973" y1="271.2969" y2="271.2969"/><text fill="#000000" font-family="sans-serif" font-size="14" lengthAdjust="spacing" textLength="53.1973" x="390.8" y="262.9951">&#1057;&#1086;&#1079;&#1076;&#1072;&#1085;</text></g><g id="&#1047;&#1072;&#1082;&#1072;&#1079;&#1054;&#1087;&#1083;&#1072;&#1095;&#1077;&#1085;"><rect fill="#F1F1F1" height="50" rx="12.5" ry="12.5" style="stroke:#181818;stroke-width:0.5;" width="125.7725" x="216.51" y="372"/><line style="stroke:#181818;stroke-width:0.5;" x1="216.51" x2="342.2825" y1="398.2969" y2="398.2969"/><text fill="#000000" font-family="sans-serif" font-size="14" lengthAdjust="spacing" textLength="105.7725" x="226.51" y="389.9951">&#1047;&#1072;&#1082;&#1072;&#1079;&#1054;&#1087;&#1083;&#1072;&#1095;&#1077;&#1085;</text></g><ellipse cx="418.4" cy="1018" fill="none" rx="11" ry="11" style="stroke:#222222;stroke-width:1.0;"/><ellipse cx="418.4" cy="1018" fill="#222222" rx="6" ry="6" style="stroke:#222222;stroke-width:1.0;"/><g id="&#1055;&#1077;&#1088;&#1077;&#1076;&#1072;&#1085;&#1042;&#1055;&#1088;&#1086;&#1080;&#1079;&#1074;&#1086;&#1076;&#1089;&#1090;&#1074;&#1086;"><rect fill="#F1F1F1" height="50" rx="12.5" ry="12.5" style="stroke:#181818;stroke-width:0.5;" width="197.3447" x="162.72" y="499"/><line style="stroke:#181818;stroke-width:0.5;" x1="162.72" x2="360.0647" y1="525.2969" y2="525.2969"/><text fill="#000000" font-family="sans-serif" font-size="14" lengthAdjust="spacing" textLength="177.3447" x="172.72" y="516.9951">&#1055;&#1077;&#1088;&#1077;&#1076;&#1072;&#1085;&#1042;&#1055;&#1088;&#1086;&#1080;&#1079;&#1074;&#1086;&#1076;&#1089;&#1090;&#1074;&#1086;</text></g><g id="&#1055;&#1088;&#1080;&#1075;&#1086;&#1090;&#1086;&#1074;&#1083;&#1077;&#1085;"><rect fill="#F1F1F1" height="50" rx="12.5" ry="12.5" style="stroke:#181818;stroke-width:0.5;" width="116.1201" x="170.34" y="626"/><line style="stroke:#181818;stroke-width:0.5;" x1="170.34" x2="286.4601" y1="652.2969" y2="652.2969"/><text fill="#000000" font-family="sans-serif" font-size="14" lengthAdjust="spacing" textLength="96.1201" x="180.34" y="643.9951">&#1055;&#1088;&#1080;&#1075;&#1086;&#1090;&#1086;&#1074;&#1083;&#1077;&#1085;</text></g><g id="&#1042;&#1042;&#1099;&#1076;&#1072;&#1095;&#1077;"><rect fill="#F1F1F1" height="50" rx="12.5" ry="12.5" style="stroke:#181818;stroke-width:0.5;" width="85.4063" x="138.69" y="753"/><line style="stroke:#181818;stroke-width:0.5;" x1="138.69" x2="224.0963" y1="779.2969" y2="779.2969"/><text fill="#000000" font-family="sans-serif" font-size="14" lengthAdjust="spacing" textLength="65.4063" x="148.69" y="770.9951">&#1042;&#1042;&#1099;&#1076;&#1072;&#1095;&#1077;</text></g><g id="&#1055;&#1086;&#1083;&#1091;&#1095;&#1077;&#1085;"><rect fill="#F1F1F1" height="50" rx="12.5" ry="12.5" style="stroke:#181818;stroke-width:0.5;" width="82.3643" x="53.21" y="880"/><line style="stroke:#181818;stroke-width:0.5;" x1="53.21" x2="135.5743" y1="906.2969" y2="906.2969"/><text fill="#000000" font-family="sans-serif" font-size="14" lengthAdjust="spacing" textLength="62.3643" x="63.21" y="897.9951">&#1055;&#1086;&#1083;&#1091;&#1095;&#1077;&#1085;</text></g><g id="&#1057;&#1072;&#1084;&#1086;&#1086;&#1090;&#1082;&#1072;&#1079;"><rect fill="#F1F1F1" height="50" rx="12.5" ry="12.5" style="stroke:#181818;stroke-width:0.5;" width="98.6816" x="200.06" y="880"/><line style="stroke:#181818;stroke-width:0.5;" x1="200.06" x2="298.7416" y1="906.2969" y2="906.2969"/><text fill="#000000" font-family="sans-serif" font-size="14" lengthAdjust="spacing" textLength="78.6816" x="210.06" y="897.9951">&#1057;&#1072;&#1084;&#1086;&#1086;&#1090;&#1082;&#1072;&#1079;</text></g><!--link *start* to ??????????????--><g id="link_*start*_&#1042;&#1088;&#1077;&#1084;&#1077;&#1085;&#1085;&#1099;&#1081;&#1047;&#1072;&#1082;&#1072;&#1079;"><path d="M645.8,22.61 C626.17,37.1 577.6465,72.9156 542.3865,98.9556 " fill="none" id="*start*-to-&#1042;&#1088;&#1077;&#1084;&#1077;&#1085;&#1085;&#1099;&#1081;&#1047;&#1072;&#1082;&#1072;&#1079;" style="stroke:#181818;stroke-width:1.0;"/><polygon fill="#181818" points="537.56,102.52,547.176,100.391,541.5821,99.5496,542.4234,93.9557,537.56,102.52" style="stroke:#181818;stroke-width:1.0;"/><text fill="#000000" font-family="sans-serif" font-size="13" lengthAdjust="spacing" textLength="85.8457" x="597.4" y="69.0669">&#1053;&#1086;&#1074;&#1099;&#1081; &#1079;&#1072;&#1082;&#1072;&#1079;</text></g><!--link ?????????????? to ??????--><g id="link_&#1042;&#1088;&#1077;&#1084;&#1077;&#1085;&#1085;&#1099;&#1081;&#1047;&#1072;&#1082;&#1072;&#1079;_&#1057;&#1086;&#1079;&#1076;&#1072;&#1085;"><path d="M444.06,153.37 C432.21,161.04 421.31,170.79 414.4,183 C403.8,201.72 404.7746,220.7315 408.7946,238.9115 " fill="none" id="&#1042;&#1088;&#1077;&#1084;&#1077;&#1085;&#1085;&#1099;&#1081;&#1047;&#1072;&#1082;&#1072;&#1079;-to-&#1057;&#1086;&#1079;&#1076;&#1072;&#1085;" style="stroke:#181818;stroke-width:1.0;"/><polygon fill="#181818" points="410.09,244.77,412.0525,235.1186,409.0105,239.8879,404.2412,236.8459,410.09,244.77" style="stroke:#181818;stroke-width:1.0;"/><text fill="#000000" font-family="sans-serif" font-size="13" lengthAdjust="spacing" textLength="274.9678" x="415.4" y="196.0669">&#1050;&#1086;&#1088;&#1079;&#1080;&#1085;&#1072; &#1089;&#1092;&#1086;&#1088;&#1084;&#1080;&#1088;&#1086;&#1074;&#1072;&#1085;&#1072;, &#1074;&#1099;&#1073;&#1088;&#1072;&#1085;&#1086; &#1074;&#1088;&#1077;&#1084;&#1103;</text><text fill="#000000" font-family="sans-serif" font-size="13" lengthAdjust="spacing" textLength="130.0952" x="487.8363" y="211.1997">&#1080; &#1084;&#1077;&#1089;&#1090;&#1086; &#1087;&#1086;&#1083;&#1091;&#1095;&#1077;&#1085;&#1080;&#1103;</text></g><!--link ?????? to ????????????--><g id="link_&#1057;&#1086;&#1079;&#1076;&#1072;&#1085;_&#1047;&#1072;&#1082;&#1072;&#1079;&#1054;&#1087;&#1083;&#1072;&#1095;&#1077;&#1085;"><path d="M380.55,280.53 C355.94,288.63 324.52,302.6 304.4,325 C292.78,337.93 287.8102,350.7371 284.4402,365.6771 " fill="none" id="&#1057;&#1086;&#1079;&#1076;&#1072;&#1085;-to-&#1047;&#1072;&#1082;&#1072;&#1079;&#1054;&#1087;&#1083;&#1072;&#1095;&#1077;&#1085;" style="stroke:#181818;stroke-width:1.0;"/><polygon fill="#181818" points="283.12,371.53,289.0023,363.6307,284.2202,366.6525,281.1984,361.8704,283.12,371.53" style="stroke:#181818;stroke-width:1.0;"/><text fill="#000000" font-family="sans-serif" font-size="13" lengthAdjust="spacing" textLength="120.1484" x="305.4" y="338.0669">&#1059;&#1089;&#1087;&#1077;&#1096;&#1085;&#1072;&#1103; &#1086;&#1087;&#1083;&#1072;&#1090;&#1072;</text></g><!--link ?????? to *end*--><g id="link_&#1057;&#1086;&#1079;&#1076;&#1072;&#1085;_*end*"><path d="M428.47,295.34 C438.72,320.13 452.4,359.94 452.4,396 C452.4,396 452.4,396 452.4,906 C452.4,945.3 435.3694,983.7715 425.9694,1002.4315 " fill="none" id="&#1057;&#1086;&#1079;&#1076;&#1072;&#1085;-to-*end*" style="stroke:#181818;stroke-width:1.0;"/><polygon fill="#181818" points="423.27,1007.79,430.8914,1001.5518,425.5195,1003.3246,423.7467,997.9527,423.27,1007.79" style="stroke:#181818;stroke-width:1.0;"/><text fill="#000000" font-family="sans-serif" font-size="13" lengthAdjust="spacing" textLength="209.4917" x="453.4" y="655.5669">&#1053;&#1077; &#1086;&#1087;&#1083;&#1072;&#1095;&#1077;&#1085; &#1074; &#1090;&#1077;&#1095;&#1077;&#1085;&#1080;&#1077; 2 &#1084;&#1080;&#1085;&#1091;&#1090;</text></g><!--link ???????????? to ????????????????????--><g id="link_&#1047;&#1072;&#1082;&#1072;&#1079;&#1054;&#1087;&#1083;&#1072;&#1095;&#1077;&#1085;_&#1055;&#1077;&#1088;&#1077;&#1076;&#1072;&#1085;&#1042;&#1055;&#1088;&#1086;&#1080;&#1079;&#1074;&#1086;&#1076;&#1089;&#1090;&#1074;&#1086;"><path d="M272.64,422.29 C270.31,431.53 267.91,442.18 266.4,452 C264.02,467.39 263.0535,478.8367 262.4035,492.5767 " fill="none" id="&#1047;&#1072;&#1082;&#1072;&#1079;&#1054;&#1087;&#1083;&#1072;&#1095;&#1077;&#1085;-to-&#1055;&#1077;&#1088;&#1077;&#1076;&#1072;&#1085;&#1042;&#1055;&#1088;&#1086;&#1080;&#1079;&#1074;&#1086;&#1076;&#1089;&#1090;&#1074;&#1086;" style="stroke:#181818;stroke-width:1.0;"/><polygon fill="#181818" points="262.12,498.57,266.5408,489.7691,262.3563,493.5756,258.5498,489.391,262.12,498.57" style="stroke:#181818;stroke-width:1.0;"/><text fill="#000000" font-family="sans-serif" font-size="13" lengthAdjust="spacing" textLength="158.0313" x="267.4" y="465.0669">&#1053;&#1072;&#1095;&#1072;&#1083;&#1086; &#1087;&#1088;&#1080;&#1075;&#1086;&#1090;&#1086;&#1074;&#1083;&#1077;&#1085;&#1080;&#1103;</text></g><!--link ???????????????????? to ???????????--><g id="link_&#1055;&#1077;&#1088;&#1077;&#1076;&#1072;&#1085;&#1042;&#1055;&#1088;&#1086;&#1080;&#1079;&#1074;&#1086;&#1076;&#1089;&#1090;&#1074;&#1086;_&#1055;&#1088;&#1080;&#1075;&#1086;&#1090;&#1086;&#1074;&#1083;&#1077;&#1085;"><path d="M254.96,549.4 C249.14,571.42 242.162,597.8589 236.352,619.8589 " fill="none" id="&#1055;&#1077;&#1088;&#1077;&#1076;&#1072;&#1085;&#1042;&#1055;&#1088;&#1086;&#1080;&#1079;&#1074;&#1086;&#1076;&#1089;&#1090;&#1074;&#1086;-to-&#1055;&#1088;&#1080;&#1075;&#1086;&#1090;&#1086;&#1074;&#1083;&#1077;&#1085;" style="stroke:#181818;stroke-width:1.0;"/><polygon fill="#181818" points="234.82,625.66,240.9854,617.9797,236.0967,620.8257,233.2506,615.937,234.82,625.66" style="stroke:#181818;stroke-width:1.0;"/><text fill="#000000" font-family="sans-serif" font-size="13" lengthAdjust="spacing" textLength="81.1357" x="247.4" y="592.0669">&#1047;&#1072;&#1082;&#1072;&#1079; &#1075;&#1086;&#1090;&#1086;&#1074;</text></g><!--link ??????????? to ???????--><g id="link_&#1055;&#1088;&#1080;&#1075;&#1086;&#1090;&#1086;&#1074;&#1083;&#1077;&#1085;_&#1042;&#1042;&#1099;&#1076;&#1072;&#1095;&#1077;"><path d="M219.22,676.4 C210.94,698.42 200.9312,725.0437 192.6612,747.0437 " fill="none" id="&#1055;&#1088;&#1080;&#1075;&#1086;&#1090;&#1086;&#1074;&#1083;&#1077;&#1085;-to-&#1042;&#1042;&#1099;&#1076;&#1072;&#1095;&#1077;" style="stroke:#181818;stroke-width:1.0;"/><polygon fill="#181818" points="190.55,752.66,197.461,745.643,192.3093,747.9798,189.9726,742.8281,190.55,752.66" style="stroke:#181818;stroke-width:1.0;"/><text fill="#000000" font-family="sans-serif" font-size="13" lengthAdjust="spacing" textLength="141.6099" x="208.4" y="719.0669">&#1055;&#1077;&#1088;&#1077;&#1076;&#1072;&#1095;&#1072; &#1085;&#1072; &#1074;&#1099;&#1076;&#1072;&#1095;&#1091;</text></g><!--link ??????? to ???????--><g id="link_&#1042;&#1042;&#1099;&#1076;&#1072;&#1095;&#1077;_&#1055;&#1086;&#1083;&#1091;&#1095;&#1077;&#1085;"><path d="M138.45,780.26 C100.47,783.93 47.08,795.9 20.4,833 C6,853.02 23.5966,869.2434 47.5966,882.5934 " fill="none" id="&#1042;&#1042;&#1099;&#1076;&#1072;&#1095;&#1077;-to-&#1055;&#1086;&#1083;&#1091;&#1095;&#1077;&#1085;" style="stroke:#181818;stroke-width:1.0;"/><polygon fill="#181818" points="52.84,885.51,46.9193,877.6394,48.4705,883.0795,43.0305,884.6306,52.84,885.51" style="stroke:#181818;stroke-width:1.0;"/><text fill="#000000" font-family="sans-serif" font-size="13" lengthAdjust="spacing" textLength="143.3555" x="21.4" y="846.0669">&#1050;&#1083;&#1080;&#1077;&#1085;&#1090; &#1079;&#1072;&#1073;&#1088;&#1072;&#1083; &#1079;&#1072;&#1082;&#1072;&#1079;</text></g><!--link ??????? to ?????????--><g id="link_&#1042;&#1042;&#1099;&#1076;&#1072;&#1095;&#1077;_&#1057;&#1072;&#1084;&#1086;&#1086;&#1090;&#1082;&#1072;&#1079;"><path d="M174.75,803.23 C172.16,817.55 171.27,835.63 178.4,850 C184.24,861.79 189.268,868.0729 199.738,876.0529 " fill="none" id="&#1042;&#1042;&#1099;&#1076;&#1072;&#1095;&#1077;-to-&#1057;&#1072;&#1084;&#1086;&#1086;&#1090;&#1082;&#1072;&#1079;" style="stroke:#181818;stroke-width:1.0;"/><polygon fill="#181818" points="204.51,879.69,199.7768,871.0531,200.5334,876.6591,194.9273,877.4157,204.51,879.69" style="stroke:#181818;stroke-width:1.0;"/><text fill="#000000" font-family="sans-serif" font-size="13" lengthAdjust="spacing" textLength="246.7334" x="179.4" y="846.0669">&#1047;&#1072;&#1082;&#1072;&#1079; &#1085;&#1077; &#1079;&#1072;&#1073;&#1088;&#1072;&#1083;&#1080; &#1074; &#1090;&#1077;&#1095;&#1077;&#1085;&#1080;&#1077; 3 &#1095;&#1072;&#1089;&#1086;&#1074;</text></g><!--link ????????? to *end*--><g id="link_&#1057;&#1072;&#1084;&#1086;&#1086;&#1090;&#1082;&#1072;&#1079;_*end*"><path d="M270.53,930.41 C284.41,945.34 303.61,963.99 323.4,977 C351.51,995.48 383.8301,1006.6425 402.0601,1012.1925 " fill="none" id="&#1057;&#1072;&#1084;&#1086;&#1086;&#1090;&#1082;&#1072;&#1079;-to-*end*" style="stroke:#181818;stroke-width:1.0;"/><polygon fill="#181818" points="407.8,1013.94,400.3551,1007.4922,403.0168,1012.4838,398.0252,1015.1454,407.8,1013.94" style="stroke:#181818;stroke-width:1.0;"/><text fill="#000000" font-family="sans-serif" font-size="13" lengthAdjust="spacing" textLength="101.4927" x="324.4" y="973.0669">&#1047;&#1072;&#1082;&#1072;&#1079; &#1086;&#1090;&#1084;&#1077;&#1085;&#1077;&#1085;</text></g><!--link ??????? to *end*--><g id="link_&#1055;&#1086;&#1083;&#1091;&#1095;&#1077;&#1085;_*end*"><path d="M131.31,930.45 C156.13,945.88 190.1,965.07 222.4,977 C290.16,1002.03 371.2325,1012.1668 401.4925,1015.3268 " fill="none" id="&#1055;&#1086;&#1083;&#1091;&#1095;&#1077;&#1085;-to-*end*" style="stroke:#181818;stroke-width:1.0;"/><polygon fill="#181818" points="407.46,1015.95,398.9241,1011.0369,402.487,1015.4307,398.0932,1018.9936,407.46,1015.95" style="stroke:#181818;stroke-width:1.0;"/><text fill="#000000" font-family="sans-serif" font-size="13" lengthAdjust="spacing" textLength="68.6055" x="223.4" y="973.0669">&#1047;&#1072;&#1074;&#1077;&#1088;&#1096;&#1077;&#1085;</text></g><!--link *start* to *end*--><g id="link_*start*_*end*"><path d="M660.81,22.87 C669.27,29.93 683.02,42.51 691.4,56 C709.04,84.42 716.4,93.55 716.4,127 C716.4,127 716.4,127 716.4,906 C716.4,968.52 489.0529,1006.405 435.2929,1014.515 " fill="none" id="*start*-to-*end*" style="stroke:#181818;stroke-width:1.0;"/><polygon fill="#181818" points="429.36,1015.41,438.856,1018.0227,434.3041,1014.6642,437.6626,1010.1122,429.36,1015.41" style="stroke:#181818;stroke-width:1.0;"/><text fill="#000000" font-family="sans-serif" font-size="13" lengthAdjust="spacing" textLength="233.27" x="717.4" y="528.5669">&#1048;&#1085;&#1092;&#1086;&#1088;&#1084;&#1072;&#1094;&#1080;&#1103; &#1091;&#1076;&#1072;&#1083;&#1077;&#1085;&#1072; &#1095;&#1077;&#1088;&#1077;&#1079; 1 &#1075;&#1086;&#1076;</text></g><!--SRC=[ZLDBJiDG3Do_KtYDw0BOiU0YXIjm1aWH87LHgHiG4bGL5tY4HWcaALUmRyICNzkaFyGYRU8t7e_7VlsZA-drBaJ7TgE5pl4qsjXGl_H9etxZAULSz5KNcZCiMgxYuSyaPvqYhTGP0WrPNdI1Z58huAFOhTrvOAuLVb60E8t7ugK-4EFtWfzUnqQNrre92o8tuyaFqceRs8Dhg6mKDcgwYBKcVGE-rfZG5FHkjmWLziYwDXAa9aIcSPUf3xFSYw859YhD1Id5IWO0fvI9Fg4j2-6W1XSuGIORz4ewrecxKG6Sut_clU8jrMPc10ER1wxIJtYOkNjrQy9_ALFzVJoirawpFGq7u6cBi1935cLxPEZee6xnmVjuFM83UBEPj7IaCzQqEJLjXPzPsi2q7VNcEkuIJN4o1ncrhfUvqrR3MNRuk5uxipmJQiUgiFsmXxEp71rkdgUxWITizRILajCdh26HeR-ybClpPtIzkYZHxZbWiO6FDaqyKb_okPGJdvNEVW40]--></g></svg>