<svg xmlns="http://www.w3.org/2000/svg" xmlns:xlink="http://www.w3.org/1999/xlink" contentStyleType="text/css" height="1080px" preserveAspectRatio="none" style="width:1629px;height:1080px;background:#FFFFFF;" version="1.1" viewBox="0 0 1629 1080" width="1629px" zoomAndPan="magnify"><defs/><g><!--cluster ???????--><g id="cluster_&#1057;&#1080;&#1089;&#1090;&#1077;&#1084;&#1072;"><path d="M279.94,6 L347.8228,6 A3.75,3.75 0 0 1 350.3228,8.5 L357.3228,28.2969 L1620.26,28.2969 A2.5,2.5 0 0 1 1622.76,30.7969 L1622.76,1070.5 A2.5,2.5 0 0 1 1620.26,1073 L279.94,1073 A2.5,2.5 0 0 1 277.44,1070.5 L277.44,8.5 A2.5,2.5 0 0 1 279.94,6 " fill="none" style="stroke:#000000;stroke-width:1.5;"/><line style="stroke:#000000;stroke-width:1.5;" x1="277.44" x2="357.3228" y1="28.2969" y2="28.2969"/><text fill="#000000" font-family="sans-serif" font-size="14" font-weight="bold" lengthAdjust="spacing" textLength="66.8828" x="281.44" y="20.9951">&#1057;&#1080;&#1089;&#1090;&#1077;&#1084;&#1072;</text></g><g id="elem_offer"><ellipse cx="430.0597" cy="344.0039" fill="#F1F1F1" rx="81.2197" ry="18.6439" style="stroke:#181818;stroke-width:0.5;"/><text fill="#000000" font-family="sans-serif" font-size="14" lengthAdjust="spacing" textLength="121.4609" x="368.1135" y="347.2489">&#1054;&#1092;&#1086;&#1088;&#1084;&#1080;&#1090;&#1100; &#1079;&#1072;&#1082;&#1072;&#1079;</text></g><g id="elem_menu"><ellipse cx="843.119" cy="237.0038" fill="#F1F1F1" rx="99.119" ry="22.2238" style="stroke:#181818;stroke-width:0.5;"/><text fill="#000000" font-family="sans-serif" font-size="14" lengthAdjust="spacing" textLength="162.1143" x="762.0619" y="239.8505">&#1054;&#1079;&#1085;&#1072;&#1082;&#1086;&#1084;&#1080;&#1090;&#1100;&#1089;&#1103; &#1089; &#1084;&#1077;&#1085;&#1102;</text></g><g id="elem_basket"><ellipse cx="843.1213" cy="59.9983" fill="#F1F1F1" rx="82.7913" ry="18.9583" style="stroke:#181818;stroke-width:0.5;"/><text fill="#000000" font-family="sans-serif" font-size="14" lengthAdjust="spacing" textLength="125.1865" x="779.8639" y="63.0686">&#1057;&#1086;&#1073;&#1088;&#1072;&#1090;&#1100; &#1082;&#1086;&#1088;&#1079;&#1080;&#1085;&#1091;</text></g><g id="elem_place"><ellipse cx="843.1225" cy="559.0005" fill="#F1F1F1" rx="128.2525" ry="28.0505" style="stroke:#181818;stroke-width:0.5;"/><text fill="#000000" font-family="sans-serif" font-size="14" lengthAdjust="spacing" textLength="159.6738" x="763.2856" y="553.6987">&#1059;&#1082;&#1072;&#1079;&#1072;&#1090;&#1100; &#1080;&#1085;&#1092;&#1086;&#1088;&#1084;&#1072;&#1094;&#1080;&#1102;</text><text fill="#000000" font-family="sans-serif" font-size="14" lengthAdjust="spacing" textLength="178.2471" x="753.999" y="569.9956">&#8220;&#1074; &#1079;&#1072;&#1083;&#1077;&#8221; &#1080;&#1083;&#1080; &#8220;&#1085;&#1072; &#1074;&#1099;&#1085;&#1086;&#1089;&#8221;</text></g><g id="elem_pay"><ellipse cx="843.1243" cy="475.0049" fill="#F1F1F1" rx="90.3243" ry="20.4649" style="stroke:#181818;stroke-width:0.5;"/><text fill="#000000" font-family="sans-serif" font-size="14" lengthAdjust="spacing" textLength="142.4746" x="771.887" y="477.8515">&#1055;&#1088;&#1086;&#1080;&#1079;&#1074;&#1077;&#1089;&#1090;&#1080; &#1086;&#1087;&#1083;&#1072;&#1090;&#1091;</text></g><g id="elem_pay_bonus"><ellipse cx="1514.6982" cy="471.0016" fill="#F1F1F1" rx="92.0582" ry="20.8116" style="stroke:#181818;stroke-width:0.5;"/><text fill="#000000" font-family="sans-serif" font-size="14" lengthAdjust="spacing" textLength="146.3848" x="1441.5058" y="473.8483">&#1054;&#1087;&#1083;&#1072;&#1090;&#1080;&#1090;&#1100; &#1073;&#1086;&#1085;&#1091;&#1089;&#1072;&#1084;&#1080;</text></g><g id="elem_pay_cash"><ellipse cx="1217.6" cy="510.998" fill="#F1F1F1" rx="98.04" ry="22.008" style="stroke:#181818;stroke-width:0.5;"/><text fill="#000000" font-family="sans-serif" font-size="14" lengthAdjust="spacing" textLength="159.7285" x="1137.7357" y="513.8447">&#1054;&#1087;&#1083;&#1072;&#1090;&#1080;&#1090;&#1100; &#1085;&#1072;&#1083;&#1080;&#1095;&#1085;&#1099;&#1084;&#1080;</text></g><g id="elem_pay_card"><ellipse cx="1217.6023" cy="435.0005" fill="#F1F1F1" rx="83.8023" ry="19.1605" style="stroke:#181818;stroke-width:0.5;"/><text fill="#000000" font-family="sans-serif" font-size="14" lengthAdjust="spacing" textLength="127.5518" x="1153.5016" y="437.9584">&#1054;&#1087;&#1083;&#1072;&#1090;&#1080;&#1090;&#1100; &#1082;&#1072;&#1088;&#1090;&#1086;&#1081;</text></g><g id="elem_ticket"><ellipse cx="843.125" cy="401.003" fill="#F1F1F1" rx="79.765" ry="18.353" style="stroke:#181818;stroke-width:0.5;"/><text fill="#000000" font-family="sans-serif" font-size="14" lengthAdjust="spacing" textLength="117.9541" x="782.3925" y="404.4096">&#1055;&#1086;&#1083;&#1091;&#1095;&#1080;&#1090;&#1100; &#1090;&#1072;&#1083;&#1086;&#1085;</text></g><g id="elem_loyal"><ellipse cx="843.1194" cy="321.0019" fill="#F1F1F1" rx="122.7094" ry="26.9419" style="stroke:#181818;stroke-width:0.5;"/><text fill="#000000" font-family="sans-serif" font-size="14" lengthAdjust="spacing" textLength="136.0352" x="775.1018" y="315.7001">&#1047;&#1072;&#1088;&#1077;&#1075;&#1080;&#1089;&#1090;&#1088;&#1080;&#1088;&#1086;&#1074;&#1072;&#1090;&#1100;</text><text fill="#000000" font-family="sans-serif" font-size="14" lengthAdjust="spacing" textLength="163.3926" x="761.4231" y="331.997">&#1074; &#1089;&#1080;&#1089;&#1090;&#1077;&#1084;&#1077; &#1083;&#1086;&#1103;&#1083;&#1100;&#1085;&#1086;&#1089;&#1090;&#1080;</text></g><g id="elem_canc"><ellipse cx="430.0576" cy="859.9955" fill="#F1F1F1" rx="110.8776" ry="24.5755" style="stroke:#181818;stroke-width:0.5;"/><text fill="#000000" font-family="sans-serif" font-size="14" lengthAdjust="spacing" textLength="187.7764" x="336.1694" y="862.8422">&#1054;&#1092;&#1086;&#1088;&#1084;&#1080;&#1090;&#1100; &#1086;&#1090;&#1082;&#1072;&#1079; &#1087;&#1086;&#1082;&#1091;&#1087;&#1082;&#1080;</text></g><g id="elem_canc_client"><ellipse cx="843.1243" cy="146.9969" fill="#F1F1F1" rx="151.1343" ry="32.6269" style="stroke:#181818;stroke-width:0.5;"/><text fill="#000000" font-family="sans-serif" font-size="14" lengthAdjust="spacing" textLength="272.8428" x="706.7029" y="149.8435">&#1054;&#1092;&#1086;&#1088;&#1084;&#1080;&#1090;&#1100; &#1086;&#1090;&#1082;&#1072;&#1079; &#1087;&#1086; &#1079;&#1072;&#1087;&#1088;&#1086;&#1089;&#1091; &#1082;&#1083;&#1080;&#1077;&#1085;&#1090;&#1072;</text></g><g id="elem_canc_no_stock"><ellipse cx="843.1201" cy="921.998" fill="#F1F1F1" rx="167.4401" ry="35.888" style="stroke:#181818;stroke-width:0.5;"/><text fill="#000000" font-family="sans-serif" font-size="14" lengthAdjust="spacing" textLength="306.626" x="689.8071" y="924.8447">&#1054;&#1092;&#1086;&#1088;&#1084;&#1080;&#1090;&#1100; &#1086;&#1090;&#1082;&#1072;&#1079; &#1080;&#1079;-&#1079;&#1072; &#1086;&#1090;&#1089;&#1091;&#1090;&#1089;&#1090;&#1074;&#1080;&#1103; &#1090;&#1086;&#1074;&#1072;&#1088;&#1072;</text></g><g id="elem_canc_other"><ellipse cx="843.1173" cy="1025.0015" fill="#F1F1F1" rx="148.5073" ry="32.1015" style="stroke:#181818;stroke-width:0.5;"/><text fill="#000000" font-family="sans-serif" font-size="14" lengthAdjust="spacing" textLength="267.374" x="709.4303" y="1027.8481">&#1054;&#1092;&#1086;&#1088;&#1084;&#1080;&#1090;&#1100; &#1086;&#1090;&#1082;&#1072;&#1079; &#1087;&#1086; &#1076;&#1088;&#1091;&#1075;&#1086;&#1081; &#1087;&#1088;&#1080;&#1095;&#1080;&#1085;&#1077;</text></g><g id="elem_addmenu"><ellipse cx="430.0595" cy="737.0019" fill="#F1F1F1" rx="95.5095" ry="21.5019" style="stroke:#181818;stroke-width:0.5;"/><text fill="#000000" font-family="sans-serif" font-size="14" lengthAdjust="spacing" textLength="154.1094" x="353.0048" y="739.8486">&#1057;&#1092;&#1086;&#1088;&#1084;&#1080;&#1088;&#1086;&#1074;&#1072;&#1090;&#1100; &#1084;&#1077;&#1085;&#1102;</text></g><g id="elem_acs"><ellipse cx="843.1182" cy="736.9996" fill="#F1F1F1" rx="120.4482" ry="26.4896" style="stroke:#181818;stroke-width:0.5;"/><text fill="#000000" font-family="sans-serif" font-size="14" lengthAdjust="spacing" textLength="154" x="763.1182" y="732.5988">&#1042;&#1085;&#1077;&#1089;&#1090;&#1080; &#1080;&#1085;&#1092;&#1086;&#1088;&#1084;&#1072;&#1094;&#1080;&#1102;</text><text fill="#000000" font-family="sans-serif" font-size="14" lengthAdjust="spacing" textLength="76.8154" x="801.7104" y="748.8956">&#1087;&#1086; &#1072;&#1082;&#1094;&#1080;&#1103;&#1084;</text></g><g id="elem_cena"><ellipse cx="843.1182" cy="648.9996" fill="#F1F1F1" rx="120.4482" ry="26.4896" style="stroke:#181818;stroke-width:0.5;"/><text fill="#000000" font-family="sans-serif" font-size="14" lengthAdjust="spacing" textLength="154" x="763.1182" y="644.5988">&#1042;&#1085;&#1077;&#1089;&#1090;&#1080; &#1080;&#1085;&#1092;&#1086;&#1088;&#1084;&#1072;&#1094;&#1080;&#1102;</text><text fill="#000000" font-family="sans-serif" font-size="14" lengthAdjust="spacing" textLength="68.6055" x="805.8154" y="660.8956">&#1087;&#1086; &#1094;&#1077;&#1085;&#1072;&#1084;</text></g><g id="elem_poc"><ellipse cx="843.1182" cy="824.9996" fill="#F1F1F1" rx="120.4482" ry="26.4896" style="stroke:#181818;stroke-width:0.5;"/><text fill="#000000" font-family="sans-serif" font-size="14" lengthAdjust="spacing" textLength="154" x="763.1182" y="820.5988">&#1042;&#1085;&#1077;&#1089;&#1090;&#1080; &#1080;&#1085;&#1092;&#1086;&#1088;&#1084;&#1072;&#1094;&#1080;&#1102;</text><text fill="#000000" font-family="sans-serif" font-size="14" lengthAdjust="spacing" textLength="109.3408" x="785.4477" y="836.8956">&#1087;&#1086; &#1090;&#1077;&#1093;. &#1082;&#1072;&#1088;&#1090;&#1072;&#1084;</text></g><g id="elem_robot"><ellipse cx="430.0571" cy="1027.0034" fill="#F1F1F1" rx="136.6171" ry="29.7234" style="stroke:#181818;stroke-width:0.5;"/><text fill="#000000" font-family="sans-serif" font-size="14" lengthAdjust="spacing" textLength="198.543" x="327.7856" y="1022.6025">&#1055;&#1088;&#1086;&#1089;&#1084;&#1086;&#1090;&#1088;&#1077;&#1090;&#1100; &#1080;&#1085;&#1092;&#1086;&#1088;&#1084;&#1072;&#1094;&#1080;&#1102;</text><text fill="#000000" font-family="sans-serif" font-size="14" lengthAdjust="spacing" textLength="153.542" x="350.2861" y="1038.8994">&#1086; &#1089;&#1086;&#1089;&#1090;&#1086;&#1103;&#1085;&#1080;&#1080; &#1088;&#1086;&#1073;&#1086;&#1090;&#1086;&#1074;</text></g><g id="elem_stock_check"><ellipse cx="430.0561" cy="940.9972" fill="#F1F1F1" rx="94.9361" ry="21.3872" style="stroke:#181818;stroke-width:0.5;"/><text fill="#000000" font-family="sans-serif" font-size="14" lengthAdjust="spacing" textLength="152.8311" x="353.6406" y="943.8439">&#1052;&#1086;&#1085;&#1080;&#1090;&#1086;&#1088;&#1080;&#1085;&#1075; &#1079;&#1072;&#1087;&#1072;&#1089;&#1086;&#1074;</text></g><g id="elem_contact_manager"><ellipse cx="430.0589" cy="421.9958" fill="#F1F1F1" rx="110.7289" ry="24.5458" style="stroke:#181818;stroke-width:0.5;"/><text fill="#000000" font-family="sans-serif" font-size="14" lengthAdjust="spacing" textLength="187.4551" x="336.3313" y="424.8425">&#1057;&#1074;&#1103;&#1079;&#1072;&#1090;&#1100;&#1089;&#1103; &#1089; &#1084;&#1077;&#1085;&#1077;&#1076;&#1078;&#1077;&#1088;&#1086;&#1084;</text></g><!--entity client--><g id="elem_client"><ellipse cx="118.2225" cy="314.35" fill="#F1F1F1" rx="8" ry="8" style="stroke:#181818;stroke-width:0.5;"/><path d="M118.2225,322.35 L118.2225,349.35 M105.2225,330.35 L131.2225,330.35 M118.2225,349.35 L105.2225,364.35 M118.2225,349.35 L131.2225,364.35 " fill="none" style="stroke:#181818;stroke-width:0.5;"/><text fill="#000000" font-family="sans-serif" font-size="14" lengthAdjust="spacing" textLength="86.625" x="74.91" y="378.8451">&#1055;&#1086;&#1089;&#1077;&#1090;&#1080;&#1090;&#1077;&#1083;&#1100;</text></g><!--entity mvariety--><g id="elem_mvariety"><ellipse cx="118.2192" cy="707.35" fill="#F1F1F1" rx="8" ry="8" style="stroke:#181818;stroke-width:0.5;"/><path d="M118.2192,715.35 L118.2192,742.35 M105.2192,723.35 L131.2192,723.35 M118.2192,742.35 L105.2192,757.35 M118.2192,742.35 L131.2192,757.35 " fill="none" style="stroke:#181818;stroke-width:0.5;"/><text fill="#000000" font-family="sans-serif" font-size="14" lengthAdjust="spacing" textLength="208.3184" x="14.06" y="771.8451">&#1052;&#1077;&#1085;&#1077;&#1076;&#1078;&#1077;&#1088; &#1087;&#1086; &#1072;&#1089;&#1089;&#1086;&#1088;&#1090;&#1080;&#1084;&#1077;&#1085;&#1090;&#1091;</text></g><!--entity mguest--><g id="elem_mguest"><ellipse cx="118.2222" cy="830.35" fill="#F1F1F1" rx="8" ry="8" style="stroke:#181818;stroke-width:0.5;"/><path d="M118.2222,838.35 L118.2222,865.35 M105.2222,846.35 L131.2222,846.35 M118.2222,865.35 L105.2222,880.35 M118.2222,865.35 L131.2222,880.35 " fill="none" style="stroke:#181818;stroke-width:0.5;"/><text fill="#000000" font-family="sans-serif" font-size="14" lengthAdjust="spacing" textLength="224.4443" x="6" y="894.8451">&#1052;&#1077;&#1085;&#1077;&#1076;&#1078;&#1077;&#1088; &#1087;&#1086; &#1075;&#1086;&#1089;&#1090;&#1077;&#1087;&#1088;&#1080;&#1080;&#1084;&#1089;&#1090;&#1074;&#1091;</text></g><!--entity mbuy--><g id="elem_mbuy"><ellipse cx="118.2202" cy="961.35" fill="#F1F1F1" rx="8" ry="8" style="stroke:#181818;stroke-width:0.5;"/><path d="M118.2202,969.35 L118.2202,996.35 M105.2202,977.35 L131.2202,977.35 M118.2202,996.35 L105.2202,1011.35 M118.2202,996.35 L131.2202,1011.35 " fill="none" style="stroke:#181818;stroke-width:0.5;"/><text fill="#000000" font-family="sans-serif" font-size="14" lengthAdjust="spacing" textLength="162.3604" x="37.04" y="1025.8451">&#1056;&#1072;&#1073;&#1086;&#1090;&#1085;&#1080;&#1082; &#1087;&#1086;&#1087;&#1086;&#1083;&#1085;&#1077;&#1085;&#1080;&#1103;</text></g><!--link client to offer--><g id="link_client_offer"><path d="M161.98,344 C209.96,344 288.87,344 348.5,344 " fill="none" id="client-offer" style="stroke:#181818;stroke-width:1.0;"/></g><!--link client to canc_client--><g id="link_client_canc_client"><path d="M161.76,321.32 C243.35,279.18 428.65,189.89 596.68,155 C627.36,148.63 660.66,145.26 692.53,143.69 " fill="none" id="client-canc_client" style="stroke:#181818;stroke-width:1.0;"/><text fill="#000000" font-family="sans-serif" font-size="13" lengthAdjust="spacing" textLength="47.0996" x="406.56" y="159.0669">include</text></g><!--link client to contact_manager--><g id="link_client_contact_manager"><path d="M161.98,354.76 C211.86,367.32 295.19,388.3 355.53,403.49 " fill="none" id="client-contact_manager" style="stroke:#181818;stroke-width:1.0;"/></g><!--link offer to menu--><g id="link_offer_menu"><path d="M491.49,331.55 C534.92,321.94 594.57,307.37 645.68,290 C659.44,285.32 661.9,281.6 675.68,277 C705.42,267.07 733.0589,259.8586 762.1689,253.2486 " fill="none" id="offer-to-menu" style="stroke:#181818;stroke-width:1.0;stroke-dasharray:7.0,7.0;"/><polygon fill="#181818" points="768.02,251.92,758.3577,250.0122,763.1441,253.0272,760.1292,257.8136,768.02,251.92" style="stroke:#181818;stroke-width:1.0;"/><text fill="#000000" font-family="sans-serif" font-size="13" lengthAdjust="spacing" textLength="47.0996" x="597.68" y="286.0669">include</text></g><!--link offer to basket--><g id="link_offer_basket"><path d="M443.66,325.28 C476.11,278.62 567.63,156.66 675.68,97 C703.28,81.76 730.8126,73.8503 760.4526,68.5803 " fill="none" id="offer-to-basket" style="stroke:#181818;stroke-width:1.0;stroke-dasharray:7.0,7.0;"/><polygon fill="#181818" points="766.36,67.53,756.7988,65.1673,761.4372,68.4053,758.1992,73.0437,766.36,67.53" style="stroke:#181818;stroke-width:1.0;"/><text fill="#000000" font-family="sans-serif" font-size="13" lengthAdjust="spacing" textLength="47.0996" x="597.68" y="113.0669">include</text></g><!--link offer to pay--><g id="link_offer_pay"><path d="M495.97,355.19 C519.1,360.72 544.82,368.7 566.68,380 C582.1,387.97 581.79,396.08 596.68,405 C648.75,436.2 709.4903,452.9046 760.1903,462.7646 " fill="none" id="offer-to-pay" style="stroke:#181818;stroke-width:1.0;stroke-dasharray:7.0,7.0;"/><polygon fill="#181818" points="766.08,463.91,758.0091,458.2655,761.172,462.9555,756.4819,466.1183,766.08,463.91" style="stroke:#181818;stroke-width:1.0;"/><text fill="#000000" font-family="sans-serif" font-size="13" lengthAdjust="spacing" textLength="47.0996" x="597.68" y="401.0669">include</text></g><!--link offer to place--><g id="link_offer_place"><path d="M505.58,351.16 C527.29,356.37 549.7,365.18 566.68,380 C592.79,402.8 575.59,424.49 596.68,452 C623.67,487.21 636,493.16 675.68,513 C698.2,524.26 718.0906,531.4681 742.4006,538.2481 " fill="none" id="offer-to-place" style="stroke:#181818;stroke-width:1.0;stroke-dasharray:7.0,7.0;"/><polygon fill="#181818" points="748.18,539.86,740.5854,533.5892,743.3638,538.5168,738.4363,541.2952,748.18,539.86" style="stroke:#181818;stroke-width:1.0;"/><text fill="#000000" font-family="sans-serif" font-size="13" lengthAdjust="spacing" textLength="47.0996" x="597.68" y="448.0669">include</text></g><!--link offer to ticket--><g id="link_offer_ticket"><path d="M493.84,355.9 C524.74,361.53 562.59,368.08 596.68,373 C654.41,381.34 714.1023,388.0984 762.9723,393.1884 " fill="none" id="offer-to-ticket" style="stroke:#181818;stroke-width:1.0;stroke-dasharray:7.0,7.0;"/><polygon fill="#181818" points="768.94,393.81,760.4028,388.8992,763.9669,393.292,759.574,396.8561,768.94,393.81" style="stroke:#181818;stroke-width:1.0;"/><text fill="#000000" font-family="sans-serif" font-size="13" lengthAdjust="spacing" textLength="47.0996" x="597.68" y="369.0669">include</text></g><!--reverse link offer to loyal--><g id="link_offer_loyal"><path d="M517.0789,345.8548 C544.2489,346.3748 568.78,346.75 596.68,347 C618.46,347.2 623.95,348.43 645.68,347 C677.26,344.92 711.51,340.98 742.44,336.78 " fill="none" id="offer-backto-loyal" style="stroke:#181818;stroke-width:1.0;stroke-dasharray:7.0,7.0;"/><polygon fill="#181818" points="511.08,345.74,520.0018,349.9115,516.0791,345.8357,520.1549,341.9129,511.08,345.74" style="stroke:#181818;stroke-width:1.0;"/><text fill="#000000" font-family="sans-serif" font-size="13" lengthAdjust="spacing" textLength="45.2778" x="598.68" y="343.0669">extend</text></g><!--link pay to pay_cash--><g id="link_pay_pay_cash"><path d="M915.74,487.45 C952.87,493.43 999.03,500.12 1040.56,504 C1066.14,506.39 1087.8948,507.73 1113.6248,508.76 " fill="none" id="pay-to-pay_cash" style="stroke:#181818;stroke-width:1.0;stroke-dasharray:7.0,7.0;"/><polygon fill="#181818" points="1119.62,509,1110.7872,504.6432,1114.624,508.8,1110.4672,512.6368,1119.62,509" style="stroke:#181818;stroke-width:1.0;"/><text fill="#000000" font-family="sans-serif" font-size="13" lengthAdjust="spacing" textLength="47.0996" x="1041.56" y="500.0669">include</text></g><!--link pay to pay_card--><g id="link_pay_pay_card"><path d="M925.4,466.27 C989.51,459.39 1072.2944,450.5011 1134.9144,443.7711 " fill="none" id="pay-to-pay_card" style="stroke:#181818;stroke-width:1.0;stroke-dasharray:7.0,7.0;"/><polygon fill="#181818" points="1140.88,443.13,1131.5041,440.1146,1135.9086,443.6643,1132.359,448.0688,1140.88,443.13" style="stroke:#181818;stroke-width:1.0;"/><text fill="#000000" font-family="sans-serif" font-size="13" lengthAdjust="spacing" textLength="47.0996" x="1041.56" y="446.0669">include</text></g><!--reverse link pay_cash to pay_bonus--><g id="link_pay_cash_pay_bonus"><path d="M1320.2072,497.2248 C1361.7872,491.5948 1393.89,487.24 1434.79,481.7 " fill="none" id="pay_cash-backto-pay_bonus" style="stroke:#181818;stroke-width:1.0;stroke-dasharray:7.0,7.0;"/><polygon fill="none" points="1302.37,499.64,1321.0123,503.1706,1319.4022,491.2791,1302.37,499.64" style="stroke:#181818;stroke-width:1.0;"/><text fill="#000000" font-family="sans-serif" font-size="13" lengthAdjust="spacing" textLength="45.2778" x="1346.64" y="484.0669">extend</text></g><!--reverse link pay_card to pay_bonus--><g id="link_pay_card_pay_bonus"><path d="M1310.1674,446.1707 C1352.9374,451.3907 1388.98,455.79 1432.9,461.14 " fill="none" id="pay_card-backto-pay_bonus" style="stroke:#181818;stroke-width:1.0;stroke-dasharray:7.0,7.0;"/><polygon fill="none" points="1292.3,443.99,1309.4405,452.1265,1310.8943,440.2149,1292.3,443.99" style="stroke:#181818;stroke-width:1.0;"/><text fill="#000000" font-family="sans-serif" font-size="13" lengthAdjust="spacing" textLength="45.2778" x="1346.64" y="447.0669">extend</text></g><!--link mvariety to addmenu--><g id="link_mvariety_addmenu"><path d="M222.82,737 C258.8,737 298.94,737 334.18,737 " fill="none" id="mvariety-addmenu" style="stroke:#181818;stroke-width:1.0;"/></g><!--link mguest to canc--><g id="link_mguest_canc"><path d="M230.64,860 C259.36,860 290.24,860 318.89,860 " fill="none" id="mguest-canc" style="stroke:#181818;stroke-width:1.0;"/></g><!--reverse link canc to canc_client--><g id="link_canc_canc_client"><path d="M505.6748,831.1893 C534.0248,817.7493 549.37,805.02 566.68,776 C624.48,679.06 548.05,370.85 596.68,269 C621.69,216.61 678.6,186.45 731.33,169.22 " fill="none" id="canc-backto-canc_client" style="stroke:#181818;stroke-width:1.0;stroke-dasharray:7.0,7.0;"/><polygon fill="none" points="489.41,838.9,508.2451,836.6109,503.1046,825.7677,489.41,838.9" style="stroke:#181818;stroke-width:1.0;"/><text fill="#000000" font-family="sans-serif" font-size="13" lengthAdjust="spacing" textLength="45.2778" x="598.68" y="211.0669">extend</text></g><!--reverse link canc to canc_no_stock--><g id="link_canc_canc_no_stock"><path d="M540.5988,876.5236 C594.1888,884.6036 645.06,892.28 704.98,901.31 " fill="none" id="canc-backto-canc_no_stock" style="stroke:#181818;stroke-width:1.0;stroke-dasharray:7.0,7.0;"/><polygon fill="none" points="522.8,873.84,539.7043,882.4565,541.4934,870.5907,522.8,873.84" style="stroke:#181818;stroke-width:1.0;"/><text fill="#000000" font-family="sans-serif" font-size="13" lengthAdjust="spacing" textLength="45.2778" x="598.68" y="882.0669">extend</text></g><!--reverse link canc to canc_other--><g id="link_canc_canc_other"><path d="M521.8857,883.8482 C542.4157,890.1582 547.21,892.71 566.68,902 C619.3,927.11 622.95,950.11 675.68,975 C697.1,985.11 721.03,993.72 743.92,1000.8 " fill="none" id="canc-backto-canc_other" style="stroke:#181818;stroke-width:1.0;stroke-dasharray:7.0,7.0;"/><polygon fill="none" points="504.68,878.56,520.1229,889.5835,523.6484,878.113,504.68,878.56" style="stroke:#181818;stroke-width:1.0;"/><text fill="#000000" font-family="sans-serif" font-size="13" lengthAdjust="spacing" textLength="45.2778" x="598.68" y="916.0669">extend</text></g><!--link addmenu to acs--><g id="link_addmenu_acs"><path d="M525.88,737 C584.33,737 653.8,737 716.35,737 " fill="none" id="addmenu-to-acs" style="stroke:#181818;stroke-width:1.0;stroke-dasharray:7.0,7.0;"/><polygon fill="#181818" points="722.35,737,713.35,733,717.35,737,713.35,741,722.35,737" style="stroke:#181818;stroke-width:1.0;"/><text fill="#000000" font-family="sans-serif" font-size="13" lengthAdjust="spacing" textLength="47.0996" x="597.68" y="733.0669">include</text></g><!--link addmenu to cena--><g id="link_addmenu_cena"><path d="M500.33,722.17 C570.57,707.13 673.5928,685.0755 749.5328,668.8255 " fill="none" id="addmenu-to-cena" style="stroke:#181818;stroke-width:1.0;stroke-dasharray:7.0,7.0;"/><polygon fill="#181818" points="755.4,667.57,745.7622,665.5418,750.5107,668.6162,747.4362,673.3647,755.4,667.57" style="stroke:#181818;stroke-width:1.0;"/><text fill="#000000" font-family="sans-serif" font-size="13" lengthAdjust="spacing" textLength="47.0996" x="597.68" y="689.0669">include</text></g><!--link addmenu to poc--><g id="link_addmenu_poc"><path d="M500.33,751.83 C570.57,766.87 673.5928,788.9245 749.5328,805.1745 " fill="none" id="addmenu-to-poc" style="stroke:#181818;stroke-width:1.0;stroke-dasharray:7.0,7.0;"/><polygon fill="#181818" points="755.4,806.43,747.4362,800.6353,750.5107,805.3838,745.7622,808.4582,755.4,806.43" style="stroke:#181818;stroke-width:1.0;"/><text fill="#000000" font-family="sans-serif" font-size="13" lengthAdjust="spacing" textLength="47.0996" x="597.68" y="770.0669">include</text></g><!--link mbuy to robot--><g id="link_mbuy_robot"><path d="M199.82,1000.36 C232.99,1004.22 272.12,1008.77 308.57,1013 " fill="none" id="mbuy-robot" style="stroke:#181818;stroke-width:1.0;"/></g><!--link mbuy to stock_check--><g id="link_mbuy_stock_check"><path d="M199.82,977.99 C246.71,970.43 305.5,960.94 351.81,953.47 " fill="none" id="mbuy-stock_check" style="stroke:#181818;stroke-width:1.0;"/></g><!--SRC=[dLP1Rjf05Dtx5AFimm6gg5Ab7g7BI6Wmas01Dh9DLTHM8adRB185gPjkqgQe5o0aD0G2kSBC5NAIll_7XZ65DEd2DFQV__wVD- -_QKFjfIADH1pirr9H3MBbfq4KUaaz25iobatnMkt9TYDzezwbhnh1VjXKOIfy_AZOatuQnM9BN-YvET0ZSwZ7U4PwQawtX4o4tmYmSB7i7A4Pdclz6ukxGj_hkT03Su3akUbIkhwZDURG7350ywsC0vLs_W5nHVMvyhtf0WGm_3xCOVRRAbdsyLCFz2LI3W4rrXC6uMVAsFXeUZQlqkvuNalwTRclXEuZOClSwO5uxtdjHFaoKO3yOJxH5X000-PKw1lKcE2vOQ1eRmzqESiHd_6AUPu2v9um1o9ZuCmseCAsazR7yajK6TWQ4ovvWptCierMP59NgPFnopQHPz3AlD61-OBAPxlXG_TS3st7Kprww7wdTLCz5XH0bm8ydk0FS8mWrsarfA-SCXT0d2FhHWznBCJHM32dKwvicsl9Je62B9epXXEXVK0B0-8aJobNeh2TF9OuuyR7vXZf9uLKPDGUomGtBBkvldLouggxCv85kZhESh2Qgg5LpaW3lqZuDuB42LvPhP0ScPkXFOBT45HZYqiXZGJ1cHuDZIMP-cFmHjIHZST4HXBcyxKIdfWZ_3l9idqP-azFjkTFuqCT714tuDGEenui0ClPI3yD5uBO9bp-IB3yYxca2HDC_93vSWg4KJb98x_-dDQlSOf7v0BwLbWBeFEYOLxYHccjC89z1zGveEByoMfrPGI_4cgkyBNZbBaQJeC-zFITHVAJvwFWPSJojXXmNVaV8D2P-LnQgZs7QqN-wWX3cNTyLbroyusEGQW7cLH9kcIZOy4qMby5dLmYZYgHAvPp6Xo-9EPir3DzbGcFhe556WkWxDTKGGPz-50lzxAYNIvl139KIrOKfZ3ySbE6CE_OypvwdXMlsDxE37dvxcXRl111w3VQLUN6Lz4OG9HABzcZdPnbm9hnsX2CPlrtyjMr4MiqVuLsIYLh4uZWXbPXbUwhJbw47T19AeRYgXFo5ijtFW1quRnBu4NIfWLUVbqJO_deUFRopKdswCSY53dFC5R2kHjiNC1ZxRIGbULTOkQS3ReHcgGD8Ko5omhz5u1wjqhEtno1_W40]--></g></svg>